<svg width="36" height="38" viewBox="0 0 36 38" fill="none" xmlns="http://www.w3.org/2000/svg">
<path d="M17.9 10.7534L13.9922 25.3173C13.5627 26.9182 14.5129 28.5642 16.1142 28.9927L23.8969 31.0756C25.4971 31.5039 27.1416 30.5541 27.5703 28.9541L31.4724 14.3912C31.9012 12.7908 30.9515 11.1458 29.3511 10.717L21.574 8.63311C19.9739 8.20439 18.3293 9.15357 17.9 10.7534Z" fill="#FDFBF5" stroke="#1F1F1F" stroke-width="3"/>
<path d="M27.618 7.59958V31.3097" stroke="#FDFBF5" stroke-width="9" stroke-linecap="round"/>
<path d="M11.8101 10.5985L11.804 28.3125C11.8034 29.9701 13.1473 31.314 14.8049 31.3135L24.6188 31.3106C26.2753 31.3101 27.6179 29.9671 27.6179 28.3106V10.5996C27.6179 8.94272 26.2748 7.59958 24.6179 7.59958H14.8101C13.1537 7.59958 11.8107 8.9421 11.8101 10.5985Z" fill="#FDFBF5" stroke="#1F1F1F" stroke-width="3"/>
<path d="M21.4735 5L28.292 30.4469" stroke="#FDFBF5" stroke-width="9" stroke-linecap="round"/>
<path d="M5.28395 12.4427L10.5439 32.1001C10.9724 33.7014 12.6182 34.6517 14.2192 34.2222L25.3952 31.224C26.9951 30.7948 27.9444 29.1501 27.5156 27.55L22.2498 7.89779C21.821 6.2974 20.176 5.34765 18.5756 5.77647L7.40554 8.76948C5.80553 9.1982 4.85578 10.8426 5.28395 12.4427Z" fill="#1F1F1F" stroke="#1F1F1F" stroke-width="3"/>
</svg>
