<svg width="36" height="36" viewBox="0 0 36 36" fill="none" xmlns="http://www.w3.org/2000/svg">
<path d="M17.2991 8.75857L13.3941 23.3121C12.9638 24.9159 13.9157 26.5648 15.5198 26.9941L23.2923 29.0743C24.8953 29.5033 26.5427 28.5518 26.9722 26.9489L30.8716 12.3964C31.3011 10.7931 30.3497 9.1452 28.7465 8.71561L20.9796 6.63449C19.3768 6.205 17.7292 7.15587 17.2991 8.75857Z" fill="#FDFBF5" stroke="#1F1F1F" stroke-width="3"/>
<path d="M11.2106 8.6039L11.2045 26.3072C11.204 27.9678 12.5502 29.3141 14.2107 29.3136L24.014 29.3107C25.6734 29.3102 27.0184 27.9648 27.0184 26.3053V8.60493C27.0184 6.94514 25.6729 5.59961 24.0131 5.59961H14.2159C12.5566 5.59961 11.2112 6.94451 11.2106 8.6039Z" fill="#FDFBF5" stroke="#1F1F1F" stroke-width="3"/>
<path d="M4.68584 10.4479L9.94302 30.095C10.3722 31.6991 12.0211 32.6511 13.6249 32.2208L24.7906 29.2254C26.3933 28.7955 27.3443 27.1478 26.9148 25.5449L21.6517 5.90295C21.2221 4.29971 19.5742 3.34828 17.971 3.77786L6.81119 6.76812C5.20834 7.1976 4.25691 8.84488 4.68584 10.4479Z" fill="#FDFBF5" stroke="#1F1F1F" stroke-width="3"/>
</svg>
