<svg width="24" height="24" viewBox="0 0 24 24" fill="none" xmlns="http://www.w3.org/2000/svg">
<path d="M11.5327 5.83903L8.92943 15.5414C8.64254 16.6106 9.27715 17.7099 10.3465 17.9961L15.5282 19.3828C16.5969 19.6688 17.6951 19.0345 17.9815 17.966L20.581 8.26423C20.8674 7.19541 20.2331 6.09679 19.1643 5.8104L13.9864 4.42298C12.9178 4.13666 11.8194 4.77057 11.5327 5.83903Z" fill="#FDFBF5" stroke="#1F1F1F" stroke-width="2"/>
<path d="M7.47375 5.73592L7.46968 17.5381C7.4693 18.6452 8.3668 19.5427 9.47383 19.5424L16.0093 19.5404C17.1156 19.5401 18.0123 18.6432 18.0123 17.5369V5.73661C18.0123 4.63008 17.1153 3.73306 16.0087 3.73306H9.47729C8.37103 3.73306 7.47413 4.62966 7.47375 5.73592Z" fill="#FDFBF5" stroke="#1F1F1F" stroke-width="2"/>
<path d="M3.12389 6.96524L6.62868 20.0633C6.91483 21.1327 8.01405 21.7674 9.08327 21.4805L16.527 19.4836C17.5956 19.197 18.2295 18.0985 17.9432 17.0299L14.4345 3.93529C14.1481 2.86646 13.0495 2.23218 11.9807 2.51857L4.54079 4.51207C3.47223 4.79839 2.83794 5.89657 3.12389 6.96524Z" fill="#FDFBF5" stroke="#1F1F1F" stroke-width="2"/>
</svg>
