<svg width="24" height="24" viewBox="0 0 24 24" fill="none" xmlns="http://www.w3.org/2000/svg">
<path d="M8.2272 16.017C8.973 12.7769 11.5005 10 15 10C12.6804 10 10.8 8.20914 10.8 6C10.8 3.79086 12.6804 2 15 2C17.3196 2 19.2 3.79086 19.2 6C19.2 8.20914 17.3196 10 15 10C18.4995 10 21.027 12.7769 21.7728 16.017C22.0206 17.0934 21.1046 18 20 18H10C8.89543 18 7.97943 17.0934 8.2272 16.017Z" fill="#FDFBF5"/>
<path d="M15 10C11.5005 10 8.973 12.7769 8.2272 16.017C7.97943 17.0934 8.89543 18 10 18H20C21.1046 18 22.0206 17.0934 21.7728 16.017C21.027 12.7769 18.4995 10 15 10ZM15 10C12.6804 10 10.8 8.20914 10.8 6C10.8 3.79086 12.6804 2 15 2C17.3196 2 19.2 3.79086 19.2 6C19.2 8.20914 17.3196 10 15 10Z" stroke="#1F1F1F" stroke-width="2" stroke-linecap="round" stroke-linejoin="round"/>
<path d="M2.2272 20.017C2.973 16.7769 5.50054 14 9 14C6.6804 14 4.8 12.2091 4.8 10C4.8 7.79086 6.6804 6 9 6C11.3196 6 13.2 7.79086 13.2 10C13.2 12.2091 11.3196 14 9 14C12.4995 14 15.027 16.7769 15.7728 20.017C16.0206 21.0934 15.1046 22 14 22H4C2.89543 22 1.97943 21.0934 2.2272 20.017Z" fill="#FDFBF5"/>
<path d="M9 14C5.50054 14 2.973 16.7769 2.2272 20.017C1.97943 21.0934 2.89543 22 4 22H14C15.1046 22 16.0206 21.0934 15.7728 20.017C15.027 16.7769 12.4995 14 9 14ZM9 14C6.6804 14 4.8 12.2091 4.8 10C4.8 7.79086 6.6804 6 9 6C11.3196 6 13.2 7.79086 13.2 10C13.2 12.2091 11.3196 14 9 14Z" stroke="#1F1F1F" stroke-width="2" stroke-linecap="round" stroke-linejoin="round"/>
</svg>
