<svg width="24" height="24" viewBox="0 0 24 24" fill="none" xmlns="http://www.w3.org/2000/svg">
<path d="M12.224 6.448C13.3334 6.448 14.224 6.752 14.896 7.36C15.5787 7.95733 15.92 8.784 15.92 9.84C15.92 10.8853 15.584 11.6853 14.912 12.24C14.24 12.784 13.3494 13.056 12.24 13.056L12.176 14.288H10.208L10.128 11.568H10.848C11.776 11.568 12.4907 11.4453 12.992 11.2C13.4934 10.9547 13.744 10.5067 13.744 9.856C13.744 9.38667 13.6054 9.01333 13.328 8.736C13.0614 8.45867 12.6934 8.32 12.224 8.32C11.7334 8.32 11.3494 8.45333 11.072 8.72C10.8054 8.98667 10.672 9.35467 10.672 9.824H8.56002C8.54935 9.17333 8.68802 8.592 8.97602 8.08C9.26402 7.568 9.68535 7.168 10.24 6.88C10.8054 6.592 11.4667 6.448 12.224 6.448ZM11.184 18.112C10.7787 18.112 10.4427 17.9893 10.176 17.744C9.92002 17.488 9.79202 17.1733 9.79202 16.8C9.79202 16.4267 9.92002 16.1173 10.176 15.872C10.4427 15.616 10.7787 15.488 11.184 15.488C11.5787 15.488 11.904 15.616 12.16 15.872C12.416 16.1173 12.544 16.4267 12.544 16.8C12.544 17.1733 12.416 17.488 12.16 17.744C11.904 17.9893 11.5787 18.112 11.184 18.112Z" fill="#1F1F1F"/>
<circle cx="12" cy="12" r="10" stroke="#1F1F1F" stroke-width="2"/>
</svg>
