<svg width="24" height="24" viewBox="0 0 24 24" fill="none" xmlns="http://www.w3.org/2000/svg">
<path d="M19.1347 5.48757C18.6564 5.76371 18.4925 6.3753 18.7686 6.85359C19.0448 7.33188 19.6564 7.49576 20.1347 7.21962L19.1347 5.48757ZM21.8667 6.21962C22.345 5.94347 22.5089 5.33188 22.2327 4.85359C21.9566 4.3753 21.345 4.21142 20.8667 4.48757L21.8667 6.21962ZM20.2512 7.78896C19.7101 7.89968 19.3612 8.42806 19.4719 8.96913C19.5827 9.51021 20.1111 9.85907 20.6521 9.74835L20.2512 7.78896ZM22.2012 9.43136C22.7422 9.32064 23.0911 8.79226 22.9804 8.25119C22.8697 7.71011 22.3413 7.36125 21.8002 7.47197L22.2012 9.43136ZM17.2034 3.77506C16.837 4.18828 16.875 4.82031 17.2882 5.18673C17.7014 5.55315 18.3334 5.51522 18.6998 5.102L17.2034 3.77506ZM19.7489 3.91898C20.1153 3.50576 20.0774 2.87374 19.6642 2.50731C19.2509 2.14089 18.6189 2.17882 18.2525 2.59204L19.7489 3.91898ZM10.4239 14.86L10.9239 15.726L10.9239 15.726L10.4239 14.86ZM3.51167 11.5579L3.01167 10.6918L3.51167 11.5579ZM3.28077 12.7235L2.53519 12.0571H2.53519L3.28077 12.7235ZM2.20382 13.9284L1.45825 13.262H1.45825L2.20382 13.9284ZM2.10457 14.8505L2.9706 14.3505H2.9706L2.10457 14.8505ZM3.1145 16.5998L2.24847 17.0998H2.24847L3.1145 16.5998ZM3.96271 16.9749L4.16706 17.9538L4.16706 17.9538L3.96271 16.9749ZM5.30851 16.6939L5.10416 15.715L5.10415 15.715L5.30851 16.6939ZM6.15672 17.069L5.29069 17.569H5.29069L6.15672 17.069ZM9.72292 21.6459L9.22292 20.7799H9.22292L9.72292 21.6459ZM11.1086 20.8459L11.6086 21.7119C11.8382 21.5793 12.0058 21.3609 12.0745 21.1047C12.1431 20.8485 12.1072 20.5756 11.9746 20.3459L11.1086 20.8459ZM3.33845 12.1877L4.20447 11.6877L3.33845 12.1877ZM20.1347 7.21962L21.8667 6.21962L20.8667 4.48757L19.1347 5.48757L20.1347 7.21962ZM20.6521 9.74835L22.2012 9.43136L21.8002 7.47197L20.2512 7.78896L20.6521 9.74835ZM18.6998 5.102L19.7489 3.91898L18.2525 2.59204L17.2034 3.77506L18.6998 5.102ZM15.7973 8.567C16.6966 10.1247 17.3434 11.5943 17.6716 12.6962C17.8381 13.2549 17.906 13.6648 17.9087 13.9207C17.9123 14.2697 17.8088 13.9996 18.1329 13.8125L19.1329 15.5445C19.8397 15.1364 19.913 14.3307 19.9086 13.9001C19.9032 13.3764 19.7784 12.7629 19.5884 12.1252C19.2038 10.8341 18.4831 9.21889 17.5293 7.567L15.7973 8.567ZM18.1329 13.8125C18.4571 13.6253 18.6393 13.85 18.3388 13.6724C18.1185 13.5421 17.7975 13.2783 17.3969 12.8548C16.6068 12.0196 15.6574 10.7247 14.7581 9.167L13.026 10.167C13.9797 11.8189 15.0182 13.2506 15.944 14.2293C16.4013 14.7127 16.8702 15.1275 17.321 15.394C17.6917 15.6131 18.4261 15.9526 19.1329 15.5445L18.1329 13.8125ZM14.7581 9.167C13.8587 7.60929 13.212 6.13966 12.8837 5.03784C12.7173 4.47914 12.6493 4.06923 12.6467 3.81332C12.6431 3.46429 12.7466 3.73438 12.4224 3.92154L11.4224 2.18949C10.7156 2.59756 10.6424 3.40335 10.6468 3.83389C10.6522 4.35756 10.777 4.97111 10.967 5.60886C11.3516 6.89992 12.0723 8.51512 13.026 10.167L14.7581 9.167ZM12.4224 3.92154C12.0982 4.1087 11.9161 3.88403 12.2166 4.06165C12.4369 4.19189 12.7579 4.45571 13.1585 4.8792C13.9486 5.71438 14.8979 7.00929 15.7973 8.567L17.5293 7.567C16.5756 5.91512 15.5372 4.48338 14.6114 3.50475C14.1541 3.02134 13.6851 2.60648 13.2343 2.33998C12.8637 2.12087 12.1292 1.78142 11.4224 2.18949L12.4224 3.92154ZM18.1329 13.8125C18.1346 13.8115 18.0819 13.8409 17.9198 13.8533C17.7602 13.8655 17.5477 13.8576 17.2687 13.8258C16.6814 13.7588 16.044 13.621 15.2119 13.4827C13.6881 13.2296 11.6495 12.9977 9.92386 13.9939L10.9239 15.726C11.9696 15.1223 13.3427 15.1996 14.8841 15.4557C15.5847 15.5721 16.3934 15.7389 17.0421 15.8129C17.6589 15.8833 18.4755 15.9241 19.1329 15.5445L18.1329 13.8125ZM11.4224 2.18949C10.8237 2.53514 10.4222 3.14561 10.1285 3.66738C9.82954 4.19862 9.51445 4.88798 9.22011 5.47424C8.58282 6.7436 7.87507 7.88396 6.76597 8.5243L7.76597 10.2564C9.42815 9.29669 10.3558 7.66965 11.0075 6.37161C11.3577 5.67416 11.6005 5.12981 11.8715 4.64828C12.1478 4.15727 12.3283 3.97589 12.4224 3.92154L11.4224 2.18949ZM6.76597 8.5243L3.01167 10.6918L4.01167 12.4239L7.76597 10.2564L6.76597 8.5243ZM2.53519 12.0571L1.45825 13.262L2.9494 14.5948L4.02634 13.39L2.53519 12.0571ZM1.23855 15.3505L2.24847 17.0998L3.98052 16.0998L2.9706 14.3505L1.23855 15.3505ZM4.16706 17.9538L5.51286 17.6728L5.10415 15.715L3.75836 15.996L4.16706 17.9538ZM5.29069 17.569L5.40092 17.76L7.13297 16.76L7.02274 16.569L5.29069 17.569ZM5.31454 17.5648C5.6153 18.5044 6.16417 19.8904 6.84729 20.9633C7.18207 21.489 7.60503 22.0302 8.11774 22.3781C8.67437 22.7557 9.44757 22.9596 10.2229 22.5119L9.22292 20.7799C9.22053 20.7812 9.23099 20.775 9.25271 20.7704C9.27475 20.7656 9.29597 20.7652 9.31202 20.767C9.34135 20.7703 9.31937 20.7765 9.2406 20.723C9.0652 20.604 8.81851 20.3354 8.53433 19.8891C7.97954 19.0178 7.49323 17.8108 7.21935 16.9551L5.31454 17.5648ZM10.2229 22.5119L11.6086 21.7119L10.6086 19.9799L9.22292 20.7799L10.2229 22.5119ZM9.92387 13.9939L7.84541 15.1939L8.84541 16.926L10.9239 15.726L9.92387 13.9939ZM7.84541 15.1939L5.76694 16.3939L6.76694 18.126L8.84541 16.926L7.84541 15.1939ZM11.9746 20.3459L9.21143 15.56L7.47938 16.56L10.2425 21.3459L11.9746 20.3459ZM6.28548 9.58689C6.54456 10.8792 6.89426 11.9465 7.45928 12.9251C8.0243 13.9038 8.77375 14.7403 9.76339 15.6108L11.0843 14.1091C10.197 13.3285 9.61315 12.6558 9.19133 11.9251C8.76951 11.1945 8.47877 10.3526 8.24646 9.19376L6.28548 9.58689ZM5.51286 17.6728C5.4337 17.6894 5.34027 17.6549 5.29069 17.569L7.02274 16.569C6.63335 15.8946 5.85658 15.558 5.10416 15.715L5.51286 17.6728ZM2.24847 17.0998C2.63787 17.7742 3.41463 18.1109 4.16706 17.9538L3.75836 15.996C3.83752 15.9795 3.93095 16.0139 3.98052 16.0998L2.24847 17.0998ZM1.45825 13.262C0.946003 13.8351 0.849153 14.6761 1.23855 15.3505L2.9706 14.3505C3.02018 14.4364 3.00329 14.5345 2.9494 14.5948L1.45825 13.262ZM2.47242 12.6877C2.35167 12.4785 2.38531 12.2248 2.53519 12.0571L4.02634 13.39C4.44259 12.9243 4.5227 12.2388 4.20447 11.6877L2.47242 12.6877ZM3.01167 10.6918C2.32187 11.0901 2.06336 11.9791 2.47242 12.6877L4.20447 11.6877C4.36014 11.9573 4.25675 12.2824 4.01167 12.4239L3.01167 10.6918Z" fill="#1F1F1F"/>
</svg>
