<svg width="36" height="36" viewBox="0 0 36 36" fill="none" xmlns="http://www.w3.org/2000/svg">
<path d="M12.3408 24.0255C13.4595 19.1654 17.2508 15 22.5 15C19.0206 15 16.2 12.3137 16.2 9C16.2 5.6863 19.0206 3 22.5 3C25.9794 3 28.8 5.6863 28.8 9C28.8 12.3137 25.9794 15 22.5 15C27.7492 15 31.5405 19.1654 32.6592 24.0255C33.0309 25.6402 31.6569 27 30 27H15C13.3431 27 11.9691 25.6402 12.3408 24.0255Z" fill="#1F1F1F"/>
<path d="M22.5 15C17.2508 15 13.4595 19.1654 12.3408 24.0255C11.9691 25.6402 13.3431 27 15 27H30C31.6569 27 33.0309 25.6402 32.6592 24.0255C31.5405 19.1654 27.7492 15 22.5 15ZM22.5 15C19.0206 15 16.2 12.3137 16.2 9.00001C16.2 5.68629 19.0206 3 22.5 3C25.9794 3 28.8 5.68629 28.8 9.00001C28.8 12.3137 25.9794 15 22.5 15Z" stroke="#1F1F1F" stroke-width="3" stroke-linecap="round" stroke-linejoin="round"/>
<path d="M13.5 9C17.0961 9 20.0113 11.683 20.0113 14.9927C20.0113 18.3024 17.0961 20.9854 13.5 20.9854C18.9253 20.9854 22.8438 25.1458 24 30" stroke="#FDFBF5" stroke-width="9" stroke-linecap="round" stroke-linejoin="round"/>
<path d="M3.06291 30.0255C4.21222 25.1654 8.10723 21 13.5 21C9.92544 21 7.02768 18.3137 7.02768 15C7.02768 11.6863 9.92544 9 13.5 9C17.0746 9 19.9723 11.6863 19.9723 15C19.9723 18.3137 17.0746 21 13.5 21C18.8928 21 22.7878 25.1654 23.9371 30.0255C24.3189 31.6402 22.9073 33 21.2051 33H5.79486C4.09268 33 2.68109 31.6402 3.06291 30.0255Z" fill="#1F1F1F"/>
<path d="M13.5 21C8.10723 21 4.21222 25.1654 3.06291 30.0255C2.68109 31.6402 4.09268 33 5.79486 33H21.2051C22.9073 33 24.3189 31.6402 23.9371 30.0255C22.7878 25.1654 18.8928 21 13.5 21ZM13.5 21C9.92544 21 7.02768 18.3137 7.02768 15C7.02768 11.6863 9.92544 9 13.5 9C17.0746 9 19.9723 11.6863 19.9723 15C19.9723 18.3137 17.0746 21 13.5 21Z" stroke="#1F1F1F" stroke-width="3" stroke-linecap="round" stroke-linejoin="round"/>
</svg>
