<svg width="36" height="36" viewBox="0 0 36 36" fill="none" xmlns="http://www.w3.org/2000/svg">
<path d="M12.3408 24.0255C13.4595 19.1654 17.2508 15 22.5 15C19.0206 15 16.2 12.3137 16.2 9C16.2 5.6863 19.0206 3 22.5 3C25.9794 3 28.8 5.6863 28.8 9C28.8 12.3137 25.9794 15 22.5 15C27.7492 15 31.5405 19.1654 32.6592 24.0255C33.0309 25.6402 31.6569 27 30 27H15C13.3431 27 11.9691 25.6402 12.3408 24.0255Z" fill="#FDFBF5"/>
<path d="M22.5 15C17.2508 15 13.4595 19.1654 12.3408 24.0255C11.9691 25.6402 13.3431 27 15 27H30C31.6569 27 33.0309 25.6402 32.6592 24.0255C31.5405 19.1654 27.7492 15 22.5 15ZM22.5 15C19.0206 15 16.2 12.3137 16.2 9.00001C16.2 5.68629 19.0206 3 22.5 3C25.9794 3 28.8 5.68629 28.8 9.00001C28.8 12.3137 25.9794 15 22.5 15Z" stroke="#1F1F1F" stroke-width="3" stroke-linecap="round" stroke-linejoin="round"/>
<path d="M3.34079 30.0255C4.4595 25.1654 8.25081 21 13.5 21C10.0206 21 7.2 18.3137 7.2 15C7.2 11.6863 10.0206 9 13.5 9C16.9794 9 19.8 11.6863 19.8 15C19.8 18.3137 16.9794 21 13.5 21C18.7492 21 22.5405 25.1654 23.6592 30.0255C24.0309 31.6402 22.6569 33 21 33H6C4.34315 33 2.96914 31.6402 3.34079 30.0255Z" fill="#FDFBF5"/>
<path d="M13.5 21C8.25081 21 4.4595 25.1654 3.34079 30.0255C2.96914 31.6402 4.34315 33 6 33H21C22.6569 33 24.0309 31.6402 23.6592 30.0255C22.5405 25.1654 18.7492 21 13.5 21ZM13.5 21C10.0206 21 7.2 18.3137 7.2 15C7.2 11.6863 10.0206 9 13.5 9C16.9794 9 19.8 11.6863 19.8 15C19.8 18.3137 16.9794 21 13.5 21Z" stroke="#1F1F1F" stroke-width="3" stroke-linecap="round" stroke-linejoin="round"/>
</svg>
