<svg width="64" height="64" viewBox="0 0 64 64" fill="none" xmlns="http://www.w3.org/2000/svg">
<path d="M34.6667 21.3333L29.261 10.522C28.4882 8.97635 26.9084 8 25.1803 8V8C22.0142 8 19.8107 11.146 20.8927 14.1215L29.1991 36.9641C29.2879 37.2084 29.3333 37.4663 29.3333 37.7262V37.7262C29.3333 40.0926 26.9433 41.7107 24.7462 40.8318L20.3772 39.0842C18.0025 38.1343 15.318 39.3794 14.5092 41.8058V41.8058C13.8286 43.8474 14.7084 46.0834 16.5977 47.1139L28 53.3333L33.1804 56.2935C35.7379 57.755 38.8916 57.6928 41.3895 56.1316L53.4899 48.5688C56.5469 46.6582 57.9484 42.939 56.9125 39.4861L52.3421 24.2515C51.4419 21.2509 48.1616 19.6687 45.253 20.8321L44 21.3333M34.6667 21.3333L37.3333 26.6667M34.6667 21.3333L37.8959 20.2569C40.5749 19.3639 43.4856 20.7139 44.5343 23.3358L45.3333 25.3333" stroke="#FDFBF5" stroke-width="5.33333" stroke-linecap="round" stroke-linejoin="round"/>
<path d="M13.3333 18.6667L7.99999 34.6665M13.3333 18.6667L8 21.3334M13.3333 18.6667L16 24M7.99999 34.6665L5.33333 29.3331M7.99999 34.6665L13.3333 31.9998" stroke="#FDFBF5" stroke-width="5.33333" stroke-linecap="round" stroke-linejoin="round"/>
</svg>
