<svg width="24" height="25" viewBox="0 0 24 25" fill="none" xmlns="http://www.w3.org/2000/svg">
<path d="M11.9333 6.83564L9.32817 16.5449C9.04178 17.6122 9.67528 18.7095 10.7428 18.9952L15.9313 20.3838C16.9981 20.6693 18.0944 20.0361 18.3802 18.9694L20.9816 9.26083C21.2675 8.1939 20.6343 7.09723 19.5674 6.81134L14.3826 5.42209C13.316 5.13628 12.2195 5.76907 11.9333 6.83564Z" fill="#FDFBF5" stroke="#1F1F1F" stroke-width="2"/>
<path d="M18.412 4.73303V20.5398" stroke="#FDFBF5" stroke-width="6" stroke-linecap="round"/>
<path d="M7.87341 6.73234L7.86934 18.5416C7.86896 19.6467 8.76487 20.5427 9.86994 20.5423L16.4125 20.5404C17.5169 20.5401 18.4119 19.6447 18.4119 18.5404V6.73303C18.4119 5.62846 17.5165 4.73303 16.4119 4.73303H9.87341C8.76911 4.73303 7.87379 5.62804 7.87341 6.73234Z" fill="#FDFBF5" stroke="#1F1F1F" stroke-width="2"/>
<path d="M14.3157 3L18.8613 19.9646" stroke="#FDFBF5" stroke-width="6" stroke-linecap="round"/>
<path d="M3.52264 7.96181L7.02925 21.0667C7.3149 22.1342 8.41217 22.7678 9.4795 22.4815L16.9301 20.4827C17.9967 20.1965 18.6296 19.1001 18.3438 18.0334L14.8332 4.93186C14.5473 3.86493 13.4507 3.23177 12.3837 3.51765L4.93703 5.51299C3.87035 5.7988 3.23719 6.89504 3.52264 7.96181Z" fill="#1F1F1F" stroke="#1F1F1F" stroke-width="2"/>
</svg>
