<svg width="24" height="24" viewBox="0 0 24 24" fill="none" xmlns="http://www.w3.org/2000/svg">
<path d="M8.2272 16.017C8.973 12.7769 11.5005 10 15 10C12.6804 10 10.8 8.20914 10.8 6C10.8 3.79086 12.6804 2 15 2C17.3196 2 19.2 3.79086 19.2 6C19.2 8.20914 17.3196 10 15 10C18.4995 10 21.027 12.7769 21.7728 16.017C22.0206 17.0934 21.1046 18 20 18H10C8.89543 18 7.97943 17.0934 8.2272 16.017Z" fill="#1F1F1F"/>
<path d="M15 10C11.5005 10 8.973 12.7769 8.2272 16.017C7.97943 17.0934 8.89543 18 10 18H20C21.1046 18 22.0206 17.0934 21.7728 16.017C21.027 12.7769 18.4995 10 15 10ZM15 10C12.6804 10 10.8 8.20914 10.8 6C10.8 3.79086 12.6804 2 15 2C17.3196 2 19.2 3.79086 19.2 6C19.2 8.20914 17.3196 10 15 10Z" stroke="#1F1F1F" stroke-width="2" stroke-linecap="round" stroke-linejoin="round"/>
<path d="M9 6C11.3974 6 13.3409 7.78869 13.3409 9.99514C13.3409 12.2016 11.3974 13.9903 9 13.9903C12.6169 13.9903 15.2292 16.7638 16 20" stroke="#FDFBF5" stroke-width="6" stroke-linecap="round" stroke-linejoin="round"/>
<path d="M2.04194 20.017C2.80815 16.7769 5.40482 14 9 14C6.61696 14 4.68512 12.2091 4.68512 10C4.68512 7.79086 6.61696 6 9 6C11.383 6 13.3149 7.79086 13.3149 10C13.3149 12.2091 11.383 14 9 14C12.5952 14 15.1919 16.7769 15.9581 20.017C16.2126 21.0934 15.2715 22 14.1368 22H3.86324C2.72846 22 1.7874 21.0934 2.04194 20.017Z" fill="#1F1F1F"/>
<path d="M9 14C5.40482 14 2.80815 16.7769 2.04194 20.017C1.7874 21.0934 2.72846 22 3.86324 22H14.1368C15.2715 22 16.2126 21.0934 15.9581 20.017C15.1919 16.7769 12.5952 14 9 14ZM9 14C6.61696 14 4.68512 12.2091 4.68512 10C4.68512 7.79086 6.61696 6 9 6C11.383 6 13.3149 7.79086 13.3149 10C13.3149 12.2091 11.383 14 9 14Z" stroke="#1F1F1F" stroke-width="2" stroke-linecap="round" stroke-linejoin="round"/>
</svg>
