<svg width="24" height="24" viewBox="0 0 24 24" fill="none" xmlns="http://www.w3.org/2000/svg">
<path d="M5 13V20C5 21.1046 5.89543 22 7 22H8.5C9.05228 22 9.5 21.5523 9.5 21V14.5C9.5 13.1193 10.6193 12 12 12C13.3807 12 14.5 13.1193 14.5 14.5V21C14.5 21.5523 14.9477 22 15.5 22H17C18.1046 22 19 21.1046 19 20V13C19 12.4477 19.4477 12 20 12H20.6198C21.3821 12 22 11.3821 22 10.6198C22 10.2256 21.8314 9.85014 21.5368 9.58823L13.7474 2.66436C13.2659 2.2364 12.6442 2 12 2C11.3558 2 10.7341 2.2364 10.2526 2.66436L2.46324 9.58823C2.16859 9.85014 2 10.2256 2 10.6198C2 11.3821 2.61794 12 3.3802 12H4C4.55228 12 5 12.4477 5 13Z" fill="#1F1F1F" stroke="#1F1F1F" stroke-width="1.66667" stroke-linecap="round" stroke-linejoin="round"/>
</svg>
