<svg width="24" height="24" viewBox="0 0 24 24" fill="none" xmlns="http://www.w3.org/2000/svg">
<rect x="5.10144" y="1.97345" width="14" height="20" rx="2" fill="#1F1F1F" stroke="#1F1F1F" stroke-width="2"/>
<path d="M8.20423 14.9804C8.59323 13.106 10.0571 11.4735 12.1014 11.4735C10.7759 11.4735 9.70141 10.4661 9.70141 9.22345C9.70141 7.98081 10.7759 6.97345 12.1014 6.97345C13.4269 6.97345 14.5014 7.98081 14.5014 9.22345C14.5014 10.4661 13.4269 11.4735 12.1014 11.4735C14.1457 11.4735 15.6096 13.106 15.9986 14.9804C16.1108 15.5212 15.6537 15.9734 15.1014 15.9734H9.10141C8.54913 15.9734 8.09201 15.5212 8.20423 14.9804Z" fill="#1F1F1F"/>
<path d="M12.1014 11.4735C10.0571 11.4735 8.59323 13.106 8.20423 14.9804C8.09201 15.5212 8.54913 15.9734 9.10141 15.9734H15.1014C15.6537 15.9734 16.1108 15.5212 15.9986 14.9804C15.6096 13.106 14.1457 11.4735 12.1014 11.4735ZM12.1014 11.4735C10.7759 11.4735 9.70141 10.4661 9.70141 9.22345C9.70141 7.98081 10.7759 6.97345 12.1014 6.97345C13.4269 6.97345 14.5014 7.98081 14.5014 9.22345C14.5014 10.4661 13.4269 11.4735 12.1014 11.4735Z" stroke="#FDFBF5" stroke-width="2" stroke-linecap="round" stroke-linejoin="round"/>
</svg>
