<svg width="24" height="24" viewBox="0 0 24 24" fill="none" xmlns="http://www.w3.org/2000/svg">
<path fill-rule="evenodd" clip-rule="evenodd" d="M12 2C13.6454 2 14.9793 3.34315 14.9793 5V5.10866C14.9793 5.45373 15.1802 5.76421 15.4768 5.93705C15.7738 6.11013 16.1398 6.12911 16.437 5.95633L16.5306 5.90192C17.9556 5.07349 19.7777 5.56511 20.6004 6.99999C21.4231 8.43487 20.9348 10.2696 19.5099 11.0981L19.4152 11.1531C19.1184 11.3256 18.9516 11.6549 18.9516 12C18.9516 12.3451 19.1184 12.6744 19.4152 12.8469L19.5099 12.9019C20.9348 13.7304 21.4231 15.5651 20.6004 17C19.7777 18.4349 17.9556 18.9265 16.5306 18.0981L16.437 18.0437C16.1398 17.8709 15.7738 17.8899 15.4768 18.063C15.1802 18.2358 14.9793 18.5463 14.9793 18.8913V19C14.9793 20.6569 13.6454 22 12 22C10.3546 22 9.02075 20.6569 9.02075 19V18.8913C9.02075 18.5463 8.81982 18.2358 8.52321 18.0629C8.22619 17.8899 7.86016 17.8709 7.56296 18.0437L7.46938 18.0981C6.04442 18.9265 4.22234 18.4349 3.39964 17C2.57695 15.5651 3.06517 13.7303 4.49013 12.9019L4.58477 12.8469C4.88158 12.6743 5.04841 12.3451 5.04841 12C5.04841 11.6549 4.88158 11.3257 4.58477 11.1531L4.49012 11.0981C3.06517 10.2697 2.57694 8.43489 3.39964 7.00001C4.22234 5.56513 6.04442 5.0735 7.46937 5.90193L7.56296 5.95634C7.86015 6.12912 8.22619 6.11014 8.52322 5.93705C8.81982 5.76421 9.02075 5.45373 9.02075 5.10865V5C9.02075 3.34315 10.3546 2 12 2ZM12 15C13.6454 15 14.9793 13.6569 14.9793 12C14.9793 10.3431 13.6454 9 12 9C10.3546 9 9.02075 10.3431 9.02075 12C9.02075 13.6569 10.3546 15 12 15Z" fill="#1F1F1F"/>
</svg>
