<svg width="144" height="144" viewBox="0 0 144 144" fill="none" xmlns="http://www.w3.org/2000/svg">
<path d="M69.5996 35.0138L53.9686 93.2691C52.2503 99.673 56.0513 106.257 62.4563 107.971L93.5874 116.303C99.9881 118.016 106.566 114.217 108.281 107.816L123.889 49.5649C125.605 43.1633 121.806 36.5833 115.404 34.868L84.2955 26.5325C77.8954 24.8176 71.3167 28.6143 69.5996 35.0138Z" fill="#FDFBF5" stroke="#1F1F1F" stroke-width="12"/>
<path d="M45.2402 34.3943L45.2158 105.25C45.2135 111.881 50.589 117.256 57.2194 117.254L96.4749 117.243C103.101 117.241 108.471 111.869 108.471 105.243V34.3985C108.471 27.7711 103.099 22.3985 96.4714 22.3985H57.2402C50.6144 22.3985 45.2425 27.7685 45.2402 34.3943Z" fill="#FDFBF5" stroke="#1F1F1F" stroke-width="12"/>
<path d="M19.1358 41.771L40.1755 120.401C41.8894 126.806 48.473 130.607 54.877 128.889L99.5807 116.896C105.98 115.179 109.778 108.6 108.063 102.2L86.9994 23.5913C85.2841 17.1897 78.704 13.3907 72.3024 15.106L27.6222 27.078C21.2221 28.7929 17.4231 35.3703 19.1358 41.771Z" fill="#FDFBF5" stroke="#1F1F1F" stroke-width="12"/>
<path d="M60.7829 96.8496L60.788 96.8503C63.9836 97.2656 67.338 97.0285 70.8437 96.1559C74.5388 95.2361 77.6021 93.8049 79.9954 91.8334L79.9954 91.8335L80.0051 91.8253C82.3673 89.8231 83.9815 87.519 84.7944 84.9094C85.6008 82.3206 85.6294 79.7148 84.8793 77.1142C84.0222 74.1426 82.5408 71.851 80.3884 70.3319C78.3322 68.8808 76.1004 67.954 73.7001 67.5631C71.3848 67.186 68.4965 66.9616 65.0461 66.8838C62.5427 66.8147 60.5907 66.7055 59.18 66.5582C57.8667 66.3641 56.7118 66.0105 55.7057 65.5073C54.8457 65.0108 54.2847 64.292 53.9999 63.3046C53.5573 61.7701 53.7411 60.6109 54.3964 59.6971C55.1439 58.7086 56.347 57.9592 58.1211 57.5176C60.1788 57.0054 61.8667 57.1068 63.2457 57.7206L63.2606 57.7273L63.2758 57.7334C64.3041 58.1471 65.0415 58.7358 65.5398 59.4819L66.2882 58.982L65.5398 59.4819C66.1024 60.3243 67.1949 61.0517 68.4326 60.7436L76.2703 58.7927C77.633 58.4535 78.5078 56.9447 77.8236 55.5669C76.1513 52.1995 73.5371 49.8261 70.0166 48.476C66.0054 46.8696 61.386 46.7541 56.2085 48.0429C52.7522 48.9032 49.8037 50.2342 47.3867 52.0548C44.9512 53.8364 43.2373 55.9971 42.2955 58.5412C41.3486 61.0994 41.3071 63.8225 42.1303 66.6765C42.9972 69.6817 44.4556 71.9997 46.5586 73.5332L46.5686 73.5404L46.5788 73.5475C48.618 74.9502 50.8143 75.8584 53.1619 76.2612L53.1736 76.2632L53.1854 76.2649C55.4818 76.5966 58.3588 76.799 61.8069 76.8767L61.8069 76.8768L61.8178 76.8769C64.3147 76.9029 66.258 77.013 67.6637 77.2011L67.6812 77.2034L67.6989 77.2051C69.0833 77.3351 70.2726 77.6969 71.2851 78.2725C72.2041 78.7951 72.8268 79.5916 73.1549 80.729C73.5532 82.1101 73.3379 83.3262 72.5027 84.4636C71.6475 85.5687 70.2059 86.4337 68.0386 86.9732C65.9405 87.4954 64.2325 87.3792 62.848 86.7329C61.8206 86.2281 61.0158 85.4641 60.4236 84.4157C59.8935 83.4771 58.7749 82.7884 57.5591 83.091L49.8829 85.0018C48.5786 85.3264 47.6961 86.7346 48.2797 88.0975C49.2317 90.3206 50.6605 92.1575 52.5604 93.5927C54.875 95.3413 57.6249 96.4207 60.7829 96.8496Z" fill="#1F1F1F" stroke="#1F1F1F" stroke-width="1.8"/>
</svg>
