<svg width="24" height="24" viewBox="0 0 24 24" fill="none" xmlns="http://www.w3.org/2000/svg">
<path d="M11.9333 5.83561L9.32811 15.5448C9.04173 16.6122 9.67522 17.7094 10.7427 17.9951L15.9312 19.3837C16.998 19.6692 18.0943 19.0361 18.3801 17.9694L20.9816 8.2608C21.2674 7.19387 20.6343 6.0972 19.5673 5.81132L14.3826 4.42206C13.3159 4.13625 12.2194 4.76904 11.9333 5.83561Z" fill="#FDFBF5" stroke="#1F1F1F" stroke-width="2"/>
<path d="M7.87337 5.73237L7.86931 17.5417C7.86893 18.6468 8.76483 19.5427 9.8699 19.5424L16.4125 19.5404C17.5168 19.5401 18.4119 18.6448 18.4119 17.5404V5.73306C18.4119 4.62849 17.5165 3.73306 16.4119 3.73306H9.87337C8.76907 3.73306 7.87375 4.62807 7.87337 5.73237Z" fill="#FDFBF5" stroke="#1F1F1F" stroke-width="2"/>
<path d="M3.52264 6.96181L7.02926 20.0667C7.3149 21.1343 8.41217 21.7678 9.4795 21.4815L16.9301 19.4827C17.9967 19.1966 18.6296 18.1001 18.3438 17.0334L14.8332 3.93186C14.5473 2.86493 13.4507 2.23176 12.3837 2.51765L4.93703 4.51299C3.87035 4.7988 3.23719 5.89504 3.52264 6.96181Z" fill="#FDFBF5" stroke="#1F1F1F" stroke-width="2"/>
<path d="M10.4638 16.1416L10.4647 16.1417C10.9973 16.2109 11.5563 16.1714 12.1406 16.026C12.7565 15.8727 13.267 15.6341 13.6659 15.3056L13.6659 15.3056L13.6675 15.3042C14.0612 14.9705 14.3302 14.5865 14.4657 14.1515C14.6001 13.7201 14.6049 13.2858 14.4799 12.8523C14.337 12.3571 14.0901 11.9751 13.7314 11.722C13.3887 11.4801 13.0167 11.3257 12.6167 11.2605C12.2308 11.1977 11.7494 11.1602 11.1743 11.1473C10.7571 11.1358 10.4318 11.1176 10.1967 11.093C9.97777 11.0607 9.78529 11.0017 9.61762 10.9179C9.47427 10.8351 9.38078 10.7153 9.33332 10.5508C9.25955 10.295 9.29018 10.1018 9.3994 9.94949C9.52398 9.78475 9.72449 9.65985 10.0202 9.58625C10.3631 9.50088 10.6444 9.51779 10.8743 9.62009L10.8742 9.62018L10.8793 9.62221C11.0507 9.69117 11.1736 9.78928 11.2566 9.91363C11.3504 10.054 11.5325 10.1753 11.7388 10.1239L13.0451 9.79876C13.2722 9.74223 13.418 9.49077 13.3039 9.26114C13.0252 8.69991 12.5895 8.30433 12.0028 8.07933C11.3342 7.81159 10.5643 7.79234 9.70142 8.00713C9.12537 8.15052 8.63394 8.37235 8.23112 8.67578C7.8252 8.97272 7.53954 9.33284 7.38259 9.75684C7.22476 10.1832 7.21785 10.6371 7.35505 11.1127C7.49952 11.6136 7.7426 11.9999 8.0931 12.2555L8.09306 12.2556L8.09646 12.2579C8.43633 12.4917 8.80237 12.6431 9.19364 12.7102L9.19363 12.7102L9.19756 12.7108C9.58029 12.7661 10.0598 12.7998 10.6345 12.8128L10.6345 12.8128L10.6363 12.8128C11.0524 12.8171 11.3763 12.8355 11.6106 12.8668L11.6106 12.8669L11.6165 12.8675C11.8472 12.8892 12.0454 12.9495 12.2142 13.0454C12.3673 13.1325 12.4711 13.2652 12.5258 13.4548C12.5922 13.685 12.5563 13.8877 12.4171 14.0772C12.2746 14.2614 12.0343 14.4056 11.6731 14.4955C11.3234 14.5826 11.0387 14.5632 10.808 14.4555C10.6368 14.3713 10.5026 14.244 10.4039 14.0693C10.3156 13.9128 10.1291 13.7981 9.92652 13.8485L8.64714 14.1669C8.42976 14.2211 8.28267 14.4558 8.37994 14.6829C8.53861 15.0534 8.77675 15.3596 9.09339 15.5988C9.47916 15.8902 9.93748 16.0701 10.4638 16.1416Z" fill="#1F1F1F" stroke="#1F1F1F" stroke-width="0.3"/>
</svg>
