<svg width="36" height="36" viewBox="0 0 36 36" fill="none" xmlns="http://www.w3.org/2000/svg">
<path d="M17.3999 8.75343L13.4922 23.3173C13.0626 24.9182 14.0128 26.5642 15.6141 26.9927L23.3969 29.0756C24.997 29.5039 26.6415 28.5541 27.0702 26.9541L30.9723 12.3912C31.4012 10.7908 30.4514 9.14581 28.851 8.71699L21.0739 6.63311C19.4739 6.20439 17.8292 7.15357 17.3999 8.75343Z" fill="#FDFBF5" stroke="#1F1F1F" stroke-width="3"/>
<path d="M11.3101 8.59858L11.304 26.3125C11.3034 27.9701 12.6473 29.3141 14.3049 29.3136L24.1187 29.3106C25.7752 29.3102 27.1179 27.9672 27.1179 26.3106V8.59961C27.1179 6.94276 25.7747 5.59961 24.1179 5.59961H14.3101C12.6536 5.59961 11.3106 6.94213 11.3101 8.59858Z" fill="#FDFBF5" stroke="#1F1F1F" stroke-width="3"/>
<path d="M4.78395 10.4427L10.0439 30.1001C10.4724 31.7014 12.1183 32.6517 13.7192 32.2222L24.8952 29.2241C26.4951 28.7948 27.4444 27.1501 27.0156 25.5501L21.7498 5.89781C21.321 4.29741 19.676 3.34766 18.0756 3.77649L6.90554 6.7695C5.30553 7.19822 4.35578 8.84258 4.78395 10.4427Z" fill="#FDFBF5" stroke="#1F1F1F" stroke-width="3"/>
<path d="M15.1957 24.2124L15.197 24.2126C15.9959 24.3164 16.8345 24.2571 17.7109 24.039C18.6347 23.809 19.4005 23.4512 19.9988 22.9583L19.9989 22.9584L20.0013 22.9563C20.5918 22.4558 20.9954 21.8797 21.1986 21.2273C21.4002 20.5801 21.4073 19.9287 21.2198 19.2785C21.0055 18.5356 20.6352 17.9627 20.0971 17.583C19.583 17.2202 19.0251 16.9885 18.425 16.8908C17.8462 16.7965 17.1241 16.7404 16.2615 16.7209C15.6357 16.7037 15.1477 16.6764 14.795 16.6395C14.4667 16.591 14.1779 16.5026 13.9264 16.3768C13.7114 16.2527 13.5712 16.073 13.5 15.8262C13.3893 15.4425 13.4353 15.1527 13.5991 14.9243C13.786 14.6771 14.0867 14.4898 14.5303 14.3794C15.0447 14.2513 15.4667 14.2767 15.8114 14.4302L15.8114 14.4303L15.8189 14.4333C16.076 14.5368 16.2604 14.6839 16.3849 14.8705L16.572 14.7455L16.3849 14.8705C16.5256 15.0811 16.7987 15.2629 17.1081 15.1859L19.0676 14.6982C19.4082 14.6134 19.6269 14.2362 19.4559 13.8917C19.0378 13.0499 18.3843 12.4565 17.5042 12.119C16.5014 11.7174 15.3465 11.6885 14.0521 12.0107C13.1881 12.2258 12.4509 12.5585 11.8467 13.0137C11.2378 13.4591 10.8093 13.9993 10.5739 14.6353C10.3371 15.2748 10.3268 15.9556 10.5326 16.6691C10.7493 17.4204 11.1139 17.9999 11.6396 18.3833L11.6396 18.3834L11.6447 18.3869C12.1545 18.7375 12.7036 18.9646 13.2905 19.0653L13.2904 19.0654L13.2963 19.0662C13.8704 19.1491 14.5897 19.1997 15.4517 19.2192L15.4517 19.2192L15.4545 19.2192C16.0787 19.2257 16.5645 19.2532 16.9159 19.3003L16.9159 19.3004L16.9247 19.3013C17.2708 19.3338 17.5681 19.4242 17.8213 19.5681C18.051 19.6988 18.2067 19.8979 18.2887 20.1822C18.3883 20.5275 18.3345 20.8315 18.1257 21.1159C17.9119 21.3922 17.5515 21.6084 17.0097 21.7433C16.4851 21.8739 16.0581 21.8448 15.712 21.6832C15.4551 21.557 15.2539 21.366 15.1059 21.1039C14.9734 20.8693 14.6937 20.6971 14.3898 20.7728L12.4707 21.2504C12.1446 21.3316 11.924 21.6836 12.0699 22.0244C12.3079 22.5802 12.6651 23.0394 13.1401 23.3982C13.7187 23.8353 14.4062 24.1052 15.1957 24.2124Z" fill="#1F1F1F" stroke="#1F1F1F" stroke-width="0.45"/>
</svg>
