<svg width="48" height="48" viewBox="0 0 48 48" fill="none" xmlns="http://www.w3.org/2000/svg">
<path d="M23.1999 11.6713L17.9895 31.0897C17.4168 33.2243 18.6838 35.4189 20.8188 35.9903L31.1958 38.7675C33.3294 39.3385 35.522 38.0722 36.0936 35.9388L41.2964 16.5216C41.8682 14.3878 40.6019 12.1944 38.468 11.6227L28.0985 8.84416C25.9651 8.27253 23.7722 9.5381 23.1999 11.6713Z" fill="#FDFBF5" stroke="#1F1F1F" stroke-width="4"/>
<path d="M15.0801 11.4648L15.0719 35.0834C15.0712 37.2935 16.863 39.0854 19.0731 39.0848L32.1583 39.0809C34.367 39.0802 36.1571 37.2896 36.1571 35.0809V11.4662C36.1571 9.25702 34.3663 7.46616 32.1571 7.46616H19.0801C16.8715 7.46616 15.0808 9.25618 15.0801 11.4648Z" fill="#FDFBF5" stroke="#1F1F1F" stroke-width="4"/>
<path d="M6.3786 13.9237L13.3918 40.1335C13.9631 42.2685 16.1577 43.5356 18.2923 42.963L33.1936 38.9654C35.3268 38.3931 36.5925 36.2002 36.0209 34.0667L28.9998 7.86375C28.428 5.72989 26.2347 4.46356 24.1008 5.03533L9.20739 9.02601C7.07404 9.59763 5.80771 11.7901 6.3786 13.9237Z" fill="#FDFBF5" stroke="#1F1F1F" stroke-width="4"/>
<path d="M20.261 32.2832L20.2627 32.2834C21.3279 32.4219 22.446 32.3428 23.6145 32.052C24.8463 31.7454 25.8674 31.2683 26.6651 30.6111L26.6651 30.6112L26.6684 30.6084C27.4558 29.941 27.9938 29.173 28.2648 28.3031C28.5336 27.4402 28.5431 26.5716 28.2931 25.7047C28.0074 24.7142 27.5136 23.9503 26.7961 23.444C26.1107 22.9603 25.3668 22.6513 24.5667 22.521C23.7949 22.3953 22.8321 22.3205 21.682 22.2946C20.8475 22.2716 20.1969 22.2352 19.7267 22.1861C19.2889 22.1214 18.9039 22.0035 18.5686 21.8358C18.2819 21.6703 18.0949 21.4307 18 21.1015C17.8524 20.59 17.9137 20.2036 18.1321 19.899C18.3813 19.5695 18.7823 19.3197 19.3737 19.1725C20.0596 19.0018 20.6222 19.0356 21.0819 19.2402L21.0818 19.2404L21.0919 19.2445C21.4347 19.3824 21.6805 19.5786 21.8466 19.8273C22.0341 20.1081 22.3983 20.3506 22.8109 20.2479L25.4234 19.5976C25.8777 19.4845 26.1693 18.9816 25.9412 18.5223C25.3838 17.3999 24.5124 16.6087 23.3389 16.1587C22.0018 15.6232 20.462 15.5847 18.7362 16.0143C17.5841 16.3011 16.6012 16.7447 15.7956 17.3516C14.9837 17.9455 14.4124 18.6657 14.0985 19.5137C13.7828 20.3665 13.769 21.2742 14.0434 22.2255C14.3324 23.2272 14.8185 23.9999 15.5195 24.5111L15.5195 24.5111L15.5263 24.5158C16.206 24.9834 16.9381 25.2861 17.7206 25.4204L17.7206 25.4205L17.7285 25.4216C18.4939 25.5322 19.4529 25.5997 20.6023 25.6256L20.6023 25.6256L20.6059 25.6256C21.4382 25.6343 22.086 25.671 22.5545 25.7337L22.5545 25.7339L22.5663 25.735C23.0278 25.7784 23.4242 25.899 23.7617 26.0908C24.068 26.265 24.2756 26.5305 24.385 26.9097C24.5177 27.37 24.446 27.7754 24.1676 28.1545C23.8825 28.5229 23.402 28.8112 22.6795 28.9911C21.9801 29.1651 21.4108 29.1264 20.9493 28.911C20.6069 28.7427 20.3386 28.488 20.1412 28.1386C19.9645 27.8257 19.5916 27.5961 19.1864 27.697L16.6276 28.3339C16.1929 28.4421 15.8987 28.9115 16.0932 29.3658C16.4106 30.1069 16.8868 30.7192 17.5201 31.1976C18.2917 31.7804 19.2083 32.1402 20.261 32.2832Z" fill="#1F1F1F" stroke="#1F1F1F" stroke-width="0.6"/>
</svg>
