<svg width="56" height="56" viewBox="0 0 56 56" fill="none" xmlns="http://www.w3.org/2000/svg">
<path d="M27.0733 13.2055L20.821 36.5076C20.1336 39.0692 21.654 41.7027 24.216 42.3884L36.6685 45.721C39.2288 46.4062 41.8599 44.8866 42.5459 42.3266L48.7892 19.026C49.4753 16.4653 47.9557 13.8333 45.3951 13.1472L32.9517 9.81299C30.3917 9.12704 27.7602 10.6457 27.0733 13.2055Z" fill="#FDFBF5" stroke="#1F1F1F" stroke-width="4.8"/>
<path d="M17.3296 12.9577L17.3198 41.3001C17.3189 43.9523 19.4691 46.1025 22.1213 46.1017L37.8235 46.0971C40.4739 46.0963 42.6221 43.9475 42.6221 41.2971V12.9594C42.6221 10.3084 40.473 8.15939 37.8221 8.15939H22.1296C19.4793 8.15939 17.3305 10.3074 17.3296 12.9577Z" fill="#FDFBF5" stroke="#1F1F1F" stroke-width="4.8"/>
<path d="M6.88782 15.9084L15.3037 47.3602C15.9893 49.9222 18.6227 51.4427 21.1843 50.7555L39.0658 45.9585C41.6257 45.2718 43.1445 42.6402 42.4585 40.0801L34.0332 8.63649C33.3471 6.07585 30.7151 4.55626 28.1545 5.24238L10.2824 10.0312C7.72235 10.7171 6.20275 13.3481 6.88782 15.9084Z" fill="#FDFBF5" stroke="#1F1F1F" stroke-width="4.8"/>
<path d="M23.5467 37.9398L23.5487 37.9401C24.8269 38.1062 26.1687 38.0114 27.571 37.6624C29.049 37.2945 30.2743 36.722 31.2316 35.9334L31.2317 35.9334L31.2355 35.9301C32.1804 35.1292 32.8261 34.2076 33.1512 33.1637C33.4738 32.1282 33.4853 31.0859 33.1852 30.0457C32.8424 28.857 32.2498 27.9404 31.3888 27.3328C30.5664 26.7523 29.6736 26.3816 28.7135 26.2252C27.7874 26.0744 26.6321 25.9846 25.2519 25.9535C24.2505 25.9259 23.4697 25.8822 22.9055 25.8233C22.3802 25.7457 21.9182 25.6042 21.5158 25.4029C21.1718 25.2043 20.9474 24.9168 20.8335 24.5219C20.6564 23.908 20.7299 23.4444 20.9921 23.0788C21.291 22.6834 21.7723 22.3837 22.4819 22.207C23.305 22.0021 23.9802 22.0427 24.5318 22.2883L24.5317 22.2885L24.5438 22.2933C24.9551 22.4588 25.2501 22.6943 25.4494 22.9927C25.6744 23.3297 26.1115 23.6207 26.6065 23.4974L29.7416 22.7171C30.2867 22.5814 30.6366 21.9779 30.3629 21.4268C29.694 20.0798 28.6483 19.1304 27.2402 18.5904C25.6357 17.9479 23.7879 17.9017 21.7169 18.4172C20.3344 18.7613 19.155 19.2937 18.1882 20.0219C17.214 20.7346 16.5284 21.5989 16.1517 22.6165C15.7729 23.6398 15.7563 24.729 16.0856 25.8706C16.4324 27.0727 17.0157 27.9999 17.8569 28.6133L17.8569 28.6134L17.865 28.619C18.6807 29.1801 19.5592 29.5434 20.4982 29.7045L20.4982 29.7046L20.5076 29.706C21.4262 29.8386 22.577 29.9196 23.9563 29.9507L23.9563 29.9507L23.9606 29.9508C24.9594 29.9612 25.7367 30.0052 26.299 30.0804L26.306 30.0814L26.3131 30.082C26.8668 30.134 27.3425 30.2787 27.7475 30.509C28.1151 30.718 28.3642 31.0366 28.4954 31.4916C28.6548 32.044 28.5687 32.5305 28.2346 32.9854C27.8925 33.4275 27.3159 33.7735 26.4489 33.9893C25.6097 34.1982 24.9265 34.1517 24.3727 33.8932C23.9617 33.6912 23.6398 33.3857 23.4029 32.9663C23.1909 32.5908 22.7434 32.3154 22.2571 32.4364L19.1866 33.2007C18.6649 33.3306 18.3119 33.8938 18.5454 34.439C18.9262 35.3283 19.4977 36.063 20.2576 36.6371C21.1835 37.3365 22.2834 37.7683 23.5467 37.9398Z" fill="#1F1F1F" stroke="#1F1F1F" stroke-width="0.72"/>
</svg>
