<svg width="72" height="72" viewBox="0 0 72 72" fill="none" xmlns="http://www.w3.org/2000/svg">
<path d="M34.8086 16.9785L26.7698 46.9384C25.8861 50.2318 27.8409 53.6178 31.1349 54.4994L47.1452 58.7842C50.437 59.6652 53.8199 57.7114 54.7018 54.4199L62.729 24.462C63.6112 21.1697 61.6574 17.7857 58.3652 16.9035L42.3665 12.6167C39.075 11.7348 35.6917 13.6874 34.8086 16.9785Z" fill="#FDFBF5" stroke="#1F1F1F" stroke-width="6.17143"/>
<path d="M22.2809 16.66L22.2683 53.1001C22.2672 56.5101 25.0317 59.2747 28.4416 59.2737L48.6302 59.2677C52.0379 59.2666 54.7998 56.5039 54.7998 53.0962V16.6621C54.7998 13.2537 52.0367 10.4907 48.6284 10.4907H28.4523C25.0448 10.4907 22.2821 13.2524 22.2809 16.66Z" fill="#FDFBF5" stroke="#1F1F1F" stroke-width="6.17143"/>
<path d="M8.85577 20.4536L19.6762 60.8917C20.5576 64.1857 23.9435 66.1407 27.237 65.2571L50.2275 59.0895C53.5187 58.2065 55.4715 54.8231 54.5895 51.5315L43.757 11.1041C42.8749 7.81181 39.4909 5.85804 36.1986 6.7402L13.2202 12.8972C9.92874 13.7792 7.97497 17.1619 8.85577 20.4536Z" fill="#FDFBF5" stroke="#1F1F1F" stroke-width="6.17143"/>
<path d="M30.2743 48.7798L30.2769 48.7801C31.9203 48.9937 33.6455 48.8718 35.4484 48.423C37.3487 47.95 38.9241 47.214 40.155 46.2L40.155 46.2001L40.16 46.1959C41.3748 45.1662 42.205 43.9812 42.623 42.6391C43.0377 41.3077 43.0525 39.9676 42.6667 38.6302C42.2259 37.1019 41.464 35.9234 40.3571 35.1421C39.2996 34.3958 38.1518 33.9192 36.9174 33.7182C35.7266 33.5243 34.2412 33.4088 32.4667 33.3688C31.1793 33.3333 30.1754 33.2771 29.4499 33.2014C28.7745 33.1016 28.1805 32.9197 27.6632 32.6609C27.2208 32.4055 26.9323 32.0359 26.7859 31.5281C26.5582 30.7389 26.6528 30.1427 26.9898 29.6728C27.3742 29.1644 27.9929 28.779 28.9053 28.5519C29.9636 28.2885 30.8316 28.3407 31.5408 28.6563L31.5485 28.6598L31.5563 28.6629C32.0852 28.8757 32.4644 29.1784 32.7207 29.5621C33.01 29.9954 33.5719 30.3694 34.2084 30.211L38.2392 29.2077C38.94 29.0332 39.3899 28.2573 39.038 27.5487C38.178 25.8169 36.8336 24.5963 35.023 23.902C32.9601 23.0758 30.5844 23.0164 27.9217 23.6792C26.1442 24.1217 24.6278 24.8062 23.3848 25.7425C22.1322 26.6588 21.2508 27.77 20.7665 29.0783C20.2795 30.394 20.2581 31.7944 20.6815 33.2622C21.1273 34.8077 21.8774 35.9998 22.9589 36.7885L22.9588 36.7886L22.9693 36.7958C24.018 37.5173 25.1475 37.9843 26.3549 38.1915L26.3548 38.1916L26.367 38.1934C27.548 38.364 29.0276 38.4681 30.8009 38.508V38.5081L30.8065 38.5081C32.0906 38.5215 33.09 38.5781 33.8129 38.6749L33.822 38.6761L33.8311 38.6769C34.543 38.7438 35.1547 38.9298 35.6754 39.2259C36.148 39.4946 36.4683 39.9042 36.637 40.4892C36.8419 41.1995 36.7311 41.8249 36.3016 42.4098C35.8618 42.9782 35.1204 43.4231 34.0058 43.7005C32.9267 43.9691 32.0483 43.9093 31.3363 43.5769C30.8079 43.3173 30.394 42.9244 30.0895 42.3852C29.8168 41.9025 29.2416 41.5483 28.6163 41.704L24.6685 42.6866C23.9978 42.8536 23.5439 43.5778 23.844 44.2787C24.3336 45.422 25.0685 46.3667 26.0455 47.1048C27.2359 48.0041 28.6501 48.5592 30.2743 48.7798Z" fill="#1F1F1F" stroke="#1F1F1F" stroke-width="0.925714"/>
</svg>
