<svg width="96" height="96" viewBox="0 0 96 96" fill="none" xmlns="http://www.w3.org/2000/svg">
<path d="M46.3997 23.3425L35.9791 62.1794C34.8335 66.4487 37.3675 70.8379 41.6375 71.9806L62.3916 77.535C66.6588 78.6771 71.0439 76.1444 72.1872 71.8776L82.5929 33.0433C83.7364 28.7756 81.2037 24.3889 76.936 23.2453L56.197 17.6883C51.9303 16.5451 47.5444 19.0762 46.3997 23.3425Z" fill="#FDFBF5" stroke="#1F1F1F" stroke-width="8"/>
<path d="M30.1601 22.9296L30.1439 70.1668C30.1423 74.5871 33.726 78.1709 38.1463 78.1696L64.3166 78.1618C68.734 78.1604 72.3142 74.5791 72.3142 70.1618V22.9323C72.3142 18.514 68.7325 14.9323 64.3142 14.9323H38.1601C33.7429 14.9323 30.1616 18.5124 30.1601 22.9296Z" fill="#FDFBF5" stroke="#1F1F1F" stroke-width="8"/>
<path d="M12.7572 27.8473L26.7837 80.267C27.9263 84.5371 32.3153 87.0712 36.5847 85.9259L66.3872 77.9308C70.6536 76.7863 73.185 72.4003 72.0417 68.1335L57.9996 15.7275C56.856 11.4598 52.4693 8.92712 48.2016 10.0707L18.4148 18.052C14.1481 19.1953 11.6154 23.5802 12.7572 27.8473Z" fill="#FDFBF5" stroke="#1F1F1F" stroke-width="8"/>
<path d="M40.5219 64.5664L40.5253 64.5668C42.6557 64.8437 44.892 64.6857 47.2291 64.1039C49.6926 63.4908 51.7347 62.5366 53.3302 61.2223L53.3303 61.2223L53.3367 61.2169C54.9115 59.8821 55.9876 58.346 56.5296 56.6062C57.0672 54.8804 57.0863 53.1432 56.5862 51.4094C56.0148 49.4284 55.0272 47.9007 53.5922 46.888C52.2214 45.9205 50.7336 45.3027 49.1334 45.0421C47.5898 44.7907 45.6643 44.6411 43.364 44.5892C41.6951 44.5432 40.3938 44.4703 39.4533 44.3722C38.5778 44.2428 37.8078 44.007 37.1372 43.6716C36.5638 43.3405 36.1898 42.8613 36 42.2031C35.7049 41.1801 35.8274 40.4072 36.2643 39.798C36.7626 39.139 37.5646 38.6394 38.7474 38.345C40.1192 38.0036 41.2444 38.0712 42.1638 38.4804L42.1737 38.4849L42.1838 38.4889C42.8694 38.7647 43.361 39.1572 43.6932 39.6546C44.0682 40.2162 44.7966 40.7011 45.6217 40.4957L50.8469 39.1951C51.7553 38.969 52.3385 37.9631 51.8824 37.0446C50.7675 34.7997 49.0247 33.2174 46.6778 32.3174C44.0036 31.2464 40.924 31.1694 37.4724 32.0286C35.1681 32.6021 33.2024 33.4895 31.5911 34.7032C29.9675 35.891 28.8248 37.3314 28.197 39.0274C27.5657 40.7329 27.5381 42.5483 28.0869 44.451C28.6648 46.4545 29.6371 47.9998 31.0391 49.0221L31.0457 49.027L31.0525 49.0316C32.412 49.9668 33.8762 50.5723 35.4412 50.8408L35.449 50.8421L35.4569 50.8433C36.9878 51.0644 38.9059 51.1994 41.2046 51.2512L41.2046 51.2512L41.2119 51.2513C42.8764 51.2686 44.172 51.342 45.1091 51.4674L45.1208 51.469L45.1326 51.4701C46.0555 51.5567 46.8484 51.7979 47.5234 52.1817C48.1361 52.53 48.5512 53.0611 48.7699 53.8193C49.0355 54.7401 48.8919 55.5508 48.3351 56.3091C47.765 57.0458 46.8039 57.6225 45.3591 57.9821C43.9603 58.3303 42.8217 58.2528 41.8986 57.8219C41.2137 57.4854 40.6772 56.9761 40.2824 56.2772C39.929 55.6514 39.1832 55.1923 38.3727 55.394L33.2552 56.6678C32.3857 56.8843 31.7974 57.8231 32.1864 58.7317C32.8211 60.2138 33.7737 61.4384 35.0402 62.3952C36.5833 63.5608 38.4166 64.2805 40.5219 64.5664Z" fill="#1F1F1F" stroke="#1F1F1F" stroke-width="1.2"/>
</svg>
