<svg width="36" height="36" viewBox="0 0 36 36" fill="none" xmlns="http://www.w3.org/2000/svg">
<rect x="7.65216" y="2.96017" width="21" height="30" rx="3" fill="#1F1F1F" stroke="#1F1F1F" stroke-width="3"/>
<path d="M12.3063 22.4706C12.8898 19.6589 15.0856 17.2102 18.1521 17.2102C16.1639 17.2102 14.5521 15.6991 14.5521 13.8352C14.5521 11.9712 16.1639 10.4602 18.1521 10.4602C20.1403 10.4602 21.7521 11.9712 21.7521 13.8352C21.7521 15.6991 20.1403 17.2102 18.1521 17.2102C21.2186 17.2102 23.4144 19.6589 23.9979 22.4706C24.1662 23.2818 23.4805 23.9602 22.6521 23.9602H13.6521C12.8237 23.9602 12.138 23.2818 12.3063 22.4706Z" fill="#1F1F1F"/>
<path d="M18.1521 17.2102C15.0856 17.2102 12.8898 19.6589 12.3063 22.4706C12.138 23.2818 12.8237 23.9602 13.6521 23.9602H22.6521C23.4805 23.9602 24.1662 23.2818 23.9979 22.4706C23.4144 19.6589 21.2186 17.2102 18.1521 17.2102ZM18.1521 17.2102C16.1639 17.2102 14.5521 15.6991 14.5521 13.8352C14.5521 11.9712 16.1639 10.4602 18.1521 10.4602C20.1403 10.4602 21.7521 11.9712 21.7521 13.8352C21.7521 15.6991 20.1403 17.2102 18.1521 17.2102Z" stroke="#FDFBF5" stroke-width="3" stroke-linecap="round" stroke-linejoin="round"/>
</svg>
