<svg width="36" height="36" viewBox="0 0 36 36" fill="none" xmlns="http://www.w3.org/2000/svg">
<rect x="7.65216" y="2.96017" width="21" height="30" rx="3" fill="#FDFBF5" stroke="#1F1F1F" stroke-width="3"/>
<path d="M18.1522 17.2102C15.0857 17.2102 12.8899 19.6589 12.3064 22.4706C12.1381 23.2818 12.8237 23.9602 13.6522 23.9602H22.6522C23.4806 23.9602 24.1663 23.2818 23.9979 22.4706C23.4144 19.6589 21.2186 17.2102 18.1522 17.2102ZM18.1522 17.2102C16.1639 17.2102 14.5522 15.6991 14.5522 13.8352C14.5522 11.9712 16.1639 10.4602 18.1522 10.4602C20.1404 10.4602 21.7522 11.9712 21.7522 13.8352C21.7522 15.6991 20.1404 17.2102 18.1522 17.2102Z" stroke="#1F1F1F" stroke-width="3" stroke-linecap="round" stroke-linejoin="round"/>
</svg>
