<svg width="144" height="144" viewBox="0 0 144 144" fill="none" xmlns="http://www.w3.org/2000/svg">
<path d="M52.0248 44.9959L52.004 105.312C52.0017 111.942 57.3772 117.318 64.0076 117.316L96.2343 117.306C102.86 117.304 108.231 111.932 108.231 105.306V45C108.231 38.3726 102.858 33 96.2307 33H64.0248C57.399 33 52.0271 38.3701 52.0248 44.9959Z" fill="#FDFBF5" stroke="#1F1F1F" stroke-width="12"/>
<path d="M45.2401 34.3944L45.2157 105.25C45.2134 111.881 50.5888 117.256 57.2193 117.254L96.4748 117.243C103.101 117.241 108.471 111.869 108.471 105.243V34.3985C108.471 27.7711 103.099 22.3985 96.4712 22.3985H57.2401C50.6143 22.3985 45.2423 27.7686 45.2401 34.3944Z" fill="#FDFBF5" stroke="#1F1F1F" stroke-width="12"/>
<path d="M38.0323 23.9959L38.0043 105.392C38.002 112.022 43.3774 117.398 50.0078 117.396L96.2923 117.382C102.918 117.38 108.289 112.008 108.289 105.382L108.289 24C108.289 17.3726 102.916 12 96.2887 12L50.0323 12C43.4065 12 38.0346 17.3701 38.0323 23.9959Z" fill="#FDFBF5" stroke="#1F1F1F" stroke-width="12"/>
<path d="M64.0049 87.9768L64.0097 87.9788C66.9889 89.207 70.2904 89.8462 73.9024 89.9107C77.7097 89.9786 81.039 89.389 83.861 88.1041L83.8611 88.1042L83.8725 88.0988C86.6724 86.7762 88.828 84.9684 90.2886 82.6581C91.7375 80.3662 92.4396 77.8566 92.3881 75.1505C92.3293 72.0583 91.4915 69.4614 89.8056 67.437C88.1951 65.5031 86.2792 64.0303 84.0618 63.0314C81.923 62.068 79.1913 61.1036 75.8786 60.1354C73.4783 59.4208 71.6211 58.8101 70.2966 58.3027C69.0783 57.7753 68.0542 57.1349 67.2128 56.3884C66.5105 55.6862 66.1547 54.8467 66.1352 53.8193C66.1048 52.2225 66.5823 51.1504 67.4518 50.4373C68.4297 49.6759 69.7857 49.2634 71.6137 49.2961C73.7339 49.3339 75.338 49.8688 76.5111 50.8186L76.5238 50.8288L76.5369 50.8386C77.4231 51.5045 77.983 52.2639 78.2712 53.1135C78.5966 54.0729 79.4636 55.0582 80.7389 55.081L88.8145 55.2251C90.2185 55.2501 91.454 54.0192 91.1497 52.5112C90.4059 48.8258 88.4951 45.8566 85.444 43.6414C81.9853 41.0516 77.5531 39.7444 72.2185 39.6492C68.6573 39.5857 65.4647 40.1082 62.6589 41.2412C59.8453 42.3318 57.6305 43.9752 56.0625 46.1888C54.4856 48.4148 53.7408 51.0343 53.7973 54.0042C53.8568 57.1313 54.6656 59.7478 56.3 61.7733L56.3078 61.783L56.3158 61.7924C57.9225 63.6751 59.8089 65.1208 61.9722 66.1175L61.983 66.1224L61.994 66.1271C64.1263 67.0419 66.8529 67.9821 70.1634 68.9495L70.1634 68.9496L70.1739 68.9525C72.5789 69.6239 74.4276 70.2332 75.7366 70.7787L75.753 70.7855L75.7696 70.7917C77.0732 71.2756 78.1283 71.9328 78.9573 72.7509C79.7098 73.4935 80.1051 74.424 80.1277 75.6076C80.155 77.0448 79.6322 78.1637 78.5311 79.0462C77.419 79.8923 75.8027 80.3547 73.5696 80.3148C71.4078 80.2763 69.7881 79.7219 68.618 78.7394C67.7563 77.9858 67.1766 77.0396 66.876 75.8736C66.6069 74.8297 65.7046 73.8751 64.452 73.8527L56.5428 73.7116C55.1989 73.6876 53.9819 74.8194 54.1929 76.2869C54.5371 78.6806 55.4419 80.8248 56.9055 82.7028C58.6887 84.9908 61.0655 86.7452 64.0049 87.9768Z" fill="#1F1F1F" stroke="#1F1F1F" stroke-width="1.8"/>
<g clip-path="url(#clip0_146_3955)">
<path d="M8.4 86.28C6.45333 86.28 4.69333 85.9467 3.12 85.28C1.57333 84.6133 0.346667 83.6533 -0.56 82.4C-1.46667 81.1467 -1.93333 79.6667 -1.96 77.96H4.04C4.12 79.1067 4.52 80.0133 5.24 80.68C5.98667 81.3467 7 81.68 8.28 81.68C9.58667 81.68 10.6133 81.3733 11.36 80.76C12.1067 80.12 12.48 79.2933 12.48 78.28C12.48 77.4533 12.2267 76.7733 11.72 76.24C11.2133 75.7067 10.5733 75.2933 9.8 75C9.05333 74.68 8.01333 74.3333 6.68 73.96C4.86667 73.4267 3.38667 72.9067 2.24 72.4C1.12 71.8667 0.146667 71.08 -0.68 70.04C-1.48 68.9733 -1.88 67.56 -1.88 65.8C-1.88 64.1467 -1.46667 62.7067 -0.64 61.48C0.186667 60.2533 1.34667 59.32 2.84 58.68C4.33333 58.0133 6.04 57.68 7.96 57.68C10.84 57.68 13.1733 58.3867 14.96 59.8C16.7733 61.1867 17.7733 63.1333 17.96 65.64H11.8C11.7467 64.68 11.3333 63.8933 10.56 63.28C9.81333 62.64 8.81333 62.32 7.56 62.32C6.46667 62.32 5.58667 62.6 4.92 63.16C4.28 63.72 3.96 64.5333 3.96 65.6C3.96 66.3467 4.2 66.9733 4.68 67.48C5.18667 67.96 5.8 68.36 6.52 68.68C7.26667 68.9733 8.30667 69.32 9.64 69.72C11.4533 70.2533 12.9333 70.7867 14.08 71.32C15.2267 71.8533 16.2133 72.6533 17.04 73.72C17.8667 74.7867 18.28 76.1867 18.28 77.92C18.28 79.4133 17.8933 80.8 17.12 82.08C16.3467 83.36 15.2133 84.3867 13.72 85.16C12.2267 85.9067 10.4533 86.28 8.4 86.28ZM32.975 86.36C30.8417 86.36 28.9217 85.8933 27.215 84.96C25.5083 84 24.1617 82.6533 23.175 80.92C22.215 79.1867 21.735 77.1867 21.735 74.92C21.735 72.6533 22.2283 70.6533 23.215 68.92C24.2283 67.1867 25.6017 65.8533 27.335 64.92C29.0683 63.96 31.0017 63.48 33.135 63.48C35.2683 63.48 37.2017 63.96 38.935 64.92C40.6683 65.8533 42.0283 67.1867 43.015 68.92C44.0283 70.6533 44.535 72.6533 44.535 74.92C44.535 77.1867 44.015 79.1867 42.975 80.92C41.9617 82.6533 40.575 84 38.815 84.96C37.0817 85.8933 35.135 86.36 32.975 86.36ZM32.975 81.48C33.9883 81.48 34.935 81.24 35.815 80.76C36.7217 80.2533 37.4417 79.5067 37.975 78.52C38.5083 77.5333 38.775 76.3333 38.775 74.92C38.775 72.8133 38.215 71.2 37.095 70.08C36.0017 68.9333 34.655 68.36 33.055 68.36C31.455 68.36 30.1083 68.9333 29.015 70.08C27.9483 71.2 27.415 72.8133 27.415 74.92C27.415 77.0267 27.935 78.6533 28.975 79.8C30.0417 80.92 31.375 81.48 32.975 81.48ZM47.2028 74.92C47.2028 72.6267 47.6695 70.6267 48.6028 68.92C49.5361 67.1867 50.8295 65.8533 52.4828 64.92C54.1361 63.96 56.0295 63.48 58.1628 63.48C60.9095 63.48 63.1761 64.1733 64.9628 65.56C66.7761 66.92 67.9895 68.84 68.6028 71.32H62.5628C62.2428 70.36 61.6961 69.6133 60.9228 69.08C60.1761 68.52 59.2428 68.24 58.1228 68.24C56.5228 68.24 55.2561 68.8267 54.3228 70C53.3895 71.1467 52.9228 72.7867 52.9228 74.92C52.9228 77.0267 53.3895 78.6667 54.3228 79.84C55.2561 80.9867 56.5228 81.56 58.1228 81.56C60.3895 81.56 61.8695 80.5467 62.5628 78.52H68.6028C67.9895 80.92 66.7761 82.8267 64.9628 84.24C63.1495 85.6533 60.8828 86.36 58.1628 86.36C56.0295 86.36 54.1361 85.8933 52.4828 84.96C50.8295 84 49.5361 82.6667 48.6028 80.96C47.6695 79.2267 47.2028 77.2133 47.2028 74.92ZM75.5453 61.2C74.5586 61.2 73.732 60.8933 73.0653 60.28C72.4253 59.64 72.1053 58.8533 72.1053 57.92C72.1053 56.9867 72.4253 56.2133 73.0653 55.6C73.732 54.96 74.5586 54.64 75.5453 54.64C76.532 54.64 77.3453 54.96 77.9853 55.6C78.652 56.2133 78.9853 56.9867 78.9853 57.92C78.9853 58.8533 78.652 59.64 77.9853 60.28C77.3453 60.8933 76.532 61.2 75.5453 61.2ZM78.3053 63.84V86H72.7053V63.84H78.3053ZM82.3981 74.84C82.3981 72.6 82.8381 70.6133 83.7181 68.88C84.6248 67.1467 85.8381 65.8133 87.3581 64.88C88.9048 63.9467 90.6248 63.48 92.5181 63.48C94.1715 63.48 95.6115 63.8133 96.8381 64.48C98.0915 65.1467 99.0915 65.9867 99.8381 67V63.84H105.478V86H99.8381V82.76C99.1181 83.8 98.1181 84.6667 96.8381 85.36C95.5848 86.0267 94.1315 86.36 92.4781 86.36C90.6115 86.36 88.9048 85.88 87.3581 84.92C85.8381 83.96 84.6248 82.6133 83.7181 80.88C82.8381 79.12 82.3981 77.1067 82.3981 74.84ZM99.8381 74.92C99.8381 73.56 99.5715 72.4 99.0381 71.44C98.5048 70.4533 97.7848 69.7067 96.8781 69.2C95.9715 68.6667 94.9981 68.4 93.9581 68.4C92.9181 68.4 91.9581 68.6533 91.0781 69.16C90.1981 69.6667 89.4781 70.4133 88.9181 71.4C88.3848 72.36 88.1181 73.5067 88.1181 74.84C88.1181 76.1733 88.3848 77.3467 88.9181 78.36C89.4781 79.3467 90.1981 80.1067 91.0781 80.64C91.9848 81.1733 92.9448 81.44 93.9581 81.44C94.9981 81.44 95.9715 81.1867 96.8781 80.68C97.7848 80.1467 98.5048 79.4 99.0381 78.44C99.5715 77.4533 99.8381 76.28 99.8381 74.92ZM116.548 56.4V86H110.948V56.4H116.548ZM120.64 74.84C120.64 72.6 121.08 70.6133 121.96 68.88C122.867 67.1467 124.094 65.8133 125.64 64.88C127.187 63.9467 128.907 63.48 130.8 63.48C132.24 63.48 133.614 63.8 134.92 64.44C136.227 65.0533 137.267 65.88 138.04 66.92V56.4H143.72V86H138.04V82.72C137.347 83.8133 136.374 84.6933 135.12 85.36C133.867 86.0267 132.414 86.36 130.76 86.36C128.894 86.36 127.187 85.88 125.64 84.92C124.094 83.96 122.867 82.6133 121.96 80.88C121.08 79.12 120.64 77.1067 120.64 74.84ZM138.08 74.92C138.08 73.56 137.814 72.4 137.28 71.44C136.747 70.4533 136.027 69.7067 135.12 69.2C134.214 68.6667 133.24 68.4 132.2 68.4C131.16 68.4 130.2 68.6533 129.32 69.16C128.44 69.6667 127.72 70.4133 127.16 71.4C126.627 72.36 126.36 73.5067 126.36 74.84C126.36 76.1733 126.627 77.3467 127.16 78.36C127.72 79.3467 128.44 80.1067 129.32 80.64C130.227 81.1733 131.187 81.44 132.2 81.44C133.24 81.44 134.214 81.1867 135.12 80.68C136.027 80.1467 136.747 79.4 137.28 78.44C137.814 77.4533 138.08 76.28 138.08 74.92ZM169.79 74.44C169.79 75.24 169.736 75.96 169.63 76.6H153.43C153.563 78.2 154.123 79.4533 155.11 80.36C156.096 81.2667 157.31 81.72 158.75 81.72C160.83 81.72 162.31 80.8267 163.19 79.04H169.23C168.59 81.1733 167.363 82.9333 165.55 84.32C163.736 85.68 161.51 86.36 158.87 86.36C156.736 86.36 154.816 85.8933 153.11 84.96C151.43 84 150.11 82.6533 149.15 80.92C148.216 79.1867 147.75 77.1867 147.75 74.92C147.75 72.6267 148.216 70.6133 149.15 68.88C150.083 67.1467 151.39 65.8133 153.07 64.88C154.75 63.9467 156.683 63.48 158.87 63.48C160.976 63.48 162.856 63.9333 164.51 64.84C166.19 65.7467 167.483 67.04 168.39 68.72C169.323 70.3733 169.79 72.28 169.79 74.44ZM163.99 72.84C163.963 71.4 163.443 70.2533 162.43 69.4C161.416 68.52 160.176 68.08 158.71 68.08C157.323 68.08 156.15 68.5067 155.19 69.36C154.256 70.1867 153.683 71.3467 153.47 72.84H163.99ZM172.437 74.92C172.437 72.6267 172.904 70.6267 173.837 68.92C174.771 67.1867 176.064 65.8533 177.717 64.92C179.371 63.96 181.264 63.48 183.397 63.48C186.144 63.48 188.411 64.1733 190.197 65.56C192.011 66.92 193.224 68.84 193.837 71.32H187.797C187.477 70.36 186.931 69.6133 186.157 69.08C185.411 68.52 184.477 68.24 183.357 68.24C181.757 68.24 180.491 68.8267 179.557 70C178.624 71.1467 178.157 72.7867 178.157 74.92C178.157 77.0267 178.624 78.6667 179.557 79.84C180.491 80.9867 181.757 81.56 183.357 81.56C185.624 81.56 187.104 80.5467 187.797 78.52H193.837C193.224 80.92 192.011 82.8267 190.197 84.24C188.384 85.6533 186.117 86.36 183.397 86.36C181.264 86.36 179.371 85.8933 177.717 84.96C176.064 84 174.771 82.6667 173.837 80.96C172.904 79.2267 172.437 77.2133 172.437 74.92ZM211.06 86L203.54 76.56V86H197.94V56.4H203.54V73.24L210.98 63.84H218.26L208.5 74.96L218.34 86H211.06Z" fill="#1F1F1F"/>
</g>
<defs>
<clipPath id="clip0_146_3955">
<rect width="1" height="60" fill="white" transform="translate(107 42)"/>
</clipPath>
</defs>
</svg>
