<svg width="279" height="60" viewBox="0 0 279 60" fill="none" xmlns="http://www.w3.org/2000/svg">
<path d="M20.2318 19.4984L20.2238 42.9546C20.2229 45.5331 22.3133 47.6236 24.8918 47.6229L37.4244 47.6191C40.0012 47.6184 42.0897 45.5293 42.0897 42.9525V19.5C42.0897 16.9227 40.0004 14.8333 37.4231 14.8333H24.8985C22.3218 14.8333 20.2327 16.9217 20.2318 19.4984Z" fill="#FDFBF5" stroke="#1F1F1F" stroke-width="4.66667"/>
<path d="M17.5934 15.3756L17.5839 42.9306C17.583 45.5091 19.6734 47.5997 22.2519 47.5989L37.518 47.5944C40.0948 47.5936 42.1833 45.5045 42.1833 42.9277V15.3772C42.1833 12.7999 40.0939 10.7105 37.5166 10.7105H22.26C19.6833 10.7105 17.5943 12.7989 17.5934 15.3756Z" fill="#FDFBF5" stroke="#1F1F1F" stroke-width="4.66667"/>
<path d="M14.7903 11.3317L14.7794 42.9857C14.7786 45.5642 16.869 47.6547 19.4475 47.6539L37.447 47.6486C40.0238 47.6478 42.1123 45.5587 42.1123 42.9819L42.1123 11.3333C42.1123 8.75601 40.0229 6.66667 37.4456 6.66667L19.457 6.66667C16.8803 6.66667 14.7912 8.75503 14.7903 11.3317Z" fill="#FDFBF5" stroke="#1F1F1F" stroke-width="4.66667"/>
<path d="M24.8908 36.2132L24.8927 36.214C26.0512 36.6916 27.3351 36.9402 28.7398 36.9653C30.2205 36.9917 31.5152 36.7624 32.6126 36.2627L32.6126 36.2627L32.6171 36.2606C33.706 35.7463 34.5442 35.0432 35.1122 34.1448C35.6757 33.2535 35.9487 32.2776 35.9287 31.2252C35.9059 30.0226 35.5801 29.0127 34.9244 28.2255C34.2981 27.4734 33.553 26.9007 32.6907 26.5122C31.859 26.1375 30.7966 25.7625 29.5083 25.386C28.5749 25.1081 27.8527 24.8706 27.3376 24.6733C26.8638 24.4682 26.4656 24.2191 26.1383 23.9288C25.8652 23.6557 25.7268 23.3293 25.7192 22.9297C25.7074 22.3088 25.8931 21.8918 26.2313 21.6145C26.6115 21.3184 27.1389 21.158 27.8498 21.1707C28.6743 21.1854 29.2981 21.3934 29.7543 21.7628L29.7542 21.763L29.7643 21.7706C30.109 22.0295 30.3267 22.3248 30.4388 22.6553C30.5653 23.0283 30.9025 23.4115 31.3985 23.4204L34.539 23.4764C35.085 23.4862 35.5655 23.0075 35.4471 22.421C35.1579 20.9878 34.4148 19.8331 33.2282 18.9717C31.8832 17.9645 30.1596 17.4562 28.085 17.4191C26.7001 17.3944 25.4585 17.5976 24.3674 18.0382C23.2732 18.4623 22.4119 19.1015 21.8021 19.9623L22.0877 20.1646L21.8021 19.9623C21.1889 20.828 20.8992 21.8467 20.9212 23.0016C20.9443 24.2177 21.2588 25.2353 21.8945 26.023L21.8944 26.023L21.9006 26.0304C22.5254 26.7625 23.259 27.3248 24.1003 27.7123L24.1003 27.7124L24.1088 27.7161C24.938 28.0718 25.9984 28.4375 27.2858 28.8137L27.2858 28.8137L27.2899 28.8149C28.2251 29.0759 28.9441 29.3129 29.4531 29.525L29.453 29.5253L29.466 29.5301C29.9729 29.7183 30.3832 29.9739 30.7056 30.292C30.9983 30.5808 31.152 30.9427 31.1608 31.403C31.1714 31.9618 30.9681 32.397 30.5399 32.7401C30.1074 33.0692 29.4788 33.249 28.6104 33.2335C27.7697 33.2185 27.1398 33.003 26.6848 32.6209C26.3497 32.3278 26.1243 31.9598 26.0073 31.5064C25.9027 31.1004 25.5518 30.7292 25.0647 30.7205L21.9889 30.6656C21.4662 30.6563 20.993 31.0964 21.075 31.6671C21.2089 32.598 21.5607 33.4319 22.1299 34.1622C22.8234 35.052 23.7477 35.7342 24.8908 36.2132Z" fill="#1F1F1F" stroke="#1F1F1F" stroke-width="0.7"/>
<g clip-path="url(#clip0_146_3917)">
<path d="M68.4 44.28C66.4533 44.28 64.6933 43.9467 63.12 43.28C61.5733 42.6133 60.3467 41.6533 59.44 40.4C58.5333 39.1467 58.0667 37.6667 58.04 35.96H64.04C64.12 37.1067 64.52 38.0133 65.24 38.68C65.9867 39.3467 67 39.68 68.28 39.68C69.5867 39.68 70.6133 39.3733 71.36 38.76C72.1067 38.12 72.48 37.2933 72.48 36.28C72.48 35.4533 72.2267 34.7733 71.72 34.24C71.2133 33.7067 70.5733 33.2933 69.8 33C69.0533 32.68 68.0133 32.3333 66.68 31.96C64.8667 31.4267 63.3867 30.9067 62.24 30.4C61.12 29.8667 60.1467 29.08 59.32 28.04C58.52 26.9733 58.12 25.56 58.12 23.8C58.12 22.1467 58.5333 20.7067 59.36 19.48C60.1867 18.2533 61.3467 17.32 62.84 16.68C64.3333 16.0133 66.04 15.68 67.96 15.68C70.84 15.68 73.1733 16.3867 74.96 17.8C76.7733 19.1867 77.7733 21.1333 77.96 23.64H71.8C71.7467 22.68 71.3333 21.8933 70.56 21.28C69.8133 20.64 68.8133 20.32 67.56 20.32C66.4667 20.32 65.5867 20.6 64.92 21.16C64.28 21.72 63.96 22.5333 63.96 23.6C63.96 24.3467 64.2 24.9733 64.68 25.48C65.1867 25.96 65.8 26.36 66.52 26.68C67.2667 26.9733 68.3067 27.32 69.64 27.72C71.4533 28.2533 72.9333 28.7867 74.08 29.32C75.2267 29.8533 76.2133 30.6533 77.04 31.72C77.8667 32.7867 78.28 34.1867 78.28 35.92C78.28 37.4133 77.8933 38.8 77.12 40.08C76.3467 41.36 75.2133 42.3867 73.72 43.16C72.2267 43.9067 70.4533 44.28 68.4 44.28ZM92.975 44.36C90.8417 44.36 88.9217 43.8933 87.215 42.96C85.5083 42 84.1617 40.6533 83.175 38.92C82.215 37.1867 81.735 35.1867 81.735 32.92C81.735 30.6533 82.2283 28.6533 83.215 26.92C84.2283 25.1867 85.6017 23.8533 87.335 22.92C89.0683 21.96 91.0017 21.48 93.135 21.48C95.2683 21.48 97.2017 21.96 98.935 22.92C100.668 23.8533 102.028 25.1867 103.015 26.92C104.028 28.6533 104.535 30.6533 104.535 32.92C104.535 35.1867 104.015 37.1867 102.975 38.92C101.962 40.6533 100.575 42 98.815 42.96C97.0817 43.8933 95.135 44.36 92.975 44.36ZM92.975 39.48C93.9883 39.48 94.935 39.24 95.815 38.76C96.7217 38.2533 97.4417 37.5067 97.975 36.52C98.5083 35.5333 98.775 34.3333 98.775 32.92C98.775 30.8133 98.215 29.2 97.095 28.08C96.0017 26.9333 94.655 26.36 93.055 26.36C91.455 26.36 90.1083 26.9333 89.015 28.08C87.9483 29.2 87.415 30.8133 87.415 32.92C87.415 35.0267 87.935 36.6533 88.975 37.8C90.0417 38.92 91.375 39.48 92.975 39.48ZM107.203 32.92C107.203 30.6267 107.669 28.6267 108.603 26.92C109.536 25.1867 110.829 23.8533 112.483 22.92C114.136 21.96 116.029 21.48 118.163 21.48C120.909 21.48 123.176 22.1733 124.963 23.56C126.776 24.92 127.989 26.84 128.603 29.32H122.563C122.243 28.36 121.696 27.6133 120.923 27.08C120.176 26.52 119.243 26.24 118.123 26.24C116.523 26.24 115.256 26.8267 114.323 28C113.389 29.1467 112.923 30.7867 112.923 32.92C112.923 35.0267 113.389 36.6667 114.323 37.84C115.256 38.9867 116.523 39.56 118.123 39.56C120.389 39.56 121.869 38.5467 122.563 36.52H128.603C127.989 38.92 126.776 40.8267 124.963 42.24C123.149 43.6533 120.883 44.36 118.163 44.36C116.029 44.36 114.136 43.8933 112.483 42.96C110.829 42 109.536 40.6667 108.603 38.96C107.669 37.2267 107.203 35.2133 107.203 32.92ZM135.545 19.2C134.559 19.2 133.732 18.8933 133.065 18.28C132.425 17.64 132.105 16.8533 132.105 15.92C132.105 14.9867 132.425 14.2133 133.065 13.6C133.732 12.96 134.559 12.64 135.545 12.64C136.532 12.64 137.345 12.96 137.985 13.6C138.652 14.2133 138.985 14.9867 138.985 15.92C138.985 16.8533 138.652 17.64 137.985 18.28C137.345 18.8933 136.532 19.2 135.545 19.2ZM138.305 21.84V44H132.705V21.84H138.305ZM142.398 32.84C142.398 30.6 142.838 28.6133 143.718 26.88C144.625 25.1467 145.838 23.8133 147.358 22.88C148.905 21.9467 150.625 21.48 152.518 21.48C154.171 21.48 155.611 21.8133 156.838 22.48C158.091 23.1467 159.091 23.9867 159.838 25V21.84H165.478V44H159.838V40.76C159.118 41.8 158.118 42.6667 156.838 43.36C155.585 44.0267 154.131 44.36 152.478 44.36C150.611 44.36 148.905 43.88 147.358 42.92C145.838 41.96 144.625 40.6133 143.718 38.88C142.838 37.12 142.398 35.1067 142.398 32.84ZM159.838 32.92C159.838 31.56 159.571 30.4 159.038 29.44C158.505 28.4533 157.785 27.7067 156.878 27.2C155.971 26.6667 154.998 26.4 153.958 26.4C152.918 26.4 151.958 26.6533 151.078 27.16C150.198 27.6667 149.478 28.4133 148.918 29.4C148.385 30.36 148.118 31.5067 148.118 32.84C148.118 34.1733 148.385 35.3467 148.918 36.36C149.478 37.3467 150.198 38.1067 151.078 38.64C151.985 39.1733 152.945 39.44 153.958 39.44C154.998 39.44 155.971 39.1867 156.878 38.68C157.785 38.1467 158.505 37.4 159.038 36.44C159.571 35.4533 159.838 34.28 159.838 32.92ZM176.548 14.4V44H170.948V14.4H176.548ZM180.64 32.84C180.64 30.6 181.08 28.6133 181.96 26.88C182.867 25.1467 184.094 23.8133 185.64 22.88C187.187 21.9467 188.907 21.48 190.8 21.48C192.24 21.48 193.614 21.8 194.92 22.44C196.227 23.0533 197.267 23.88 198.04 24.92V14.4H203.72V44H198.04V40.72C197.347 41.8133 196.374 42.6933 195.12 43.36C193.867 44.0267 192.414 44.36 190.76 44.36C188.894 44.36 187.187 43.88 185.64 42.92C184.094 41.96 182.867 40.6133 181.96 38.88C181.08 37.12 180.64 35.1067 180.64 32.84ZM198.08 32.92C198.08 31.56 197.814 30.4 197.28 29.44C196.747 28.4533 196.027 27.7067 195.12 27.2C194.214 26.6667 193.24 26.4 192.2 26.4C191.16 26.4 190.2 26.6533 189.32 27.16C188.44 27.6667 187.72 28.4133 187.16 29.4C186.627 30.36 186.36 31.5067 186.36 32.84C186.36 34.1733 186.627 35.3467 187.16 36.36C187.72 37.3467 188.44 38.1067 189.32 38.64C190.227 39.1733 191.187 39.44 192.2 39.44C193.24 39.44 194.214 39.1867 195.12 38.68C196.027 38.1467 196.747 37.4 197.28 36.44C197.814 35.4533 198.08 34.28 198.08 32.92ZM229.79 32.44C229.79 33.24 229.736 33.96 229.63 34.6H213.43C213.563 36.2 214.123 37.4533 215.11 38.36C216.096 39.2667 217.31 39.72 218.75 39.72C220.83 39.72 222.31 38.8267 223.19 37.04H229.23C228.59 39.1733 227.363 40.9333 225.55 42.32C223.736 43.68 221.51 44.36 218.87 44.36C216.736 44.36 214.816 43.8933 213.11 42.96C211.43 42 210.11 40.6533 209.15 38.92C208.216 37.1867 207.75 35.1867 207.75 32.92C207.75 30.6267 208.216 28.6133 209.15 26.88C210.083 25.1467 211.39 23.8133 213.07 22.88C214.75 21.9467 216.683 21.48 218.87 21.48C220.976 21.48 222.856 21.9333 224.51 22.84C226.19 23.7467 227.483 25.04 228.39 26.72C229.323 28.3733 229.79 30.28 229.79 32.44ZM223.99 30.84C223.963 29.4 223.443 28.2533 222.43 27.4C221.416 26.52 220.176 26.08 218.71 26.08C217.323 26.08 216.15 26.5067 215.19 27.36C214.256 28.1867 213.683 29.3467 213.47 30.84H223.99ZM232.437 32.92C232.437 30.6267 232.904 28.6267 233.837 26.92C234.771 25.1867 236.064 23.8533 237.717 22.92C239.371 21.96 241.264 21.48 243.397 21.48C246.144 21.48 248.411 22.1733 250.197 23.56C252.011 24.92 253.224 26.84 253.837 29.32H247.797C247.477 28.36 246.931 27.6133 246.157 27.08C245.411 26.52 244.477 26.24 243.357 26.24C241.757 26.24 240.491 26.8267 239.557 28C238.624 29.1467 238.157 30.7867 238.157 32.92C238.157 35.0267 238.624 36.6667 239.557 37.84C240.491 38.9867 241.757 39.56 243.357 39.56C245.624 39.56 247.104 38.5467 247.797 36.52H253.837C253.224 38.92 252.011 40.8267 250.197 42.24C248.384 43.6533 246.117 44.36 243.397 44.36C241.264 44.36 239.371 43.8933 237.717 42.96C236.064 42 234.771 40.6667 233.837 38.96C232.904 37.2267 232.437 35.2133 232.437 32.92ZM271.06 44L263.54 34.56V44H257.94V14.4H263.54V31.24L270.98 21.84H278.26L268.5 32.96L278.34 44H271.06Z" fill="#1F1F1F"/>
</g>
<defs>
<clipPath id="clip0_146_3917">
<rect width="223" height="60" fill="white" transform="translate(56)"/>
</clipPath>
</defs>
</svg>
