<svg width="279" height="60" viewBox="0 0 279 60" fill="none" xmlns="http://www.w3.org/2000/svg">
<path d="M27.2889 15.5086L21.2102 38.1635C20.542 40.6539 22.0201 43.2142 24.5109 43.8808L36.6175 47.1209C39.1067 47.7871 41.6647 46.3097 42.3316 43.8207L48.4016 21.1674C49.0686 18.6779 47.5912 16.119 45.1017 15.4519L33.0039 12.2103C30.515 11.5434 27.9566 13.0199 27.2889 15.5086Z" fill="#FDFBF5" stroke="#1F1F1F" stroke-width="4.66667"/>
<path d="M17.5934 15.3756L17.5839 42.9307C17.583 45.5092 19.6734 47.5997 22.2519 47.5989L37.518 47.5944C40.0948 47.5936 42.1833 45.5045 42.1833 42.9277V15.3772C42.1833 12.7999 40.0939 10.7105 37.5166 10.7105H22.26C19.6833 10.7105 17.5943 12.7989 17.5934 15.3756Z" fill="#FDFBF5" stroke="#1F1F1F" stroke-width="4.66667"/>
<path d="M7.21948 18.5775L15.4016 49.1557C16.0681 51.6466 18.6284 53.1248 21.1188 52.4567L38.5036 47.7929C40.9924 47.1253 42.469 44.5668 41.8021 42.0778L33.6109 11.5077C32.9438 9.01814 30.3849 7.54076 27.8954 8.20782L10.5197 12.8636C8.03083 13.5305 6.55344 16.0884 7.21948 18.5775Z" fill="#FDFBF5" stroke="#1F1F1F" stroke-width="4.66667"/>
<path d="M23.4156 39.997L23.4176 39.9973C24.6603 40.1588 25.9648 40.0666 27.3281 39.7272C28.7651 39.3695 29.9564 38.813 30.8871 38.0463L30.8871 38.0463L30.8909 38.0431C31.8095 37.2645 32.4373 36.3684 32.7534 35.3536C33.067 34.3468 33.0781 33.3335 32.7864 32.3221C32.4531 31.1665 31.877 30.2753 31.04 29.6846C30.2403 29.1202 29.3724 28.7598 28.4389 28.6078C27.5385 28.4612 26.4153 28.3739 25.0735 28.3436C24.0999 28.3168 23.3408 28.2743 22.7923 28.217C22.2815 28.1415 21.8324 28.004 21.4412 27.8083C21.1067 27.6152 20.8885 27.3357 20.7778 26.9517C20.6057 26.355 20.6771 25.9042 20.932 25.5488C21.2227 25.1644 21.6905 24.8729 22.3805 24.7012C23.1807 24.502 23.8371 24.5415 24.3734 24.7802L24.3733 24.7804L24.385 24.7851C24.785 24.946 25.0717 25.175 25.2655 25.4651C25.4843 25.7927 25.9092 26.0756 26.3905 25.9558L29.4385 25.1971C29.9684 25.0652 30.3086 24.4784 30.0425 23.9426C29.3922 22.6331 28.3756 21.7101 27.0065 21.1851C25.4466 20.5603 23.6502 20.5154 21.6367 21.0166C20.2926 21.3512 19.1459 21.8688 18.206 22.5768C17.2588 23.2697 16.5923 24.1099 16.2261 25.0993L16.5543 25.2208L16.2261 25.0993C15.8578 26.0941 15.8417 27.1531 16.1618 28.263C16.4989 29.4317 17.0661 30.3331 17.8839 30.9295L17.8839 30.9296L17.8918 30.9351C18.6848 31.4806 19.5389 31.8338 20.4519 31.9904L20.4518 31.9905L20.461 31.9918C21.3541 32.1208 22.4729 32.1996 23.8138 32.2298L23.8138 32.2298L23.8181 32.2298C24.7891 32.24 25.5448 32.2828 26.0915 32.3559L26.0914 32.3562L26.1052 32.3575C26.6435 32.408 27.106 32.5487 27.4998 32.7726C27.8572 32.9758 28.0993 33.2855 28.2269 33.7279C28.3818 34.265 28.2981 34.7379 27.9733 35.1802C27.6407 35.61 27.0801 35.9464 26.2373 36.1562C25.4213 36.3593 24.7571 36.3141 24.2187 36.0627C23.8191 35.8664 23.5062 35.5693 23.2759 35.1616C23.0697 34.7966 22.6347 34.5288 22.1619 34.6465L19.1767 35.3895C18.6695 35.5158 18.3263 36.0634 18.5532 36.5934C18.9235 37.458 19.4791 38.1723 20.218 38.7304C21.1181 39.4104 22.1875 39.8302 23.4156 39.997Z" fill="#1F1F1F" stroke="#1F1F1F" stroke-width="0.7"/>
<g clip-path="url(#clip0_146_3997)">
<path d="M68.4 44.28C66.4533 44.28 64.6933 43.9467 63.12 43.28C61.5733 42.6133 60.3467 41.6533 59.44 40.4C58.5333 39.1467 58.0667 37.6667 58.04 35.96H64.04C64.12 37.1067 64.52 38.0133 65.24 38.68C65.9867 39.3467 67 39.68 68.28 39.68C69.5867 39.68 70.6133 39.3733 71.36 38.76C72.1067 38.12 72.48 37.2933 72.48 36.28C72.48 35.4533 72.2267 34.7733 71.72 34.24C71.2133 33.7067 70.5733 33.2933 69.8 33C69.0533 32.68 68.0133 32.3333 66.68 31.96C64.8667 31.4267 63.3867 30.9067 62.24 30.4C61.12 29.8667 60.1467 29.08 59.32 28.04C58.52 26.9733 58.12 25.56 58.12 23.8C58.12 22.1467 58.5333 20.7067 59.36 19.48C60.1867 18.2533 61.3467 17.32 62.84 16.68C64.3333 16.0133 66.04 15.68 67.96 15.68C70.84 15.68 73.1733 16.3867 74.96 17.8C76.7733 19.1867 77.7733 21.1333 77.96 23.64H71.8C71.7467 22.68 71.3333 21.8933 70.56 21.28C69.8133 20.64 68.8133 20.32 67.56 20.32C66.4667 20.32 65.5867 20.6 64.92 21.16C64.28 21.72 63.96 22.5333 63.96 23.6C63.96 24.3467 64.2 24.9733 64.68 25.48C65.1867 25.96 65.8 26.36 66.52 26.68C67.2667 26.9733 68.3067 27.32 69.64 27.72C71.4533 28.2533 72.9333 28.7867 74.08 29.32C75.2267 29.8533 76.2133 30.6533 77.04 31.72C77.8667 32.7867 78.28 34.1867 78.28 35.92C78.28 37.4133 77.8933 38.8 77.12 40.08C76.3467 41.36 75.2133 42.3867 73.72 43.16C72.2267 43.9067 70.4533 44.28 68.4 44.28ZM92.975 44.36C90.8417 44.36 88.9217 43.8933 87.215 42.96C85.5083 42 84.1617 40.6533 83.175 38.92C82.215 37.1867 81.735 35.1867 81.735 32.92C81.735 30.6533 82.2283 28.6533 83.215 26.92C84.2283 25.1867 85.6017 23.8533 87.335 22.92C89.0683 21.96 91.0017 21.48 93.135 21.48C95.2683 21.48 97.2017 21.96 98.935 22.92C100.668 23.8533 102.028 25.1867 103.015 26.92C104.028 28.6533 104.535 30.6533 104.535 32.92C104.535 35.1867 104.015 37.1867 102.975 38.92C101.962 40.6533 100.575 42 98.815 42.96C97.0817 43.8933 95.135 44.36 92.975 44.36ZM92.975 39.48C93.9883 39.48 94.935 39.24 95.815 38.76C96.7217 38.2533 97.4417 37.5067 97.975 36.52C98.5083 35.5333 98.775 34.3333 98.775 32.92C98.775 30.8133 98.215 29.2 97.095 28.08C96.0017 26.9333 94.655 26.36 93.055 26.36C91.455 26.36 90.1083 26.9333 89.015 28.08C87.9483 29.2 87.415 30.8133 87.415 32.92C87.415 35.0267 87.935 36.6533 88.975 37.8C90.0417 38.92 91.375 39.48 92.975 39.48ZM107.203 32.92C107.203 30.6267 107.669 28.6267 108.603 26.92C109.536 25.1867 110.829 23.8533 112.483 22.92C114.136 21.96 116.029 21.48 118.163 21.48C120.909 21.48 123.176 22.1733 124.963 23.56C126.776 24.92 127.989 26.84 128.603 29.32H122.563C122.243 28.36 121.696 27.6133 120.923 27.08C120.176 26.52 119.243 26.24 118.123 26.24C116.523 26.24 115.256 26.8267 114.323 28C113.389 29.1467 112.923 30.7867 112.923 32.92C112.923 35.0267 113.389 36.6667 114.323 37.84C115.256 38.9867 116.523 39.56 118.123 39.56C120.389 39.56 121.869 38.5467 122.563 36.52H128.603C127.989 38.92 126.776 40.8267 124.963 42.24C123.149 43.6533 120.883 44.36 118.163 44.36C116.029 44.36 114.136 43.8933 112.483 42.96C110.829 42 109.536 40.6667 108.603 38.96C107.669 37.2267 107.203 35.2133 107.203 32.92ZM135.545 19.2C134.559 19.2 133.732 18.8933 133.065 18.28C132.425 17.64 132.105 16.8533 132.105 15.92C132.105 14.9867 132.425 14.2133 133.065 13.6C133.732 12.96 134.559 12.64 135.545 12.64C136.532 12.64 137.345 12.96 137.985 13.6C138.652 14.2133 138.985 14.9867 138.985 15.92C138.985 16.8533 138.652 17.64 137.985 18.28C137.345 18.8933 136.532 19.2 135.545 19.2ZM138.305 21.84V44H132.705V21.84H138.305ZM142.398 32.84C142.398 30.6 142.838 28.6133 143.718 26.88C144.625 25.1467 145.838 23.8133 147.358 22.88C148.905 21.9467 150.625 21.48 152.518 21.48C154.171 21.48 155.611 21.8133 156.838 22.48C158.091 23.1467 159.091 23.9867 159.838 25V21.84H165.478V44H159.838V40.76C159.118 41.8 158.118 42.6667 156.838 43.36C155.585 44.0267 154.131 44.36 152.478 44.36C150.611 44.36 148.905 43.88 147.358 42.92C145.838 41.96 144.625 40.6133 143.718 38.88C142.838 37.12 142.398 35.1067 142.398 32.84ZM159.838 32.92C159.838 31.56 159.571 30.4 159.038 29.44C158.505 28.4533 157.785 27.7067 156.878 27.2C155.971 26.6667 154.998 26.4 153.958 26.4C152.918 26.4 151.958 26.6533 151.078 27.16C150.198 27.6667 149.478 28.4133 148.918 29.4C148.385 30.36 148.118 31.5067 148.118 32.84C148.118 34.1733 148.385 35.3467 148.918 36.36C149.478 37.3467 150.198 38.1067 151.078 38.64C151.985 39.1733 152.945 39.44 153.958 39.44C154.998 39.44 155.971 39.1867 156.878 38.68C157.785 38.1467 158.505 37.4 159.038 36.44C159.571 35.4533 159.838 34.28 159.838 32.92ZM176.548 14.4V44H170.948V14.4H176.548ZM180.64 32.84C180.64 30.6 181.08 28.6133 181.96 26.88C182.867 25.1467 184.094 23.8133 185.64 22.88C187.187 21.9467 188.907 21.48 190.8 21.48C192.24 21.48 193.614 21.8 194.92 22.44C196.227 23.0533 197.267 23.88 198.04 24.92V14.4H203.72V44H198.04V40.72C197.347 41.8133 196.374 42.6933 195.12 43.36C193.867 44.0267 192.414 44.36 190.76 44.36C188.894 44.36 187.187 43.88 185.64 42.92C184.094 41.96 182.867 40.6133 181.96 38.88C181.08 37.12 180.64 35.1067 180.64 32.84ZM198.08 32.92C198.08 31.56 197.814 30.4 197.28 29.44C196.747 28.4533 196.027 27.7067 195.12 27.2C194.214 26.6667 193.24 26.4 192.2 26.4C191.16 26.4 190.2 26.6533 189.32 27.16C188.44 27.6667 187.72 28.4133 187.16 29.4C186.627 30.36 186.36 31.5067 186.36 32.84C186.36 34.1733 186.627 35.3467 187.16 36.36C187.72 37.3467 188.44 38.1067 189.32 38.64C190.227 39.1733 191.187 39.44 192.2 39.44C193.24 39.44 194.214 39.1867 195.12 38.68C196.027 38.1467 196.747 37.4 197.28 36.44C197.814 35.4533 198.08 34.28 198.08 32.92ZM229.79 32.44C229.79 33.24 229.736 33.96 229.63 34.6H213.43C213.563 36.2 214.123 37.4533 215.11 38.36C216.096 39.2667 217.31 39.72 218.75 39.72C220.83 39.72 222.31 38.8267 223.19 37.04H229.23C228.59 39.1733 227.363 40.9333 225.55 42.32C223.736 43.68 221.51 44.36 218.87 44.36C216.736 44.36 214.816 43.8933 213.11 42.96C211.43 42 210.11 40.6533 209.15 38.92C208.216 37.1867 207.75 35.1867 207.75 32.92C207.75 30.6267 208.216 28.6133 209.15 26.88C210.083 25.1467 211.39 23.8133 213.07 22.88C214.75 21.9467 216.683 21.48 218.87 21.48C220.976 21.48 222.856 21.9333 224.51 22.84C226.19 23.7467 227.483 25.04 228.39 26.72C229.323 28.3733 229.79 30.28 229.79 32.44ZM223.99 30.84C223.963 29.4 223.443 28.2533 222.43 27.4C221.416 26.52 220.176 26.08 218.71 26.08C217.323 26.08 216.15 26.5067 215.19 27.36C214.256 28.1867 213.683 29.3467 213.47 30.84H223.99ZM232.437 32.92C232.437 30.6267 232.904 28.6267 233.837 26.92C234.771 25.1867 236.064 23.8533 237.717 22.92C239.371 21.96 241.264 21.48 243.397 21.48C246.144 21.48 248.411 22.1733 250.197 23.56C252.011 24.92 253.224 26.84 253.837 29.32H247.797C247.477 28.36 246.931 27.6133 246.157 27.08C245.411 26.52 244.477 26.24 243.357 26.24C241.757 26.24 240.491 26.8267 239.557 28C238.624 29.1467 238.157 30.7867 238.157 32.92C238.157 35.0267 238.624 36.6667 239.557 37.84C240.491 38.9867 241.757 39.56 243.357 39.56C245.624 39.56 247.104 38.5467 247.797 36.52H253.837C253.224 38.92 252.011 40.8267 250.197 42.24C248.384 43.6533 246.117 44.36 243.397 44.36C241.264 44.36 239.371 43.8933 237.717 42.96C236.064 42 234.771 40.6667 233.837 38.96C232.904 37.2267 232.437 35.2133 232.437 32.92ZM271.06 44L263.54 34.56V44H257.94V14.4H263.54V31.24L270.98 21.84H278.26L268.5 32.96L278.34 44H271.06Z" fill="#1F1F1F"/>
</g>
<defs>
<clipPath id="clip0_146_3997">
<rect width="223" height="60" fill="white" transform="translate(56)"/>
</clipPath>
</defs>
</svg>
