<svg width="24" height="24" viewBox="0 0 24 24" fill="none" xmlns="http://www.w3.org/2000/svg">
<path d="M13 8L10.9729 3.94575C10.6831 3.36613 10.0907 3 9.44262 3V3C8.25533 3 7.429 4.17975 7.83475 5.29556L10.9497 13.8615C10.983 13.9531 11 14.0499 11 14.1473V14.1473C11 15.0347 10.1038 15.6415 9.27983 15.3119L7.64144 14.6566C6.75092 14.3004 5.74424 14.7673 5.44095 15.6772V15.6772C5.18574 16.4428 5.51564 17.2813 6.22413 17.6677L10.5 20L12.4426 21.1101C13.4017 21.6581 14.5843 21.6348 15.5211 21.0493L20.0587 18.2133C21.2051 17.4968 21.7306 16.1021 21.3422 14.8073L19.6283 9.09431C19.2907 7.96908 18.0606 7.37575 16.9699 7.81206L16.5 8M13 8L14 10M13 8L14.211 7.59635C15.2156 7.26148 16.3071 7.76772 16.7004 8.75093L17 9.5" stroke="#FDFBF5" stroke-width="2" stroke-linecap="round" stroke-linejoin="round"/>
<path d="M5 7L3 12.9999M5 7L3 8.00001M5 7L6 9.00001M3 12.9999L2 10.9999M3 12.9999L5 11.9999" stroke="#FDFBF5" stroke-width="2" stroke-linecap="round" stroke-linejoin="round"/>
</svg>
