<svg width="75" height="68" viewBox="0 0 75 68" fill="none" xmlns="http://www.w3.org/2000/svg">
<path d="M10 26V42M2 34H18" stroke="#1F1F1F" stroke-width="4" stroke-linecap="round" stroke-linejoin="round"/>
<rect x="28" y="2" width="44.8" height="64" rx="6.4" fill="#EBEBEB" stroke="#1F1F1F" stroke-width="4"/>
<path d="M50.4 32.4C43.8582 32.4 39.1738 37.624 37.929 43.6223C37.5699 45.3527 39.0327 46.8 40.8 46.8H60C61.7673 46.8 63.2301 45.3527 62.8709 43.6223C61.6262 37.624 56.9418 32.4 50.4 32.4ZM50.4 32.4C46.1584 32.4 42.72 29.1765 42.72 25.2C42.72 21.2236 46.1584 18 50.4 18C54.6415 18 58.08 21.2236 58.08 25.2C58.08 29.1765 54.6415 32.4 50.4 32.4Z" stroke="#1F1F1F" stroke-width="4" stroke-linecap="round" stroke-linejoin="round"/>
</svg>
