<svg width="439" height="64" viewBox="0 0 439 64" fill="none" xmlns="http://www.w3.org/2000/svg">
<rect width="439" height="64" rx="32" fill="#C4C4C4"/>
<path d="M42.944 45.252C41.264 45.252 39.752 44.964 38.408 44.388C37.064 43.788 36.008 42.948 35.24 41.868C34.472 40.788 34.088 39.528 34.088 38.088H38.48C38.576 39.168 38.996 40.056 39.74 40.752C40.508 41.448 41.576 41.796 42.944 41.796C44.36 41.796 45.464 41.46 46.256 40.788C47.048 40.092 47.444 39.204 47.444 38.124C47.444 37.284 47.192 36.6 46.688 36.072C46.208 35.544 45.596 35.136 44.852 34.848C44.132 34.56 43.124 34.248 41.828 33.912C40.196 33.48 38.864 33.048 37.832 32.616C36.824 32.16 35.96 31.464 35.24 30.528C34.52 29.592 34.16 28.344 34.16 26.784C34.16 25.344 34.52 24.084 35.24 23.004C35.96 21.924 36.968 21.096 38.264 20.52C39.56 19.944 41.06 19.656 42.764 19.656C45.188 19.656 47.168 20.268 48.704 21.492C50.264 22.692 51.128 24.348 51.296 26.46H46.76C46.688 25.548 46.256 24.768 45.464 24.12C44.672 23.472 43.628 23.148 42.332 23.148C41.156 23.148 40.196 23.448 39.452 24.048C38.708 24.648 38.336 25.512 38.336 26.64C38.336 27.408 38.564 28.044 39.02 28.548C39.5 29.028 40.1 29.412 40.82 29.7C41.54 29.988 42.524 30.3 43.772 30.636C45.428 31.092 46.772 31.548 47.804 32.004C48.86 32.46 49.748 33.168 50.468 34.128C51.212 35.064 51.584 36.324 51.584 37.908C51.584 39.18 51.236 40.38 50.54 41.508C49.868 42.636 48.872 43.548 47.552 44.244C46.256 44.916 44.72 45.252 42.944 45.252ZM80.4386 24.84C81.9986 24.84 83.3906 25.164 84.6146 25.812C85.8626 26.46 86.8346 27.42 87.5306 28.692C88.2506 29.964 88.6106 31.5 88.6106 33.3V45H84.5426V33.912C84.5426 32.136 84.0986 30.78 83.2106 29.844C82.3226 28.884 81.1106 28.404 79.5746 28.404C78.0386 28.404 76.8146 28.884 75.9026 29.844C75.0146 30.78 74.5706 32.136 74.5706 33.912V45H70.5026V33.912C70.5026 32.136 70.0586 30.78 69.1706 29.844C68.2826 28.884 67.0706 28.404 65.5346 28.404C63.9986 28.404 62.7746 28.884 61.8626 29.844C60.9746 30.78 60.5306 32.136 60.5306 33.912V45H56.4266V25.164H60.5306V27.432C61.2026 26.616 62.0546 25.98 63.0866 25.524C64.1186 25.068 65.2226 24.84 66.3986 24.84C67.9826 24.84 69.3986 25.176 70.6466 25.848C71.8946 26.52 72.8546 27.492 73.5266 28.764C74.1266 27.564 75.0626 26.616 76.3346 25.92C77.6066 25.2 78.9746 24.84 80.4386 24.84ZM92.4648 34.992C92.4648 33 92.8728 31.236 93.6888 29.7C94.5288 28.164 95.6568 26.976 97.0728 26.136C98.5128 25.272 100.097 24.84 101.825 24.84C103.385 24.84 104.741 25.152 105.893 25.776C107.069 26.376 108.005 27.132 108.701 28.044V25.164H112.841V45H108.701V42.048C108.005 42.984 107.057 43.764 105.857 44.388C104.657 45.012 103.289 45.324 101.753 45.324C100.049 45.324 98.4888 44.892 97.0728 44.028C95.6568 43.14 94.5288 41.916 93.6888 40.356C92.8728 38.772 92.4648 36.984 92.4648 34.992ZM108.701 35.064C108.701 33.696 108.413 32.508 107.837 31.5C107.285 30.492 106.553 29.724 105.641 29.196C104.729 28.668 103.745 28.404 102.689 28.404C101.633 28.404 100.649 28.668 99.7368 29.196C98.8248 29.7 98.0808 30.456 97.5048 31.464C96.9528 32.448 96.6768 33.624 96.6768 34.992C96.6768 36.36 96.9528 37.56 97.5048 38.592C98.0808 39.624 98.8248 40.416 99.7368 40.968C100.673 41.496 101.657 41.76 102.689 41.76C103.745 41.76 104.729 41.496 105.641 40.968C106.553 40.44 107.285 39.672 107.837 38.664C108.413 37.632 108.701 36.432 108.701 35.064ZM122.335 18.36V45H118.231V18.36H122.335ZM131.827 18.36V45H127.723V18.36H131.827ZM150.536 11.016L140.744 51.3H136.712L146.468 11.016H150.536ZM169.1 32.148C170.444 32.388 171.584 33.096 172.52 34.272C173.456 35.448 173.924 36.78 173.924 38.268C173.924 39.54 173.588 40.692 172.916 41.724C172.268 42.732 171.32 43.536 170.072 44.136C168.824 44.712 167.372 45 165.716 45H155.708V19.98H165.248C166.952 19.98 168.416 20.268 169.64 20.844C170.864 21.42 171.788 22.2 172.412 23.184C173.036 24.144 173.348 25.224 173.348 26.424C173.348 27.864 172.964 29.064 172.196 30.024C171.428 30.984 170.396 31.692 169.1 32.148ZM159.812 30.492H164.888C166.232 30.492 167.276 30.192 168.02 29.592C168.788 28.968 169.172 28.08 169.172 26.928C169.172 25.8 168.788 24.924 168.02 24.3C167.276 23.652 166.232 23.328 164.888 23.328H159.812V30.492ZM165.356 41.652C166.748 41.652 167.84 41.316 168.632 40.644C169.424 39.972 169.82 39.036 169.82 37.836C169.82 36.612 169.4 35.64 168.56 34.92C167.72 34.2 166.604 33.84 165.212 33.84H159.812V41.652H165.356ZM196.348 25.164V45H192.244V42.66C191.596 43.476 190.744 44.124 189.688 44.604C188.656 45.06 187.552 45.288 186.376 45.288C184.816 45.288 183.412 44.964 182.164 44.316C180.94 43.668 179.968 42.708 179.248 41.436C178.552 40.164 178.204 38.628 178.204 36.828V25.164H182.272V36.216C182.272 37.992 182.716 39.36 183.604 40.32C184.492 41.256 185.704 41.724 187.24 41.724C188.776 41.724 189.988 41.256 190.876 40.32C191.788 39.36 192.244 37.992 192.244 36.216V25.164H196.348ZM206.551 28.512V39.492C206.551 40.236 206.719 40.776 207.055 41.112C207.415 41.424 208.015 41.58 208.855 41.58H211.375V45H208.135C206.287 45 204.871 44.568 203.887 43.704C202.903 42.84 202.411 41.436 202.411 39.492V28.512H200.071V25.164H202.411V20.232H206.551V25.164H211.375V28.512H206.551ZM219.945 28.512V39.492C219.945 40.236 220.113 40.776 220.449 41.112C220.809 41.424 221.409 41.58 222.249 41.58H224.769V45H221.529C219.681 45 218.265 44.568 217.281 43.704C216.297 42.84 215.805 41.436 215.805 39.492V28.512H213.465V25.164H215.805V20.232H219.945V25.164H224.769V28.512H219.945ZM237.156 45.324C235.284 45.324 233.592 44.904 232.08 44.064C230.568 43.2 229.38 42 228.516 40.464C227.652 38.904 227.22 37.104 227.22 35.064C227.22 33.048 227.664 31.26 228.552 29.7C229.44 28.14 230.652 26.94 232.188 26.1C233.724 25.26 235.44 24.84 237.336 24.84C239.232 24.84 240.948 25.26 242.484 26.1C244.02 26.94 245.232 28.14 246.12 29.7C247.008 31.26 247.452 33.048 247.452 35.064C247.452 37.08 246.996 38.868 246.084 40.428C245.172 41.988 243.924 43.2 242.34 44.064C240.78 44.904 239.052 45.324 237.156 45.324ZM237.156 41.76C238.212 41.76 239.196 41.508 240.108 41.004C241.044 40.5 241.8 39.744 242.376 38.736C242.952 37.728 243.24 36.504 243.24 35.064C243.24 33.624 242.964 32.412 242.412 31.428C241.86 30.42 241.128 29.664 240.216 29.16C239.304 28.656 238.32 28.404 237.264 28.404C236.208 28.404 235.224 28.656 234.312 29.16C233.424 29.664 232.716 30.42 232.188 31.428C231.66 32.412 231.396 33.624 231.396 35.064C231.396 37.2 231.936 38.856 233.016 40.032C234.12 41.184 235.5 41.76 237.156 41.76ZM261.517 24.84C263.077 24.84 264.469 25.164 265.693 25.812C266.941 26.46 267.913 27.42 268.609 28.692C269.305 29.964 269.653 31.5 269.653 33.3V45H265.585V33.912C265.585 32.136 265.141 30.78 264.253 29.844C263.365 28.884 262.153 28.404 260.617 28.404C259.081 28.404 257.857 28.884 256.945 29.844C256.057 30.78 255.613 32.136 255.613 33.912V45H251.509V25.164H255.613V27.432C256.285 26.616 257.137 25.98 258.169 25.524C259.225 25.068 260.341 24.84 261.517 24.84ZM293.311 51.696C290.959 49.44 289.147 46.572 287.875 43.092C286.627 39.612 286.003 35.88 286.003 31.896C286.003 27.816 286.675 23.964 288.019 20.34C289.387 16.716 291.391 13.728 294.031 11.376H298.279V11.772C295.519 14.316 293.443 17.364 292.051 20.916C290.659 24.468 289.963 28.128 289.963 31.896C289.963 35.52 290.611 39.024 291.907 42.408C293.203 45.792 295.087 48.756 297.559 51.3V51.696H293.311ZM300.878 22.5V18.756H308.366V45H304.226V22.5H300.878ZM328.116 24.84C327.852 23.736 327.372 22.908 326.676 22.356C325.98 21.804 325.008 21.528 323.76 21.528C321.864 21.528 320.448 22.26 319.512 23.724C318.576 25.164 318.084 27.564 318.036 30.924C318.66 29.868 319.572 29.052 320.772 28.476C321.972 27.9 323.268 27.612 324.66 27.612C326.244 27.612 327.636 27.96 328.836 28.656C330.06 29.328 331.008 30.312 331.68 31.608C332.376 32.904 332.724 34.452 332.724 36.252C332.724 37.932 332.388 39.432 331.716 40.752C331.068 42.072 330.096 43.116 328.8 43.884C327.504 44.628 325.944 45 324.12 45C321.648 45 319.704 44.46 318.288 43.38C316.896 42.276 315.912 40.728 315.336 38.736C314.784 36.744 314.508 34.26 314.508 31.284C314.508 22.5 317.604 18.108 323.796 18.108C326.196 18.108 328.08 18.756 329.448 20.052C330.84 21.348 331.656 22.944 331.896 24.84H328.116ZM323.76 31.068C322.296 31.068 321.048 31.512 320.016 32.4C319.008 33.264 318.504 34.524 318.504 36.18C318.504 37.836 318.972 39.156 319.908 40.14C320.868 41.1 322.2 41.58 323.904 41.58C325.416 41.58 326.604 41.112 327.468 40.176C328.356 39.24 328.8 37.992 328.8 36.432C328.8 34.8 328.368 33.504 327.504 32.544C326.664 31.56 325.416 31.068 323.76 31.068ZM346.137 34.956L352.545 45H347.901L343.617 38.268L339.585 45H335.301L341.709 35.244L335.301 25.164H339.945L344.229 31.896L348.261 25.164H352.545L346.137 34.956ZM354.526 22.5V18.756H362.014V45H357.874V22.5H354.526ZM381.764 24.84C381.5 23.736 381.02 22.908 380.324 22.356C379.628 21.804 378.656 21.528 377.408 21.528C375.512 21.528 374.096 22.26 373.16 23.724C372.224 25.164 371.732 27.564 371.684 30.924C372.308 29.868 373.22 29.052 374.42 28.476C375.62 27.9 376.916 27.612 378.308 27.612C379.892 27.612 381.284 27.96 382.484 28.656C383.708 29.328 384.656 30.312 385.328 31.608C386.024 32.904 386.372 34.452 386.372 36.252C386.372 37.932 386.036 39.432 385.364 40.752C384.716 42.072 383.744 43.116 382.448 43.884C381.152 44.628 379.592 45 377.768 45C375.296 45 373.352 44.46 371.936 43.38C370.544 42.276 369.56 40.728 368.984 38.736C368.432 36.744 368.156 34.26 368.156 31.284C368.156 22.5 371.252 18.108 377.444 18.108C379.844 18.108 381.728 18.756 383.096 20.052C384.488 21.348 385.304 22.944 385.544 24.84H381.764ZM377.408 31.068C375.944 31.068 374.696 31.512 373.664 32.4C372.656 33.264 372.152 34.524 372.152 36.18C372.152 37.836 372.62 39.156 373.556 40.14C374.516 41.1 375.848 41.58 377.552 41.58C379.064 41.58 380.252 41.112 381.116 40.176C382.004 39.24 382.448 37.992 382.448 36.432C382.448 34.8 382.016 33.504 381.152 32.544C380.312 31.56 379.064 31.068 377.408 31.068ZM390.282 51.696V51.3C392.754 48.756 394.638 45.792 395.934 42.408C397.23 39.024 397.878 35.52 397.878 31.896C397.878 28.128 397.182 24.468 395.79 20.916C394.398 17.364 392.322 14.316 389.562 11.772V11.376H393.81C396.45 13.728 398.442 16.716 399.786 20.34C401.154 23.964 401.838 27.816 401.838 31.896C401.838 35.88 401.202 39.612 399.93 43.092C398.682 46.572 396.882 49.44 394.53 51.696H390.282Z" fill="#5E5E5E"/>
</svg>
