<svg width="911" height="76" viewBox="0 0 911 76" fill="none" xmlns="http://www.w3.org/2000/svg">
<rect width="911" height="76" rx="38" fill="#5E5E5E"/>
<path d="M44.4 52.28C42.4533 52.28 40.6933 51.9467 39.12 51.28C37.5733 50.6133 36.3467 49.6533 35.44 48.4C34.5333 47.1467 34.0667 45.6667 34.04 43.96H40.04C40.12 45.1067 40.52 46.0133 41.24 46.68C41.9867 47.3467 43 47.68 44.28 47.68C45.5867 47.68 46.6133 47.3733 47.36 46.76C48.1067 46.12 48.48 45.2933 48.48 44.28C48.48 43.4533 48.2267 42.7733 47.72 42.24C47.2133 41.7067 46.5733 41.2933 45.8 41C45.0533 40.68 44.0133 40.3333 42.68 39.96C40.8667 39.4267 39.3867 38.9067 38.24 38.4C37.12 37.8667 36.1467 37.08 35.32 36.04C34.52 34.9733 34.12 33.56 34.12 31.8C34.12 30.1467 34.5333 28.7067 35.36 27.48C36.1867 26.2533 37.3467 25.32 38.84 24.68C40.3333 24.0133 42.04 23.68 43.96 23.68C46.84 23.68 49.1733 24.3867 50.96 25.8C52.7733 27.1867 53.7733 29.1333 53.96 31.64H47.8C47.7467 30.68 47.3333 29.8933 46.56 29.28C45.8133 28.64 44.8133 28.32 43.56 28.32C42.4667 28.32 41.5867 28.6 40.92 29.16C40.28 29.72 39.96 30.5333 39.96 31.6C39.96 32.3467 40.2 32.9733 40.68 33.48C41.1867 33.96 41.8 34.36 42.52 34.68C43.2667 34.9733 44.3067 35.32 45.64 35.72C47.4533 36.2533 48.9333 36.7867 50.08 37.32C51.2267 37.8533 52.2133 38.6533 53.04 39.72C53.8667 40.7867 54.28 42.1867 54.28 43.92C54.28 45.4133 53.8933 46.8 53.12 48.08C52.3467 49.36 51.2133 50.3867 49.72 51.16C48.2267 51.9067 46.4533 52.28 44.4 52.28ZM68.975 52.36C66.8417 52.36 64.9217 51.8933 63.215 50.96C61.5083 50 60.1617 48.6533 59.175 46.92C58.215 45.1867 57.735 43.1867 57.735 40.92C57.735 38.6533 58.2283 36.6533 59.215 34.92C60.2283 33.1867 61.6017 31.8533 63.335 30.92C65.0683 29.96 67.0017 29.48 69.135 29.48C71.2683 29.48 73.2017 29.96 74.935 30.92C76.6683 31.8533 78.0283 33.1867 79.015 34.92C80.0283 36.6533 80.535 38.6533 80.535 40.92C80.535 43.1867 80.015 45.1867 78.975 46.92C77.9617 48.6533 76.575 50 74.815 50.96C73.0817 51.8933 71.135 52.36 68.975 52.36ZM68.975 47.48C69.9883 47.48 70.935 47.24 71.815 46.76C72.7217 46.2533 73.4417 45.5067 73.975 44.52C74.5083 43.5333 74.775 42.3333 74.775 40.92C74.775 38.8133 74.215 37.2 73.095 36.08C72.0017 34.9333 70.655 34.36 69.055 34.36C67.455 34.36 66.1083 34.9333 65.015 36.08C63.9483 37.2 63.415 38.8133 63.415 40.92C63.415 43.0267 63.935 44.6533 64.975 45.8C66.0417 46.92 67.375 47.48 68.975 47.48ZM83.2028 40.92C83.2028 38.6267 83.6695 36.6267 84.6028 34.92C85.5361 33.1867 86.8295 31.8533 88.4828 30.92C90.1361 29.96 92.0295 29.48 94.1628 29.48C96.9095 29.48 99.1761 30.1733 100.963 31.56C102.776 32.92 103.989 34.84 104.603 37.32H98.5628C98.2428 36.36 97.6961 35.6133 96.9228 35.08C96.1761 34.52 95.2428 34.24 94.1228 34.24C92.5228 34.24 91.2561 34.8267 90.3228 36C89.3895 37.1467 88.9228 38.7867 88.9228 40.92C88.9228 43.0267 89.3895 44.6667 90.3228 45.84C91.2561 46.9867 92.5228 47.56 94.1228 47.56C96.3895 47.56 97.8695 46.5467 98.5628 44.52H104.603C103.989 46.92 102.776 48.8267 100.963 50.24C99.1495 51.6533 96.8828 52.36 94.1628 52.36C92.0295 52.36 90.1361 51.8933 88.4828 50.96C86.8295 50 85.5361 48.6667 84.6028 46.96C83.6695 45.2267 83.2028 43.2133 83.2028 40.92ZM111.545 27.2C110.559 27.2 109.732 26.8933 109.065 26.28C108.425 25.64 108.105 24.8533 108.105 23.92C108.105 22.9867 108.425 22.2133 109.065 21.6C109.732 20.96 110.559 20.64 111.545 20.64C112.532 20.64 113.345 20.96 113.985 21.6C114.652 22.2133 114.985 22.9867 114.985 23.92C114.985 24.8533 114.652 25.64 113.985 26.28C113.345 26.8933 112.532 27.2 111.545 27.2ZM114.305 29.84V52H108.705V29.84H114.305ZM118.398 40.84C118.398 38.6 118.838 36.6133 119.718 34.88C120.625 33.1467 121.838 31.8133 123.358 30.88C124.905 29.9467 126.625 29.48 128.518 29.48C130.171 29.48 131.611 29.8133 132.838 30.48C134.091 31.1467 135.091 31.9867 135.838 33V29.84H141.478V52H135.838V48.76C135.118 49.8 134.118 50.6667 132.838 51.36C131.585 52.0267 130.131 52.36 128.478 52.36C126.611 52.36 124.905 51.88 123.358 50.92C121.838 49.96 120.625 48.6133 119.718 46.88C118.838 45.12 118.398 43.1067 118.398 40.84ZM135.838 40.92C135.838 39.56 135.571 38.4 135.038 37.44C134.505 36.4533 133.785 35.7067 132.878 35.2C131.971 34.6667 130.998 34.4 129.958 34.4C128.918 34.4 127.958 34.6533 127.078 35.16C126.198 35.6667 125.478 36.4133 124.918 37.4C124.385 38.36 124.118 39.5067 124.118 40.84C124.118 42.1733 124.385 43.3467 124.918 44.36C125.478 45.3467 126.198 46.1067 127.078 46.64C127.985 47.1733 128.945 47.44 129.958 47.44C130.998 47.44 131.971 47.1867 132.878 46.68C133.785 46.1467 134.505 45.4 135.038 44.44C135.571 43.4533 135.838 42.28 135.838 40.92ZM152.548 22.4V52H146.948V22.4H152.548ZM156.64 40.84C156.64 38.6 157.08 36.6133 157.96 34.88C158.867 33.1467 160.094 31.8133 161.64 30.88C163.187 29.9467 164.907 29.48 166.8 29.48C168.24 29.48 169.614 29.8 170.92 30.44C172.227 31.0533 173.267 31.88 174.04 32.92V22.4H179.72V52H174.04V48.72C173.347 49.8133 172.374 50.6933 171.12 51.36C169.867 52.0267 168.414 52.36 166.76 52.36C164.894 52.36 163.187 51.88 161.64 50.92C160.094 49.96 158.867 48.6133 157.96 46.88C157.08 45.12 156.64 43.1067 156.64 40.84ZM174.08 40.92C174.08 39.56 173.814 38.4 173.28 37.44C172.747 36.4533 172.027 35.7067 171.12 35.2C170.214 34.6667 169.24 34.4 168.2 34.4C167.16 34.4 166.2 34.6533 165.32 35.16C164.44 35.6667 163.72 36.4133 163.16 37.4C162.627 38.36 162.36 39.5067 162.36 40.84C162.36 42.1733 162.627 43.3467 163.16 44.36C163.72 45.3467 164.44 46.1067 165.32 46.64C166.227 47.1733 167.187 47.44 168.2 47.44C169.24 47.44 170.214 47.1867 171.12 46.68C172.027 46.1467 172.747 45.4 173.28 44.44C173.814 43.4533 174.08 42.28 174.08 40.92ZM205.79 40.44C205.79 41.24 205.736 41.96 205.63 42.6H189.43C189.563 44.2 190.123 45.4533 191.11 46.36C192.096 47.2667 193.31 47.72 194.75 47.72C196.83 47.72 198.31 46.8267 199.19 45.04H205.23C204.59 47.1733 203.363 48.9333 201.55 50.32C199.736 51.68 197.51 52.36 194.87 52.36C192.736 52.36 190.816 51.8933 189.11 50.96C187.43 50 186.11 48.6533 185.15 46.92C184.216 45.1867 183.75 43.1867 183.75 40.92C183.75 38.6267 184.216 36.6133 185.15 34.88C186.083 33.1467 187.39 31.8133 189.07 30.88C190.75 29.9467 192.683 29.48 194.87 29.48C196.976 29.48 198.856 29.9333 200.51 30.84C202.19 31.7467 203.483 33.04 204.39 34.72C205.323 36.3733 205.79 38.28 205.79 40.44ZM199.99 38.84C199.963 37.4 199.443 36.2533 198.43 35.4C197.416 34.52 196.176 34.08 194.71 34.08C193.323 34.08 192.15 34.5067 191.19 35.36C190.256 36.1867 189.683 37.3467 189.47 38.84H199.99ZM208.437 40.92C208.437 38.6267 208.904 36.6267 209.837 34.92C210.771 33.1867 212.064 31.8533 213.717 30.92C215.371 29.96 217.264 29.48 219.397 29.48C222.144 29.48 224.411 30.1733 226.197 31.56C228.011 32.92 229.224 34.84 229.837 37.32H223.797C223.477 36.36 222.931 35.6133 222.157 35.08C221.411 34.52 220.477 34.24 219.357 34.24C217.757 34.24 216.491 34.8267 215.557 36C214.624 37.1467 214.157 38.7867 214.157 40.92C214.157 43.0267 214.624 44.6667 215.557 45.84C216.491 46.9867 217.757 47.56 219.357 47.56C221.624 47.56 223.104 46.5467 223.797 44.52H229.837C229.224 46.92 228.011 48.8267 226.197 50.24C224.384 51.6533 222.117 52.36 219.397 52.36C217.264 52.36 215.371 51.8933 213.717 50.96C212.064 50 210.771 48.6667 209.837 46.96C208.904 45.2267 208.437 43.2133 208.437 40.92ZM247.06 52L239.54 42.56V52H233.94V22.4H239.54V39.24L246.98 29.84H254.26L244.5 40.96L254.34 52H247.06ZM283.87 35.36V40.08H266.91V35.36H283.87ZM309.442 24.08C312.375 24.08 314.949 24.6533 317.162 25.8C319.402 26.9467 321.122 28.5867 322.322 30.72C323.549 32.8267 324.162 35.28 324.162 38.08C324.162 40.88 323.549 43.3333 322.322 45.44C321.122 47.52 319.402 49.1333 317.162 50.28C314.949 51.4267 312.375 52 309.442 52H299.682V24.08H309.442ZM309.242 47.24C312.175 47.24 314.442 46.44 316.042 44.84C317.642 43.24 318.442 40.9867 318.442 38.08C318.442 35.1733 317.642 32.9067 316.042 31.28C314.442 29.6267 312.175 28.8 309.242 28.8H305.282V47.24H309.242ZM348.954 40.44C348.954 41.24 348.9 41.96 348.794 42.6H332.594C332.727 44.2 333.287 45.4533 334.274 46.36C335.26 47.2667 336.474 47.72 337.914 47.72C339.994 47.72 341.474 46.8267 342.354 45.04H348.394C347.754 47.1733 346.527 48.9333 344.714 50.32C342.9 51.68 340.674 52.36 338.034 52.36C335.9 52.36 333.98 51.8933 332.274 50.96C330.594 50 329.274 48.6533 328.314 46.92C327.38 45.1867 326.914 43.1867 326.914 40.92C326.914 38.6267 327.38 36.6133 328.314 34.88C329.247 33.1467 330.554 31.8133 332.234 30.88C333.914 29.9467 335.847 29.48 338.034 29.48C340.14 29.48 342.02 29.9333 343.674 30.84C345.354 31.7467 346.647 33.04 347.554 34.72C348.487 36.3733 348.954 38.28 348.954 40.44ZM343.154 38.84C343.127 37.4 342.607 36.2533 341.594 35.4C340.58 34.52 339.34 34.08 337.874 34.08C336.487 34.08 335.314 34.5067 334.354 35.36C333.42 36.1867 332.847 37.3467 332.634 38.84H343.154ZM361.521 52.36C359.708 52.36 358.081 52.04 356.641 51.4C355.201 50.7333 354.055 49.84 353.201 48.72C352.375 47.6 351.921 46.36 351.841 45H357.481C357.588 45.8533 358.001 46.56 358.721 47.12C359.468 47.68 360.388 47.96 361.481 47.96C362.548 47.96 363.375 47.7467 363.961 47.32C364.575 46.8933 364.881 46.3467 364.881 45.68C364.881 44.96 364.508 44.4267 363.761 44.08C363.041 43.7067 361.881 43.3067 360.281 42.88C358.628 42.48 357.268 42.0667 356.201 41.64C355.161 41.2133 354.255 40.56 353.481 39.68C352.735 38.8 352.361 37.6133 352.361 36.12C352.361 34.8933 352.708 33.7733 353.401 32.76C354.121 31.7467 355.135 30.9467 356.441 30.36C357.775 29.7733 359.335 29.48 361.121 29.48C363.761 29.48 365.868 30.1467 367.441 31.48C369.015 32.7867 369.881 34.56 370.041 36.8H364.681C364.601 35.92 364.228 35.2267 363.561 34.72C362.921 34.1867 362.055 33.92 360.961 33.92C359.948 33.92 359.161 34.1067 358.601 34.48C358.068 34.8533 357.801 35.3733 357.801 36.04C357.801 36.7867 358.175 37.36 358.921 37.76C359.668 38.1333 360.828 38.52 362.401 38.92C364.001 39.32 365.321 39.7333 366.361 40.16C367.401 40.5867 368.295 41.2533 369.041 42.16C369.815 43.04 370.215 44.2133 370.241 45.68C370.241 46.96 369.881 48.1067 369.161 49.12C368.468 50.1333 367.455 50.9333 366.121 51.52C364.815 52.08 363.281 52.36 361.521 52.36ZM377.678 27.2C376.691 27.2 375.865 26.8933 375.198 26.28C374.558 25.64 374.238 24.8533 374.238 23.92C374.238 22.9867 374.558 22.2133 375.198 21.6C375.865 20.96 376.691 20.64 377.678 20.64C378.665 20.64 379.478 20.96 380.118 21.6C380.785 22.2133 381.118 22.9867 381.118 23.92C381.118 24.8533 380.785 25.64 380.118 26.28C379.478 26.8933 378.665 27.2 377.678 27.2ZM380.438 29.84V52H374.838V29.84H380.438ZM394.651 29.48C396.304 29.48 397.758 29.8133 399.011 30.48C400.264 31.12 401.251 31.96 401.971 33V29.84H407.611V52.16C407.611 54.2133 407.198 56.04 406.371 57.64C405.544 59.2667 404.304 60.5467 402.651 61.48C400.998 62.44 398.998 62.92 396.651 62.92C393.504 62.92 390.918 62.1867 388.891 60.72C386.891 59.2533 385.758 57.2533 385.491 54.72H391.051C391.344 55.7333 391.971 56.5333 392.931 57.12C393.918 57.7333 395.104 58.04 396.491 58.04C398.118 58.04 399.438 57.5467 400.451 56.56C401.464 55.6 401.971 54.1333 401.971 52.16V48.72C401.251 49.76 400.251 50.6267 398.971 51.32C397.718 52.0133 396.278 52.36 394.651 52.36C392.784 52.36 391.078 51.88 389.531 50.92C387.984 49.96 386.758 48.6133 385.851 46.88C384.971 45.12 384.531 43.1067 384.531 40.84C384.531 38.6 384.971 36.6133 385.851 34.88C386.758 33.1467 387.971 31.8133 389.491 30.88C391.038 29.9467 392.758 29.48 394.651 29.48ZM401.971 40.92C401.971 39.56 401.704 38.4 401.171 37.44C400.638 36.4533 399.918 35.7067 399.011 35.2C398.104 34.6667 397.131 34.4 396.091 34.4C395.051 34.4 394.091 34.6533 393.211 35.16C392.331 35.6667 391.611 36.4133 391.051 37.4C390.518 38.36 390.251 39.5067 390.251 40.84C390.251 42.1733 390.518 43.3467 391.051 44.36C391.611 45.3467 392.331 46.1067 393.211 46.64C394.118 47.1733 395.078 47.44 396.091 47.44C397.131 47.44 398.104 47.1867 399.011 46.68C399.918 46.1467 400.638 45.4 401.171 44.44C401.704 43.4533 401.971 42.28 401.971 40.92ZM425.36 29.52C428 29.52 430.134 30.36 431.76 32.04C433.387 33.6933 434.2 36.0133 434.2 39V52H428.6V39.76C428.6 38 428.16 36.6533 427.28 35.72C426.4 34.76 425.2 34.28 423.68 34.28C422.134 34.28 420.907 34.76 420 35.72C419.12 36.6533 418.68 38 418.68 39.76V52H413.08V29.84H418.68V32.6C419.427 31.64 420.374 30.8933 421.52 30.36C422.694 29.8 423.974 29.52 425.36 29.52ZM458.697 52.28C456.75 52.28 454.99 51.9467 453.417 51.28C451.87 50.6133 450.644 49.6533 449.737 48.4C448.83 47.1467 448.364 45.6667 448.337 43.96H454.337C454.417 45.1067 454.817 46.0133 455.537 46.68C456.284 47.3467 457.297 47.68 458.577 47.68C459.884 47.68 460.91 47.3733 461.657 46.76C462.404 46.12 462.777 45.2933 462.777 44.28C462.777 43.4533 462.524 42.7733 462.017 42.24C461.51 41.7067 460.87 41.2933 460.097 41C459.35 40.68 458.31 40.3333 456.977 39.96C455.164 39.4267 453.684 38.9067 452.537 38.4C451.417 37.8667 450.444 37.08 449.617 36.04C448.817 34.9733 448.417 33.56 448.417 31.8C448.417 30.1467 448.83 28.7067 449.657 27.48C450.484 26.2533 451.644 25.32 453.137 24.68C454.63 24.0133 456.337 23.68 458.257 23.68C461.137 23.68 463.47 24.3867 465.257 25.8C467.07 27.1867 468.07 29.1333 468.257 31.64H462.097C462.044 30.68 461.63 29.8933 460.857 29.28C460.11 28.64 459.11 28.32 457.857 28.32C456.764 28.32 455.884 28.6 455.217 29.16C454.577 29.72 454.257 30.5333 454.257 31.6C454.257 32.3467 454.497 32.9733 454.977 33.48C455.484 33.96 456.097 34.36 456.817 34.68C457.564 34.9733 458.604 35.32 459.937 35.72C461.75 36.2533 463.23 36.7867 464.377 37.32C465.524 37.8533 466.51 38.6533 467.337 39.72C468.164 40.7867 468.577 42.1867 468.577 43.92C468.577 45.4133 468.19 46.8 467.417 48.08C466.644 49.36 465.51 50.3867 464.017 51.16C462.524 51.9067 460.75 52.28 458.697 52.28ZM494.632 29.84L480.912 62.48H474.952L479.752 51.44L470.872 29.84H477.152L482.872 45.32L488.672 29.84H494.632ZM506.131 52.36C504.317 52.36 502.691 52.04 501.251 51.4C499.811 50.7333 498.664 49.84 497.811 48.72C496.984 47.6 496.531 46.36 496.451 45H502.091C502.197 45.8533 502.611 46.56 503.331 47.12C504.077 47.68 504.997 47.96 506.091 47.96C507.157 47.96 507.984 47.7467 508.571 47.32C509.184 46.8933 509.491 46.3467 509.491 45.68C509.491 44.96 509.117 44.4267 508.371 44.08C507.651 43.7067 506.491 43.3067 504.891 42.88C503.237 42.48 501.877 42.0667 500.811 41.64C499.771 41.2133 498.864 40.56 498.091 39.68C497.344 38.8 496.971 37.6133 496.971 36.12C496.971 34.8933 497.317 33.7733 498.011 32.76C498.731 31.7467 499.744 30.9467 501.051 30.36C502.384 29.7733 503.944 29.48 505.731 29.48C508.371 29.48 510.477 30.1467 512.051 31.48C513.624 32.7867 514.491 34.56 514.651 36.8H509.291C509.211 35.92 508.837 35.2267 508.171 34.72C507.531 34.1867 506.664 33.92 505.571 33.92C504.557 33.92 503.771 34.1067 503.211 34.48C502.677 34.8533 502.411 35.3733 502.411 36.04C502.411 36.7867 502.784 37.36 503.531 37.76C504.277 38.1333 505.437 38.52 507.011 38.92C508.611 39.32 509.931 39.7333 510.971 40.16C512.011 40.5867 512.904 41.2533 513.651 42.16C514.424 43.04 514.824 44.2133 514.851 45.68C514.851 46.96 514.491 48.1067 513.771 49.12C513.077 50.1333 512.064 50.9333 510.731 51.52C509.424 52.08 507.891 52.36 506.131 52.36ZM525.968 34.44V45.16C525.968 45.9067 526.141 46.4533 526.488 46.8C526.861 47.12 527.474 47.28 528.328 47.28H530.928V52H527.408C522.688 52 520.328 49.7067 520.328 45.12V34.44H517.688V29.84H520.328V24.36H525.968V29.84H530.928V34.44H525.968ZM555.555 40.44C555.555 41.24 555.502 41.96 555.395 42.6H539.195C539.329 44.2 539.889 45.4533 540.875 46.36C541.862 47.2667 543.075 47.72 544.515 47.72C546.595 47.72 548.075 46.8267 548.955 45.04H554.995C554.355 47.1733 553.129 48.9333 551.315 50.32C549.502 51.68 547.275 52.36 544.635 52.36C542.502 52.36 540.582 51.8933 538.875 50.96C537.195 50 535.875 48.6533 534.915 46.92C533.982 45.1867 533.515 43.1867 533.515 40.92C533.515 38.6267 533.982 36.6133 534.915 34.88C535.849 33.1467 537.155 31.8133 538.835 30.88C540.515 29.9467 542.449 29.48 544.635 29.48C546.742 29.48 548.622 29.9333 550.275 30.84C551.955 31.7467 553.249 33.04 554.155 34.72C555.089 36.3733 555.555 38.28 555.555 40.44ZM549.755 38.84C549.729 37.4 549.209 36.2533 548.195 35.4C547.182 34.52 545.942 34.08 544.475 34.08C543.089 34.08 541.915 34.5067 540.955 35.36C540.022 36.1867 539.449 37.3467 539.235 38.84H549.755ZM587.163 29.52C589.883 29.52 592.069 30.36 593.723 32.04C595.403 33.6933 596.243 36.0133 596.243 39V52H590.643V39.76C590.643 38.0267 590.203 36.7067 589.323 35.8C588.443 34.8667 587.243 34.4 585.723 34.4C584.203 34.4 582.989 34.8667 582.083 35.8C581.203 36.7067 580.763 38.0267 580.763 39.76V52H575.163V39.76C575.163 38.0267 574.723 36.7067 573.843 35.8C572.963 34.8667 571.763 34.4 570.243 34.4C568.696 34.4 567.469 34.8667 566.563 35.8C565.683 36.7067 565.243 38.0267 565.243 39.76V52H559.643V29.84H565.243V32.52C565.963 31.5867 566.883 30.8533 568.003 30.32C569.149 29.7867 570.403 29.52 571.763 29.52C573.496 29.52 575.043 29.8933 576.403 30.64C577.763 31.36 578.816 32.4 579.563 33.76C580.283 32.48 581.323 31.4533 582.683 30.68C584.069 29.9067 585.563 29.52 587.163 29.52ZM628.128 35.36V40.08H611.168V35.36H628.128ZM649.54 24.08V52H643.94V24.08H649.54ZM653.632 40.92C653.632 38.6267 654.099 36.6267 655.033 34.92C655.966 33.1867 657.259 31.8533 658.913 30.92C660.566 29.96 662.459 29.48 664.593 29.48C667.339 29.48 669.606 30.1733 671.393 31.56C673.206 32.92 674.419 34.84 675.033 37.32H668.993C668.673 36.36 668.126 35.6133 667.353 35.08C666.606 34.52 665.673 34.24 664.553 34.24C662.953 34.24 661.686 34.8267 660.753 36C659.819 37.1467 659.353 38.7867 659.353 40.92C659.353 43.0267 659.819 44.6667 660.753 45.84C661.686 46.9867 662.953 47.56 664.553 47.56C666.819 47.56 668.299 46.5467 668.993 44.52H675.033C674.419 46.92 673.206 48.8267 671.393 50.24C669.579 51.6533 667.313 52.36 664.593 52.36C662.459 52.36 660.566 51.8933 658.913 50.96C657.259 50 655.966 48.6667 655.033 46.96C654.099 45.2267 653.632 43.2133 653.632 40.92ZM688.975 52.36C686.842 52.36 684.922 51.8933 683.215 50.96C681.508 50 680.162 48.6533 679.175 46.92C678.215 45.1867 677.735 43.1867 677.735 40.92C677.735 38.6533 678.228 36.6533 679.215 34.92C680.228 33.1867 681.602 31.8533 683.335 30.92C685.068 29.96 687.002 29.48 689.135 29.48C691.268 29.48 693.202 29.96 694.935 30.92C696.668 31.8533 698.028 33.1867 699.015 34.92C700.028 36.6533 700.535 38.6533 700.535 40.92C700.535 43.1867 700.015 45.1867 698.975 46.92C697.962 48.6533 696.575 50 694.815 50.96C693.082 51.8933 691.135 52.36 688.975 52.36ZM688.975 47.48C689.988 47.48 690.935 47.24 691.815 46.76C692.722 46.2533 693.442 45.5067 693.975 44.52C694.508 43.5333 694.775 42.3333 694.775 40.92C694.775 38.8133 694.215 37.2 693.095 36.08C692.002 34.9333 690.655 34.36 689.055 34.36C687.455 34.36 686.108 34.9333 685.015 36.08C683.948 37.2 683.415 38.8133 683.415 40.92C683.415 43.0267 683.935 44.6533 684.975 45.8C686.042 46.92 687.375 47.48 688.975 47.48ZM716.923 29.52C719.563 29.52 721.696 30.36 723.323 32.04C724.949 33.6933 725.763 36.0133 725.763 39V52H720.163V39.76C720.163 38 719.723 36.6533 718.843 35.72C717.963 34.76 716.763 34.28 715.243 34.28C713.696 34.28 712.469 34.76 711.563 35.72C710.683 36.6533 710.243 38 710.243 39.76V52H704.643V29.84H710.243V32.6C710.989 31.64 711.936 30.8933 713.083 30.36C714.256 29.8 715.536 29.52 716.923 29.52ZM746.219 47.56H755.419V52H740.619V24.08H746.219V47.56ZM761.819 27.2C760.832 27.2 760.005 26.8933 759.339 26.28C758.699 25.64 758.379 24.8533 758.379 23.92C758.379 22.9867 758.699 22.2133 759.339 21.6C760.005 20.96 760.832 20.64 761.819 20.64C762.805 20.64 763.619 20.96 764.259 21.6C764.925 22.2133 765.259 22.9867 765.259 23.92C765.259 24.8533 764.925 25.64 764.259 26.28C763.619 26.8933 762.805 27.2 761.819 27.2ZM764.579 29.84V52H758.979V29.84H764.579ZM775.712 33.08C776.432 32.0133 777.418 31.1467 778.672 30.48C779.952 29.8133 781.405 29.48 783.032 29.48C784.925 29.48 786.632 29.9467 788.152 30.88C789.698 31.8133 790.912 33.1467 791.792 34.88C792.698 36.5867 793.152 38.5733 793.152 40.84C793.152 43.1067 792.698 45.12 791.792 46.88C790.912 48.6133 789.698 49.96 788.152 50.92C786.632 51.88 784.925 52.36 783.032 52.36C781.378 52.36 779.925 52.04 778.672 51.4C777.445 50.7333 776.458 49.88 775.712 48.84V52H770.112V22.4H775.712V33.08ZM787.432 40.84C787.432 39.5067 787.152 38.36 786.592 37.4C786.058 36.4133 785.338 35.6667 784.432 35.16C783.552 34.6533 782.592 34.4 781.552 34.4C780.538 34.4 779.578 34.6667 778.672 35.2C777.792 35.7067 777.072 36.4533 776.512 37.44C775.978 38.4267 775.712 39.5867 775.712 40.92C775.712 42.2533 775.978 43.4133 776.512 44.4C777.072 45.3867 777.792 46.1467 778.672 46.68C779.578 47.1867 780.538 47.44 781.552 47.44C782.592 47.44 783.552 47.1733 784.432 46.64C785.338 46.1067 786.058 45.3467 786.592 44.36C787.152 43.3733 787.432 42.2 787.432 40.84ZM802.821 33.28C803.541 32.1067 804.474 31.1867 805.621 30.52C806.794 29.8533 808.128 29.52 809.621 29.52V35.4H808.141C806.381 35.4 805.048 35.8133 804.141 36.64C803.261 37.4667 802.821 38.9067 802.821 40.96V52H797.221V29.84H802.821V33.28ZM811.953 40.84C811.953 38.6 812.393 36.6133 813.273 34.88C814.179 33.1467 815.393 31.8133 816.913 30.88C818.459 29.9467 820.179 29.48 822.073 29.48C823.726 29.48 825.166 29.8133 826.393 30.48C827.646 31.1467 828.646 31.9867 829.393 33V29.84H835.033V52H829.393V48.76C828.673 49.8 827.673 50.6667 826.393 51.36C825.139 52.0267 823.686 52.36 822.033 52.36C820.166 52.36 818.459 51.88 816.913 50.92C815.393 49.96 814.179 48.6133 813.273 46.88C812.393 45.12 811.953 43.1067 811.953 40.84ZM829.393 40.92C829.393 39.56 829.126 38.4 828.593 37.44C828.059 36.4533 827.339 35.7067 826.433 35.2C825.526 34.6667 824.553 34.4 823.513 34.4C822.473 34.4 821.513 34.6533 820.633 35.16C819.753 35.6667 819.033 36.4133 818.473 37.4C817.939 38.36 817.673 39.5067 817.673 40.84C817.673 42.1733 817.939 43.3467 818.473 44.36C819.033 45.3467 819.753 46.1067 820.633 46.64C821.539 47.1733 822.499 47.44 823.513 47.44C824.553 47.44 825.526 47.1867 826.433 46.68C827.339 46.1467 828.059 45.4 828.593 44.44C829.126 43.4533 829.393 42.28 829.393 40.92ZM846.102 33.28C846.822 32.1067 847.756 31.1867 848.902 30.52C850.076 29.8533 851.409 29.52 852.902 29.52V35.4H851.422C849.662 35.4 848.329 35.8133 847.422 36.64C846.542 37.4667 846.102 38.9067 846.102 40.96V52H840.502V29.84H846.102V33.28ZM877.874 29.84L864.154 62.48H858.194L862.994 51.44L854.114 29.84H860.394L866.114 45.32L871.914 29.84H877.874Z" fill="#C4C4C4"/>
</svg>
