<svg width="480" height="64" viewBox="0 0 480 64" fill="none" xmlns="http://www.w3.org/2000/svg">
<rect width="480" height="64" rx="32" fill="#C4C4C4"/>
<path d="M38.768 19.98V35.928C38.768 37.824 39.26 39.252 40.244 40.212C41.252 41.172 42.644 41.652 44.42 41.652C46.22 41.652 47.612 41.172 48.596 40.212C49.604 39.252 50.108 37.824 50.108 35.928V19.98H54.212V35.856C54.212 37.896 53.768 39.624 52.88 41.04C51.992 42.456 50.804 43.512 49.316 44.208C47.828 44.904 46.184 45.252 44.384 45.252C42.584 45.252 40.94 44.904 39.452 44.208C37.988 43.512 36.824 42.456 35.96 41.04C35.096 39.624 34.664 37.896 34.664 35.856V19.98H38.768ZM69.5635 24.84C71.1235 24.84 72.5155 25.164 73.7395 25.812C74.9875 26.46 75.9595 27.42 76.6555 28.692C77.3515 29.964 77.6995 31.5 77.6995 33.3V45H73.6315V33.912C73.6315 32.136 73.1875 30.78 72.2995 29.844C71.4115 28.884 70.1995 28.404 68.6635 28.404C67.1275 28.404 65.9035 28.884 64.9915 29.844C64.1035 30.78 63.6595 32.136 63.6595 33.912V45H59.5555V25.164H63.6595V27.432C64.3315 26.616 65.1835 25.98 66.2155 25.524C67.2715 25.068 68.3875 24.84 69.5635 24.84ZM85.0224 22.536C84.2784 22.536 83.6544 22.284 83.1504 21.78C82.6464 21.276 82.3944 20.652 82.3944 19.908C82.3944 19.164 82.6464 18.54 83.1504 18.036C83.6544 17.532 84.2784 17.28 85.0224 17.28C85.7424 17.28 86.3544 17.532 86.8584 18.036C87.3624 18.54 87.6144 19.164 87.6144 19.908C87.6144 20.652 87.3624 21.276 86.8584 21.78C86.3544 22.284 85.7424 22.536 85.0224 22.536ZM87.0384 25.164V45H82.9344V25.164H87.0384ZM91.0586 34.992C91.0586 33 91.4666 31.236 92.2826 29.7C93.1226 28.164 94.2506 26.976 95.6666 26.136C97.1066 25.272 98.7026 24.84 100.455 24.84C101.991 24.84 103.347 25.152 104.523 25.776C105.723 26.4 106.647 27.156 107.295 28.044V25.164H111.435V54.432H107.295V42.12C106.647 43.008 105.711 43.764 104.487 44.388C103.263 45.012 101.871 45.324 100.311 45.324C98.6066 45.324 97.0466 44.892 95.6306 44.028C94.2386 43.14 93.1226 41.916 92.2826 40.356C91.4666 38.772 91.0586 36.984 91.0586 34.992ZM107.295 35.064C107.295 33.696 107.007 32.508 106.431 31.5C105.879 30.492 105.147 29.724 104.235 29.196C103.323 28.668 102.339 28.404 101.283 28.404C100.227 28.404 99.2426 28.668 98.3306 29.196C97.4186 29.7 96.6746 30.456 96.0986 31.464C95.5466 32.448 95.2706 33.624 95.2706 34.992C95.2706 36.36 95.5466 37.56 96.0986 38.592C96.6746 39.624 97.4186 40.416 98.3306 40.968C99.2666 41.496 100.251 41.76 101.283 41.76C102.339 41.76 103.323 41.496 104.235 40.968C105.147 40.44 105.879 39.672 106.431 38.664C107.007 37.632 107.295 36.432 107.295 35.064ZM134.789 25.164V45H130.685V42.66C130.037 43.476 129.185 44.124 128.129 44.604C127.097 45.06 125.993 45.288 124.817 45.288C123.257 45.288 121.853 44.964 120.605 44.316C119.381 43.668 118.409 42.708 117.689 41.436C116.993 40.164 116.645 38.628 116.645 36.828V25.164H120.713V36.216C120.713 37.992 121.157 39.36 122.045 40.32C122.933 41.256 124.145 41.724 125.681 41.724C127.217 41.724 128.429 41.256 129.317 40.32C130.229 39.36 130.685 37.992 130.685 36.216V25.164H134.789ZM158.384 34.596C158.384 35.34 158.336 36.012 158.24 36.612H143.084C143.204 38.196 143.792 39.468 144.848 40.428C145.904 41.388 147.2 41.868 148.736 41.868C150.944 41.868 152.504 40.944 153.416 39.096H157.844C157.244 40.92 156.152 42.42 154.568 43.596C153.008 44.748 151.064 45.324 148.736 45.324C146.84 45.324 145.136 44.904 143.624 44.064C142.136 43.2 140.96 42 140.096 40.464C139.256 38.904 138.836 37.104 138.836 35.064C138.836 33.024 139.244 31.236 140.06 29.7C140.9 28.14 142.064 26.94 143.552 26.1C145.064 25.26 146.792 24.84 148.736 24.84C150.608 24.84 152.276 25.248 153.74 26.064C155.204 26.88 156.344 28.032 157.16 29.52C157.976 30.984 158.384 32.676 158.384 34.596ZM154.1 33.3C154.076 31.788 153.536 30.576 152.48 29.664C151.424 28.752 150.116 28.296 148.556 28.296C147.14 28.296 145.928 28.752 144.92 29.664C143.912 30.552 143.312 31.764 143.12 33.3H154.1ZM180.846 51.696C178.494 49.44 176.682 46.572 175.41 43.092C174.162 39.612 173.538 35.88 173.538 31.896C173.538 27.816 174.21 23.964 175.554 20.34C176.922 16.716 178.926 13.728 181.566 11.376H185.814V11.772C183.054 14.316 180.978 17.364 179.586 20.916C178.194 24.468 177.498 28.128 177.498 31.896C177.498 35.52 178.146 39.024 179.442 42.408C180.738 45.792 182.622 48.756 185.094 51.3V51.696H180.846ZM215.845 19.98V45H211.741V27.864L204.109 45H201.265L193.597 27.864V45H189.493V19.98H193.921L202.705 39.6L211.453 19.98H215.845ZM239.203 25.164V45H235.099V42.66C234.451 43.476 233.599 44.124 232.543 44.604C231.511 45.06 230.407 45.288 229.231 45.288C227.671 45.288 226.267 44.964 225.019 44.316C223.795 43.668 222.823 42.708 222.103 41.436C221.407 40.164 221.059 38.628 221.059 36.828V25.164H225.127V36.216C225.127 37.992 225.571 39.36 226.459 40.32C227.347 41.256 228.559 41.724 230.095 41.724C231.631 41.724 232.843 41.256 233.731 40.32C234.643 39.36 235.099 37.992 235.099 36.216V25.164H239.203ZM248.722 18.36V45H244.618V18.36H248.722ZM258.898 28.512V39.492C258.898 40.236 259.066 40.776 259.402 41.112C259.762 41.424 260.362 41.58 261.202 41.58H263.722V45H260.482C258.634 45 257.218 44.568 256.234 43.704C255.25 42.84 254.758 41.436 254.758 39.492V28.512H252.418V25.164H254.758V20.232H258.898V25.164H263.722V28.512H258.898ZM269.593 22.536C268.849 22.536 268.225 22.284 267.721 21.78C267.217 21.276 266.965 20.652 266.965 19.908C266.965 19.164 267.217 18.54 267.721 18.036C268.225 17.532 268.849 17.28 269.593 17.28C270.313 17.28 270.925 17.532 271.429 18.036C271.933 18.54 272.185 19.164 272.185 19.908C272.185 20.652 271.933 21.276 271.429 21.78C270.925 22.284 270.313 22.536 269.593 22.536ZM271.609 25.164V45H267.505V25.164H271.609ZM281.101 28.08C281.797 27.168 282.745 26.4 283.945 25.776C285.145 25.152 286.501 24.84 288.013 24.84C289.741 24.84 291.313 25.272 292.729 26.136C294.169 26.976 295.297 28.164 296.113 29.7C296.929 31.236 297.337 33 297.337 34.992C297.337 36.984 296.929 38.772 296.113 40.356C295.297 41.916 294.169 43.14 292.729 44.028C291.313 44.892 289.741 45.324 288.013 45.324C286.501 45.324 285.157 45.024 283.981 44.424C282.805 43.8 281.845 43.032 281.101 42.12V54.432H276.997V25.164H281.101V28.08ZM293.161 34.992C293.161 33.624 292.873 32.448 292.297 31.464C291.745 30.456 291.001 29.7 290.065 29.196C289.153 28.668 288.169 28.404 287.113 28.404C286.081 28.404 285.097 28.668 284.161 29.196C283.249 29.724 282.505 30.492 281.929 31.5C281.377 32.508 281.101 33.696 281.101 35.064C281.101 36.432 281.377 37.632 281.929 38.664C282.505 39.672 283.249 40.44 284.161 40.968C285.097 41.496 286.081 41.76 287.113 41.76C288.169 41.76 289.153 41.496 290.065 40.968C291.001 40.416 291.745 39.624 292.297 38.592C292.873 37.56 293.161 36.36 293.161 34.992ZM305.499 18.36V45H301.395V18.36H305.499ZM329.068 34.596C329.068 35.34 329.02 36.012 328.924 36.612H313.768C313.888 38.196 314.476 39.468 315.532 40.428C316.588 41.388 317.884 41.868 319.42 41.868C321.628 41.868 323.188 40.944 324.1 39.096H328.527C327.928 40.92 326.836 42.42 325.252 43.596C323.692 44.748 321.748 45.324 319.42 45.324C317.524 45.324 315.82 44.904 314.308 44.064C312.82 43.2 311.644 42 310.78 40.464C309.94 38.904 309.52 37.104 309.52 35.064C309.52 33.024 309.928 31.236 310.744 29.7C311.584 28.14 312.748 26.94 314.236 26.1C315.748 25.26 317.476 24.84 319.42 24.84C321.292 24.84 322.96 25.248 324.424 26.064C325.888 26.88 327.028 28.032 327.844 29.52C328.66 30.984 329.068 32.676 329.068 34.596ZM324.784 33.3C324.76 31.788 324.22 30.576 323.164 29.664C322.108 28.752 320.8 28.296 319.24 28.296C317.824 28.296 316.612 28.752 315.604 29.664C314.596 30.552 313.996 31.764 313.804 33.3H324.784ZM350.702 45.252C349.022 45.252 347.51 44.964 346.166 44.388C344.822 43.788 343.766 42.948 342.998 41.868C342.23 40.788 341.846 39.528 341.846 38.088H346.238C346.334 39.168 346.754 40.056 347.498 40.752C348.266 41.448 349.334 41.796 350.702 41.796C352.118 41.796 353.222 41.46 354.014 40.788C354.806 40.092 355.202 39.204 355.202 38.124C355.202 37.284 354.95 36.6 354.446 36.072C353.966 35.544 353.354 35.136 352.61 34.848C351.89 34.56 350.882 34.248 349.586 33.912C347.954 33.48 346.622 33.048 345.59 32.616C344.582 32.16 343.718 31.464 342.998 30.528C342.278 29.592 341.918 28.344 341.918 26.784C341.918 25.344 342.278 24.084 342.998 23.004C343.718 21.924 344.726 21.096 346.022 20.52C347.318 19.944 348.818 19.656 350.522 19.656C352.946 19.656 354.926 20.268 356.462 21.492C358.022 22.692 358.886 24.348 359.054 26.46H354.518C354.446 25.548 354.014 24.768 353.222 24.12C352.43 23.472 351.386 23.148 350.09 23.148C348.914 23.148 347.954 23.448 347.21 24.048C346.466 24.648 346.094 25.512 346.094 26.64C346.094 27.408 346.322 28.044 346.778 28.548C347.258 29.028 347.858 29.412 348.578 29.7C349.298 29.988 350.282 30.3 351.53 30.636C353.186 31.092 354.53 31.548 355.562 32.004C356.618 32.46 357.506 33.168 358.226 34.128C358.97 35.064 359.342 36.324 359.342 37.908C359.342 39.18 358.994 40.38 358.298 41.508C357.626 42.636 356.63 43.548 355.31 44.244C354.014 44.916 352.478 45.252 350.702 45.252ZM366.272 22.536C365.528 22.536 364.904 22.284 364.4 21.78C363.896 21.276 363.644 20.652 363.644 19.908C363.644 19.164 363.896 18.54 364.4 18.036C364.904 17.532 365.528 17.28 366.272 17.28C366.992 17.28 367.604 17.532 368.108 18.036C368.612 18.54 368.864 19.164 368.864 19.908C368.864 20.652 368.612 21.276 368.108 21.78C367.604 22.284 366.992 22.536 366.272 22.536ZM368.288 25.164V45H364.184V25.164H368.288ZM377.313 41.652H386.313V45H372.561V41.652L381.597 28.512H372.561V25.164H386.313V28.512L377.313 41.652ZM408.802 34.596C408.802 35.34 408.754 36.012 408.658 36.612H393.502C393.622 38.196 394.21 39.468 395.266 40.428C396.322 41.388 397.618 41.868 399.154 41.868C401.362 41.868 402.922 40.944 403.834 39.096H408.262C407.662 40.92 406.57 42.42 404.986 43.596C403.426 44.748 401.482 45.324 399.154 45.324C397.258 45.324 395.554 44.904 394.042 44.064C392.554 43.2 391.378 42 390.514 40.464C389.674 38.904 389.254 37.104 389.254 35.064C389.254 33.024 389.662 31.236 390.478 29.7C391.318 28.14 392.482 26.94 393.97 26.1C395.482 25.26 397.21 24.84 399.154 24.84C401.026 24.84 402.694 25.248 404.158 26.064C405.622 26.88 406.762 28.032 407.578 29.52C408.394 30.984 408.802 32.676 408.802 34.596ZM404.518 33.3C404.494 31.788 403.954 30.576 402.898 29.664C401.842 28.752 400.534 28.296 398.974 28.296C397.558 28.296 396.346 28.752 395.338 29.664C394.33 30.552 393.73 31.764 393.538 33.3H404.518ZM420.041 45.324C418.481 45.324 417.077 45.048 415.829 44.496C414.605 43.92 413.633 43.152 412.913 42.192C412.193 41.208 411.809 40.116 411.761 38.916H416.009C416.081 39.756 416.477 40.464 417.197 41.04C417.941 41.592 418.865 41.868 419.969 41.868C421.121 41.868 422.009 41.652 422.633 41.22C423.281 40.764 423.605 40.188 423.605 39.492C423.605 38.748 423.245 38.196 422.525 37.836C421.829 37.476 420.713 37.08 419.177 36.648C417.689 36.24 416.477 35.844 415.541 35.46C414.605 35.076 413.789 34.488 413.093 33.696C412.421 32.904 412.085 31.86 412.085 30.564C412.085 29.508 412.397 28.548 413.021 27.684C413.645 26.796 414.533 26.1 415.685 25.596C416.861 25.092 418.205 24.84 419.717 24.84C421.973 24.84 423.785 25.416 425.153 26.568C426.545 27.696 427.289 29.244 427.385 31.212H423.281C423.209 30.324 422.849 29.616 422.201 29.088C421.553 28.56 420.677 28.296 419.573 28.296C418.493 28.296 417.665 28.5 417.089 28.908C416.513 29.316 416.225 29.856 416.225 30.528C416.225 31.056 416.417 31.5 416.801 31.86C417.185 32.22 417.653 32.508 418.205 32.724C418.757 32.916 419.573 33.168 420.653 33.48C422.093 33.864 423.269 34.26 424.181 34.668C425.117 35.052 425.921 35.628 426.593 36.396C427.265 37.164 427.613 38.184 427.637 39.456C427.637 40.584 427.325 41.592 426.701 42.48C426.077 43.368 425.189 44.064 424.037 44.568C422.909 45.072 421.577 45.324 420.041 45.324ZM431.063 51.696V51.3C433.535 48.756 435.419 45.792 436.715 42.408C438.011 39.024 438.659 35.52 438.659 31.896C438.659 28.128 437.963 24.468 436.571 20.916C435.179 17.364 433.103 14.316 430.343 11.772V11.376H434.591C437.231 13.728 439.223 16.716 440.567 20.34C441.935 23.964 442.619 27.816 442.619 31.896C442.619 35.88 441.983 39.612 440.711 43.092C439.463 46.572 437.663 49.44 435.311 51.696H431.063Z" fill="#5E5E5E"/>
</svg>
