<svg width="356" height="64" viewBox="0 0 356 64" fill="none" xmlns="http://www.w3.org/2000/svg">
<rect width="356" height="64" rx="32" fill="#C4C4C4"/>
<path d="M47.696 45L41.936 34.992H38.804V45H34.7V19.98H43.34C45.26 19.98 46.88 20.316 48.2 20.988C49.544 21.66 50.54 22.56 51.188 23.688C51.86 24.816 52.196 26.076 52.196 27.468C52.196 29.1 51.716 30.588 50.756 31.932C49.82 33.252 48.368 34.152 46.4 34.632L52.592 45H47.696ZM38.804 31.716H43.34C44.876 31.716 46.028 31.332 46.796 30.564C47.588 29.796 47.984 28.764 47.984 27.468C47.984 26.172 47.6 25.164 46.832 24.444C46.064 23.7 44.9 23.328 43.34 23.328H38.804V31.716ZM75.6261 34.596C75.6261 35.34 75.5781 36.012 75.4821 36.612H60.3261C60.4461 38.196 61.0341 39.468 62.0901 40.428C63.1461 41.388 64.4421 41.868 65.9781 41.868C68.1861 41.868 69.7461 40.944 70.6581 39.096H75.0861C74.4861 40.92 73.3941 42.42 71.8101 43.596C70.2501 44.748 68.3061 45.324 65.9781 45.324C64.0821 45.324 62.3781 44.904 60.8661 44.064C59.3781 43.2 58.2021 42 57.3381 40.464C56.4981 38.904 56.0781 37.104 56.0781 35.064C56.0781 33.024 56.4861 31.236 57.3021 29.7C58.1421 28.14 59.3061 26.94 60.7941 26.1C62.3061 25.26 64.0341 24.84 65.9781 24.84C67.8501 24.84 69.5181 25.248 70.9821 26.064C72.4461 26.88 73.5861 28.032 74.4021 29.52C75.2181 30.984 75.6261 32.676 75.6261 34.596ZM71.3421 33.3C71.3181 31.788 70.7781 30.576 69.7221 29.664C68.6661 28.752 67.3581 28.296 65.7981 28.296C64.3821 28.296 63.1701 28.752 62.1621 29.664C61.1541 30.552 60.5541 31.764 60.3621 33.3H71.3421ZM87.6568 24.84C89.1928 24.84 90.5488 25.152 91.7248 25.776C92.9248 26.376 93.8608 27.132 94.5328 28.044V25.164H98.6728V45.324C98.6728 47.148 98.2888 48.768 97.5208 50.184C96.7528 51.624 95.6368 52.752 94.1728 53.568C92.7328 54.384 91.0048 54.792 88.9888 54.792C86.3008 54.792 84.0688 54.156 82.2928 52.884C80.5168 51.636 79.5088 49.932 79.2688 47.772H83.3368C83.6488 48.804 84.3088 49.632 85.3168 50.256C86.3488 50.904 87.5728 51.228 88.9888 51.228C90.6448 51.228 91.9768 50.724 92.9848 49.716C94.0168 48.708 94.5328 47.244 94.5328 45.324V42.012C93.8368 42.948 92.8888 43.74 91.6888 44.388C90.5128 45.012 89.1688 45.324 87.6568 45.324C85.9288 45.324 84.3448 44.892 82.9048 44.028C81.4888 43.14 80.3608 41.916 79.5208 40.356C78.7048 38.772 78.2968 36.984 78.2968 34.992C78.2968 33 78.7048 31.236 79.5208 29.7C80.3608 28.164 81.4888 26.976 82.9048 26.136C84.3448 25.272 85.9288 24.84 87.6568 24.84ZM94.5328 35.064C94.5328 33.696 94.2448 32.508 93.6688 31.5C93.1168 30.492 92.3848 29.724 91.4728 29.196C90.5608 28.668 89.5768 28.404 88.5208 28.404C87.4648 28.404 86.4808 28.668 85.5688 29.196C84.6568 29.7 83.9128 30.456 83.3368 31.464C82.7848 32.448 82.5088 33.624 82.5088 34.992C82.5088 36.36 82.7848 37.56 83.3368 38.592C83.9128 39.624 84.6568 40.416 85.5688 40.968C86.5048 41.496 87.4888 41.76 88.5208 41.76C89.5768 41.76 90.5608 41.496 91.4728 40.968C92.3848 40.44 93.1168 39.672 93.6688 38.664C94.2448 37.632 94.5328 36.432 94.5328 35.064ZM122.027 25.164V45H117.923V42.66C117.275 43.476 116.423 44.124 115.367 44.604C114.335 45.06 113.231 45.288 112.055 45.288C110.495 45.288 109.091 44.964 107.843 44.316C106.619 43.668 105.647 42.708 104.927 41.436C104.231 40.164 103.883 38.628 103.883 36.828V25.164H107.951V36.216C107.951 37.992 108.395 39.36 109.283 40.32C110.171 41.256 111.383 41.724 112.919 41.724C114.455 41.724 115.667 41.256 116.555 40.32C117.467 39.36 117.923 37.992 117.923 36.216V25.164H122.027ZM131.546 18.36V45H127.442V18.36H131.546ZM135.566 34.992C135.566 33 135.974 31.236 136.79 29.7C137.63 28.164 138.758 26.976 140.174 26.136C141.614 25.272 143.198 24.84 144.926 24.84C146.486 24.84 147.842 25.152 148.994 25.776C150.17 26.376 151.106 27.132 151.802 28.044V25.164H155.942V45H151.802V42.048C151.106 42.984 150.158 43.764 148.958 44.388C147.758 45.012 146.39 45.324 144.854 45.324C143.15 45.324 141.59 44.892 140.174 44.028C138.758 43.14 137.63 41.916 136.79 40.356C135.974 38.772 135.566 36.984 135.566 34.992ZM151.802 35.064C151.802 33.696 151.514 32.508 150.938 31.5C150.386 30.492 149.654 29.724 148.742 29.196C147.83 28.668 146.846 28.404 145.79 28.404C144.734 28.404 143.75 28.668 142.838 29.196C141.926 29.7 141.182 30.456 140.606 31.464C140.054 32.448 139.778 33.624 139.778 34.992C139.778 36.36 140.054 37.56 140.606 38.592C141.182 39.624 141.926 40.416 142.838 40.968C143.774 41.496 144.758 41.76 145.79 41.76C146.846 41.76 147.83 41.496 148.742 40.968C149.654 40.44 150.386 39.672 150.938 38.664C151.514 37.632 151.802 36.432 151.802 35.064ZM165.437 28.044C166.037 27.036 166.829 26.256 167.813 25.704C168.821 25.128 170.009 24.84 171.377 24.84V29.088H170.333C168.725 29.088 167.501 29.496 166.661 30.312C165.845 31.128 165.437 32.544 165.437 34.56V45H161.333V25.164H165.437V28.044ZM193.573 51.696C191.221 49.44 189.409 46.572 188.137 43.092C186.889 39.612 186.265 35.88 186.265 31.896C186.265 27.816 186.937 23.964 188.281 20.34C189.649 16.716 191.653 13.728 194.293 11.376H198.541V11.772C195.781 14.316 193.705 17.364 192.313 20.916C190.921 24.468 190.225 28.128 190.225 31.896C190.225 35.52 190.873 39.024 192.169 42.408C193.465 45.792 195.349 48.756 197.821 51.3V51.696H193.573ZM203.948 39.42C206.252 37.428 208.064 35.796 209.384 34.524C210.728 33.228 211.844 31.884 212.732 30.492C213.62 29.1 214.064 27.708 214.064 26.316C214.064 24.876 213.716 23.748 213.02 22.932C212.348 22.116 211.28 21.708 209.816 21.708C208.4 21.708 207.296 22.164 206.504 23.076C205.736 23.964 205.328 25.164 205.28 26.676H201.32C201.392 23.94 202.208 21.852 203.768 20.412C205.352 18.948 207.356 18.216 209.78 18.216C212.396 18.216 214.436 18.936 215.9 20.376C217.388 21.816 218.132 23.736 218.132 26.136C218.132 27.864 217.688 29.532 216.8 31.14C215.936 32.724 214.892 34.152 213.668 35.424C212.468 36.672 210.932 38.124 209.06 39.78L207.44 41.22H218.852V44.64H201.356V41.652L203.948 39.42ZM221.953 39.528V36.432L234.049 19.08H239.017V35.964H242.365V39.528H239.017V45H234.985V39.528H221.953ZM235.165 23.256L226.669 35.964H235.165V23.256ZM254.801 34.956L261.209 45H256.565L252.281 38.268L248.249 45H243.965L250.373 35.244L243.965 25.164H248.609L252.893 31.896L256.925 25.164H261.209L254.801 34.956ZM265.998 39.42C268.302 37.428 270.114 35.796 271.434 34.524C272.778 33.228 273.894 31.884 274.782 30.492C275.67 29.1 276.114 27.708 276.114 26.316C276.114 24.876 275.766 23.748 275.07 22.932C274.398 22.116 273.33 21.708 271.866 21.708C270.45 21.708 269.346 22.164 268.554 23.076C267.786 23.964 267.378 25.164 267.33 26.676H263.37C263.442 23.94 264.258 21.852 265.818 20.412C267.402 18.948 269.406 18.216 271.83 18.216C274.446 18.216 276.486 18.936 277.95 20.376C279.438 21.816 280.182 23.736 280.182 26.136C280.182 27.864 279.738 29.532 278.85 31.14C277.986 32.724 276.942 34.152 275.718 35.424C274.518 36.672 272.982 38.124 271.11 39.78L269.49 41.22H280.902V44.64H263.406V41.652L265.998 39.42ZM284.004 39.528V36.432L296.1 19.08H301.068V35.964H304.416V39.528H301.068V45H297.036V39.528H284.004ZM297.216 23.256L288.72 35.964H297.216V23.256ZM307.348 51.696V51.3C309.82 48.756 311.704 45.792 313 42.408C314.296 39.024 314.944 35.52 314.944 31.896C314.944 28.128 314.248 24.468 312.856 20.916C311.464 17.364 309.388 14.316 306.628 11.772V11.376H310.876C313.516 13.728 315.508 16.716 316.852 20.34C318.22 23.964 318.904 27.816 318.904 31.896C318.904 35.88 318.268 39.612 316.996 43.092C315.748 46.572 313.948 49.44 311.596 51.696H307.348Z" fill="#5E5E5E"/>
</svg>
