<svg width="317" height="64" viewBox="0 0 317 64" fill="none" xmlns="http://www.w3.org/2000/svg">
<rect width="317" height="64" rx="32" fill="#C4C4C4"/>
<path d="M38.804 41.688H47.264V45H34.7V19.98H38.804V41.688ZM49.3281 34.992C49.3281 33 49.7361 31.236 50.5521 29.7C51.3921 28.164 52.5201 26.976 53.9361 26.136C55.3761 25.272 56.9601 24.84 58.6881 24.84C60.2481 24.84 61.6041 25.152 62.7561 25.776C63.9321 26.376 64.8681 27.132 65.5641 28.044V25.164H69.7041V45H65.5641V42.048C64.8681 42.984 63.9201 43.764 62.7201 44.388C61.5201 45.012 60.1521 45.324 58.6161 45.324C56.9121 45.324 55.3521 44.892 53.9361 44.028C52.5201 43.14 51.3921 41.916 50.5521 40.356C49.7361 38.772 49.3281 36.984 49.3281 34.992ZM65.5641 35.064C65.5641 33.696 65.2761 32.508 64.7001 31.5C64.1481 30.492 63.4161 29.724 62.5041 29.196C61.5921 28.668 60.6081 28.404 59.5521 28.404C58.4961 28.404 57.5121 28.668 56.6001 29.196C55.6881 29.7 54.9441 30.456 54.3681 31.464C53.8161 32.448 53.5401 33.624 53.5401 34.992C53.5401 36.36 53.8161 37.56 54.3681 38.592C54.9441 39.624 55.6881 40.416 56.6001 40.968C57.5361 41.496 58.5201 41.76 59.5521 41.76C60.6081 41.76 61.5921 41.496 62.5041 40.968C63.4161 40.44 64.1481 39.672 64.7001 38.664C65.2761 37.632 65.5641 36.432 65.5641 35.064ZM79.1985 28.044C79.7985 27.036 80.5905 26.256 81.5745 25.704C82.5825 25.128 83.7705 24.84 85.1385 24.84V29.088H84.0945C82.4865 29.088 81.2625 29.496 80.4225 30.312C79.6065 31.128 79.1985 32.544 79.1985 34.56V45H75.0945V25.164H79.1985V28.044ZM96.9029 24.84C98.4389 24.84 99.7949 25.152 100.971 25.776C102.171 26.376 103.107 27.132 103.779 28.044V25.164H107.919V45.324C107.919 47.148 107.535 48.768 106.767 50.184C105.999 51.624 104.883 52.752 103.419 53.568C101.979 54.384 100.251 54.792 98.2349 54.792C95.5469 54.792 93.3149 54.156 91.5389 52.884C89.7629 51.636 88.7549 49.932 88.5149 47.772H92.5829C92.8949 48.804 93.5549 49.632 94.5629 50.256C95.5949 50.904 96.8189 51.228 98.2349 51.228C99.8909 51.228 101.223 50.724 102.231 49.716C103.263 48.708 103.779 47.244 103.779 45.324V42.012C103.083 42.948 102.135 43.74 100.935 44.388C99.7589 45.012 98.4149 45.324 96.9029 45.324C95.1749 45.324 93.5909 44.892 92.1509 44.028C90.7349 43.14 89.6069 41.916 88.7669 40.356C87.9509 38.772 87.5429 36.984 87.5429 34.992C87.5429 33 87.9509 31.236 88.7669 29.7C89.6069 28.164 90.7349 26.976 92.1509 26.136C93.5909 25.272 95.1749 24.84 96.9029 24.84ZM103.779 35.064C103.779 33.696 103.491 32.508 102.915 31.5C102.363 30.492 101.631 29.724 100.719 29.196C99.8069 28.668 98.8229 28.404 97.7669 28.404C96.7109 28.404 95.7269 28.668 94.8149 29.196C93.9029 29.7 93.1589 30.456 92.5829 31.464C92.0309 32.448 91.7549 33.624 91.7549 34.992C91.7549 36.36 92.0309 37.56 92.5829 38.592C93.1589 39.624 93.9029 40.416 94.8149 40.968C95.7509 41.496 96.7349 41.76 97.7669 41.76C98.8229 41.76 99.8069 41.496 100.719 40.968C101.631 40.44 102.363 39.672 102.915 38.664C103.491 37.632 103.779 36.432 103.779 35.064ZM131.489 34.596C131.489 35.34 131.441 36.012 131.345 36.612H116.189C116.309 38.196 116.897 39.468 117.953 40.428C119.009 41.388 120.305 41.868 121.841 41.868C124.049 41.868 125.609 40.944 126.521 39.096H130.949C130.349 40.92 129.257 42.42 127.673 43.596C126.113 44.748 124.169 45.324 121.841 45.324C119.945 45.324 118.241 44.904 116.729 44.064C115.241 43.2 114.065 42 113.201 40.464C112.361 38.904 111.941 37.104 111.941 35.064C111.941 33.024 112.349 31.236 113.165 29.7C114.005 28.14 115.169 26.94 116.657 26.1C118.169 25.26 119.897 24.84 121.841 24.84C123.713 24.84 125.381 25.248 126.845 26.064C128.309 26.88 129.449 28.032 130.265 29.52C131.081 30.984 131.489 32.676 131.489 34.596ZM127.205 33.3C127.181 31.788 126.641 30.576 125.585 29.664C124.529 28.752 123.221 28.296 121.661 28.296C120.245 28.296 119.033 28.752 118.025 29.664C117.017 30.552 116.417 31.764 116.225 33.3H127.205ZM153.952 51.696C151.6 49.44 149.788 46.572 148.516 43.092C147.268 39.612 146.644 35.88 146.644 31.896C146.644 27.816 147.316 23.964 148.66 20.34C150.028 16.716 152.032 13.728 154.672 11.376H158.92V11.772C156.16 14.316 154.084 17.364 152.692 20.916C151.3 24.468 150.604 28.128 150.604 31.896C150.604 35.52 151.252 39.024 152.548 42.408C153.844 45.792 155.728 48.756 158.2 51.3V51.696H153.952ZM161.986 25.236C162.13 23.004 162.982 21.264 164.542 20.016C166.126 18.768 168.142 18.144 170.59 18.144C172.27 18.144 173.722 18.444 174.946 19.044C176.17 19.644 177.094 20.46 177.718 21.492C178.342 22.524 178.654 23.688 178.654 24.984C178.654 26.472 178.258 27.744 177.466 28.8C176.674 29.856 175.726 30.564 174.622 30.924V31.068C176.038 31.5 177.142 32.292 177.934 33.444C178.726 34.572 179.122 36.024 179.122 37.8C179.122 39.216 178.798 40.476 178.15 41.58C177.502 42.684 176.542 43.56 175.27 44.208C173.998 44.832 172.474 45.144 170.698 45.144C168.106 45.144 165.97 44.484 164.29 43.164C162.634 41.82 161.746 39.9 161.626 37.404H165.586C165.682 38.676 166.174 39.72 167.062 40.536C167.95 41.328 169.15 41.724 170.662 41.724C172.126 41.724 173.254 41.328 174.046 40.536C174.838 39.72 175.234 38.676 175.234 37.404C175.234 35.724 174.694 34.536 173.614 33.84C172.558 33.12 170.926 32.76 168.718 32.76H167.782V29.376H168.754C170.698 29.352 172.174 29.028 173.182 28.404C174.214 27.78 174.73 26.796 174.73 25.452C174.73 24.3 174.358 23.388 173.614 22.716C172.87 22.02 171.814 21.672 170.446 21.672C169.102 21.672 168.058 22.02 167.314 22.716C166.57 23.388 166.126 24.228 165.982 25.236H161.986ZM197.545 24.84C197.281 23.736 196.801 22.908 196.105 22.356C195.409 21.804 194.437 21.528 193.189 21.528C191.293 21.528 189.877 22.26 188.941 23.724C188.005 25.164 187.513 27.564 187.465 30.924C188.089 29.868 189.001 29.052 190.201 28.476C191.401 27.9 192.697 27.612 194.089 27.612C195.673 27.612 197.065 27.96 198.265 28.656C199.489 29.328 200.437 30.312 201.109 31.608C201.805 32.904 202.153 34.452 202.153 36.252C202.153 37.932 201.817 39.432 201.145 40.752C200.497 42.072 199.525 43.116 198.229 43.884C196.933 44.628 195.373 45 193.549 45C191.077 45 189.133 44.46 187.717 43.38C186.325 42.276 185.341 40.728 184.765 38.736C184.213 36.744 183.937 34.26 183.937 31.284C183.937 22.5 187.033 18.108 193.225 18.108C195.625 18.108 197.509 18.756 198.877 20.052C200.269 21.348 201.085 22.944 201.325 24.84H197.545ZM193.189 31.068C191.725 31.068 190.477 31.512 189.445 32.4C188.437 33.264 187.933 34.524 187.933 36.18C187.933 37.836 188.401 39.156 189.337 40.14C190.297 41.1 191.629 41.58 193.333 41.58C194.845 41.58 196.033 41.112 196.897 40.176C197.785 39.24 198.229 37.992 198.229 36.432C198.229 34.8 197.797 33.504 196.933 32.544C196.093 31.56 194.845 31.068 193.189 31.068ZM215.567 34.956L221.975 45H217.331L213.047 38.268L209.015 45H204.731L211.139 35.244L204.731 25.164H209.375L213.659 31.896L217.691 25.164H221.975L215.567 34.956ZM224.424 25.236C224.568 23.004 225.42 21.264 226.98 20.016C228.564 18.768 230.58 18.144 233.028 18.144C234.708 18.144 236.16 18.444 237.384 19.044C238.608 19.644 239.532 20.46 240.156 21.492C240.78 22.524 241.092 23.688 241.092 24.984C241.092 26.472 240.696 27.744 239.904 28.8C239.112 29.856 238.164 30.564 237.06 30.924V31.068C238.476 31.5 239.58 32.292 240.372 33.444C241.164 34.572 241.56 36.024 241.56 37.8C241.56 39.216 241.236 40.476 240.588 41.58C239.94 42.684 238.98 43.56 237.708 44.208C236.436 44.832 234.912 45.144 233.136 45.144C230.544 45.144 228.408 44.484 226.728 43.164C225.072 41.82 224.184 39.9 224.064 37.404H228.024C228.12 38.676 228.612 39.72 229.5 40.536C230.388 41.328 231.588 41.724 233.1 41.724C234.564 41.724 235.692 41.328 236.484 40.536C237.276 39.72 237.672 38.676 237.672 37.404C237.672 35.724 237.132 34.536 236.052 33.84C234.996 33.12 233.364 32.76 231.156 32.76H230.22V29.376H231.192C233.136 29.352 234.612 29.028 235.62 28.404C236.652 27.78 237.168 26.796 237.168 25.452C237.168 24.3 236.796 23.388 236.052 22.716C235.308 22.02 234.252 21.672 232.884 21.672C231.54 21.672 230.496 22.02 229.752 22.716C229.008 23.388 228.564 24.228 228.42 25.236H224.424ZM259.983 24.84C259.719 23.736 259.239 22.908 258.543 22.356C257.847 21.804 256.875 21.528 255.627 21.528C253.731 21.528 252.315 22.26 251.379 23.724C250.443 25.164 249.951 27.564 249.903 30.924C250.527 29.868 251.439 29.052 252.639 28.476C253.839 27.9 255.135 27.612 256.527 27.612C258.111 27.612 259.503 27.96 260.703 28.656C261.927 29.328 262.875 30.312 263.547 31.608C264.243 32.904 264.591 34.452 264.591 36.252C264.591 37.932 264.255 39.432 263.583 40.752C262.935 42.072 261.963 43.116 260.667 43.884C259.371 44.628 257.811 45 255.987 45C253.515 45 251.571 44.46 250.155 43.38C248.763 42.276 247.779 40.728 247.203 38.736C246.651 36.744 246.375 34.26 246.375 31.284C246.375 22.5 249.471 18.108 255.663 18.108C258.063 18.108 259.947 18.756 261.315 20.052C262.707 21.348 263.523 22.944 263.763 24.84H259.983ZM255.627 31.068C254.163 31.068 252.915 31.512 251.883 32.4C250.875 33.264 250.371 34.524 250.371 36.18C250.371 37.836 250.839 39.156 251.775 40.14C252.735 41.1 254.067 41.58 255.771 41.58C257.283 41.58 258.471 41.112 259.335 40.176C260.223 39.24 260.667 37.992 260.667 36.432C260.667 34.8 260.235 33.504 259.371 32.544C258.531 31.56 257.283 31.068 255.627 31.068ZM268.501 51.696V51.3C270.973 48.756 272.857 45.792 274.153 42.408C275.449 39.024 276.097 35.52 276.097 31.896C276.097 28.128 275.401 24.468 274.009 20.916C272.617 17.364 270.541 14.316 267.781 11.772V11.376H272.029C274.669 13.728 276.661 16.716 278.005 20.34C279.373 23.964 280.057 27.816 280.057 31.896C280.057 35.88 279.421 39.612 278.149 43.092C276.901 46.572 275.101 49.44 272.749 51.696H268.501Z" fill="#5E5E5E"/>
</svg>
