<svg width="22" height="22" viewBox="0 0 22 22" fill="none" xmlns="http://www.w3.org/2000/svg">
<path d="M2 4L2.54415 2.36754C2.81638 1.55086 3.58066 1 4.44152 1H17.5585C18.4193 1 19.1836 1.55086 19.4558 2.36754L20 4M2 4H5M2 4L1.24254 7.02986C1.11934 7.52264 1.49205 8 2 8V8M20 4L20.7575 7.02986C20.8807 7.52264 20.508 8 20 8V8M20 4H17M17 7V4M17 7L16.5858 7.41421C16.2107 7.78929 15.702 8 15.1716 8H14.8284C14.298 8 13.7893 7.78929 13.4142 7.41421L13 7M17 7L17.4142 7.41421C17.7893 7.78929 18.298 8 18.8284 8H20M17 4H13M13 7V4M13 7L12.5858 7.41421C12.2107 7.78929 11.702 8 11.1716 8H10.8284C10.298 8 9.78929 7.78929 9.41421 7.41421L9 7M13 4H9M9 7V4M9 7L8.58579 7.41421C8.21071 7.78929 7.70201 8 7.17157 8H6.82843C6.29799 8 5.78929 7.78929 5.41421 7.41421L5 7M9 4H5M5 7V4M5 7L4.58579 7.41421C4.21071 7.78929 3.70201 8 3.17157 8H2M2 8C2 10 2 16.1667 2 17M2 17L1 18M2 17H8C8.55228 17 9 17.4477 9 18V18M1 18H9M1 18V19C1 20.1046 1.89543 21 3 21H9M9 18V21M9 21H12M20 8V19C20 20.1046 19.1046 21 18 21H17M12 21V13C12 11.8954 12.8954 11 14 11H15C16.1046 11 17 11.8954 17 13V21M12 21H17M6.5 14H7.5C8.32843 14 9 13.3284 9 12.5V12.5C9 11.6716 8.32843 11 7.5 11H6.5C5.67157 11 5 11.6716 5 12.5V12.5C5 13.3284 5.67157 14 6.5 14Z" stroke="black" stroke-width="2" stroke-linecap="round"/>
</svg>
