<svg width="36" height="36" viewBox="0 0 36 36" fill="none" xmlns="http://www.w3.org/2000/svg">
<path d="M7.5 19.5V30C7.5 31.6569 8.84315 33 10.5 33H12.75C13.5784 33 14.25 32.3284 14.25 31.5V21.75C14.25 19.6789 15.9289 18 18 18C20.0711 18 21.75 19.6789 21.75 21.75V31.5C21.75 32.3284 22.4216 33 23.25 33H25.5C27.1569 33 28.5 31.6569 28.5 30V19.5C28.5 18.6716 29.1716 18 30 18H30.9297C32.0731 18 33 17.0731 33 15.9297C33 15.3383 32.7471 14.7752 32.3051 14.3823L20.6211 3.99655C19.8989 3.3546 18.9663 3 18 3C17.0337 3 16.1011 3.3546 15.3789 3.99655L3.69487 14.3823C3.25288 14.7752 3 15.3383 3 15.9297C3 17.0731 3.9269 18 5.0703 18H6C6.82843 18 7.5 18.6716 7.5 19.5Z" fill="#1F1F1F" stroke="#1F1F1F" stroke-width="2.5" stroke-linecap="round" stroke-linejoin="round"/>
</svg>
