<svg width="36" height="36" viewBox="0 0 36 36" fill="none" xmlns="http://www.w3.org/2000/svg">
<path d="M28.702 8.23135C27.9845 8.64556 27.7387 9.56295 28.1529 10.2804C28.5672 10.9978 29.4845 11.2436 30.202 10.8294L28.702 8.23135ZM32.8001 9.32942C33.5175 8.91521 33.7633 7.99783 33.3491 7.28039C32.9349 6.56295 32.0175 6.31713 31.3001 6.73135L32.8001 9.32942ZM30.3767 11.6834C29.5651 11.8495 29.0418 12.6421 29.2079 13.4537C29.374 14.2653 30.1666 14.7886 30.9782 14.6225L30.3767 11.6834ZM33.3017 14.147C34.1133 13.981 34.6367 13.1884 34.4706 12.3768C34.3045 11.5652 33.5119 11.0419 32.7003 11.208L33.3017 14.147ZM25.8052 5.66259C25.2555 6.28242 25.3124 7.23046 25.9323 7.7801C26.5521 8.32973 27.5001 8.27283 28.0498 7.653L25.8052 5.66259ZM29.6233 5.87848C30.173 5.25865 30.1161 4.3106 29.4962 3.76097C28.8764 3.21133 27.9284 3.26824 27.3787 3.88807L29.6233 5.87848ZM15.6358 22.2899L16.3858 23.589L16.3858 23.589L15.6358 22.2899ZM5.26751 17.3368L4.51751 16.0378L5.26751 17.3368ZM4.92115 19.0853L3.80279 18.0857H3.80279L4.92115 19.0853ZM3.30573 20.8926L2.18737 19.893L2.18737 19.893L3.30573 20.8926ZM3.15686 22.2758L4.4559 21.5258H4.4559L3.15686 22.2758ZM4.67175 24.8997L3.37271 25.6497L3.37271 25.6497L4.67175 24.8997ZM5.94407 25.4623L6.25059 26.9307H6.25059L5.94407 25.4623ZM7.96276 25.0409L7.65623 23.5726H7.65623L7.96276 25.0409ZM9.23508 25.6036L7.93604 26.3536L9.23508 25.6036ZM14.5844 32.4688L13.8344 31.1698H13.8344L14.5844 32.4688ZM16.6628 31.2688L17.4128 32.5679C17.7574 32.369 18.0088 32.0413 18.1117 31.6571C18.2147 31.2728 18.1608 30.8634 17.9619 30.5188L16.6628 31.2688ZM5.00767 18.2815L6.30671 17.5315V17.5315L5.00767 18.2815ZM30.202 10.8294L32.8001 9.32942L31.3001 6.73135L28.702 8.23135L30.202 10.8294ZM30.9782 14.6225L33.3017 14.147L32.7003 11.208L30.3767 11.6834L30.9782 14.6225ZM28.0498 7.653L29.6233 5.87848L27.3787 3.88807L25.8052 5.66259L28.0498 7.653ZM23.6959 12.8505C25.045 15.1871 26.0151 17.3915 26.5074 19.0443C26.7571 19.8823 26.8591 20.4972 26.863 20.881C26.8684 21.4046 26.7132 20.9994 27.1994 20.7187L28.6994 23.3168C29.7596 22.7047 29.8695 21.496 29.8628 20.8502C29.8548 20.0647 29.6676 19.1444 29.3826 18.1877C28.8056 16.2511 27.7246 13.8283 26.294 11.3505L23.6959 12.8505ZM27.1994 20.7187C27.6857 20.438 27.9589 20.775 27.5082 20.5085C27.1777 20.3132 26.6962 19.9174 26.0953 19.2822C24.9102 18.0294 23.4861 16.0871 22.1371 13.7505L19.539 15.2505C20.9696 17.7283 22.5273 19.8759 23.9159 21.3439C24.6019 22.069 25.3053 22.6913 25.9815 23.091C26.5375 23.4197 27.6392 23.9289 28.6994 23.3168L27.1994 20.7187ZM22.1371 13.7505C20.7881 11.4139 19.8179 9.20949 19.3256 7.55675C19.0759 6.71871 18.974 6.10385 18.97 5.71998C18.9646 5.19643 19.1199 5.60157 18.6336 5.88231L17.1336 3.28423C16.0734 3.89634 15.9635 5.10502 15.9702 5.75084C15.9783 6.53634 16.1655 7.45666 16.4505 8.41328C17.0274 10.3499 18.1084 12.7727 19.539 15.2505L22.1371 13.7505ZM18.6336 5.88231C18.1474 6.16305 17.8741 5.82604 18.3248 6.09248C18.6553 6.28783 19.1368 6.68356 19.7377 7.3188C20.9229 8.57156 22.3469 10.5139 23.6959 12.8505L26.294 11.3505C24.8634 8.87268 23.3058 6.72506 21.9171 5.25713C21.2311 4.53201 20.5277 3.90971 19.8515 3.50997C19.2955 3.1813 18.1938 2.67212 17.1336 3.28423L18.6336 5.88231ZM27.1994 20.7187C27.2018 20.7173 27.1229 20.7613 26.8797 20.7799C26.6404 20.7982 26.3215 20.7864 25.9031 20.7387C25.022 20.6382 24.0661 20.4315 22.8179 20.2241C20.5321 19.8444 17.4742 19.4965 14.8858 20.9909L16.3858 23.589C17.9543 22.6834 20.014 22.7994 22.3262 23.1836C23.377 23.3581 24.5901 23.6084 25.5632 23.7194C26.4884 23.8249 27.7132 23.8862 28.6994 23.3168L27.1994 20.7187ZM17.1336 3.28423C16.2356 3.80272 15.6332 4.71842 15.1928 5.50107C14.7443 6.29793 14.2717 7.33197 13.8302 8.21135C12.8742 10.1154 11.8126 11.8259 10.149 12.7865L11.649 15.3845C14.1422 13.945 15.5337 11.5045 16.5112 9.55741C17.0365 8.51124 17.4007 7.69472 17.8072 6.97242C18.2217 6.2359 18.4924 5.96383 18.6336 5.88231L17.1336 3.28423ZM10.149 12.7865L4.51751 16.0378L6.01751 18.6358L11.649 15.3845L10.149 12.7865ZM3.80279 18.0857L2.18737 19.893L4.4241 21.8922L6.03951 20.0849L3.80279 18.0857ZM1.85782 23.0258L3.37271 25.6497L5.97079 24.1497L4.4559 21.5258L1.85782 23.0258ZM6.25059 26.9307L8.26929 26.5092L7.65623 23.5726L5.63754 23.994L6.25059 26.9307ZM7.93604 26.3536L8.10138 26.6399L10.6995 25.1399L10.5341 24.8536L7.93604 26.3536ZM7.97181 26.3472C8.42295 27.7567 9.24625 29.8356 10.2709 31.4449C10.7731 32.2335 11.4075 33.0454 12.1766 33.5671C13.0116 34.1336 14.1714 34.4394 15.3344 33.7679L13.8344 31.1698C13.8308 31.1719 13.8465 31.1625 13.8791 31.1555C13.9121 31.1485 13.944 31.1478 13.968 31.1506C14.012 31.1555 13.9791 31.1647 13.8609 31.0846C13.5978 30.9061 13.2278 30.5031 12.8015 29.8336C11.9693 28.5267 11.2398 26.7162 10.829 25.4327L7.97181 26.3472ZM15.3344 33.7679L17.4128 32.5679L15.9128 29.9698L13.8344 31.1698L15.3344 33.7679ZM14.8858 20.9909L11.7681 22.7909L13.2681 25.389L16.3858 23.589L14.8858 20.9909ZM11.7681 22.7909L8.65042 24.5909L10.1504 27.189L13.2681 25.389L11.7681 22.7909ZM17.9619 30.5188L13.8171 23.3399L11.2191 24.8399L15.3638 32.0188L17.9619 30.5188ZM9.42822 14.3803C9.81684 16.3188 10.3414 17.9198 11.1889 19.3877C12.0365 20.8557 13.1606 22.1104 14.6451 23.4162L16.6265 21.1637C15.2954 19.9928 14.4197 18.9836 13.787 17.8877C13.1543 16.7918 12.7182 15.5288 12.3697 13.7906L9.42822 14.3803ZM8.26929 26.5092C8.15055 26.534 8.01041 26.4824 7.93604 26.3536L10.5341 24.8536C9.95003 23.8419 8.78488 23.3369 7.65623 23.5726L8.26929 26.5092ZM3.37271 25.6497C3.9568 26.6613 5.12195 27.1663 6.25059 26.9307L5.63754 23.994C5.75627 23.9692 5.89642 24.0208 5.97079 24.1497L3.37271 25.6497ZM2.18737 19.893C1.419 20.7526 1.27373 22.0141 1.85782 23.0258L4.4559 21.5258C4.53027 21.6546 4.50493 21.8018 4.4241 21.8922L2.18737 19.893ZM3.70863 19.0315C3.52751 18.7178 3.57797 18.3372 3.80279 18.0857L6.03951 20.0849C6.66389 19.3864 6.78405 18.3583 6.30671 17.5315L3.70863 19.0315ZM4.51751 16.0378C3.4828 16.6352 3.09504 17.9687 3.70863 19.0315L6.30671 17.5315C6.54021 17.9359 6.38513 18.4236 6.01751 18.6358L4.51751 16.0378Z" fill="#1F1F1F"/>
</svg>
