<svg width="28" height="24" viewBox="0 0 28 24" fill="none" xmlns="http://www.w3.org/2000/svg">
<rect x="12" y="2" width="14" height="20" rx="2.07407" fill="#EBEBEB" stroke="#1F1F1F" stroke-width="2"/>
<path d="M19.2592 11.8518C17.1392 11.8518 15.6211 13.5448 15.2177 15.4887C15.1013 16.0495 15.5754 16.5185 16.1481 16.5185H22.3703C22.9431 16.5185 23.4171 16.0495 23.3007 15.4887C22.8973 13.5448 21.3793 11.8518 19.2592 11.8518ZM19.2592 11.8518C17.8847 11.8518 16.7703 10.8072 16.7703 9.51852C16.7703 8.22985 17.8847 7.18518 19.2592 7.18518C20.6338 7.18518 21.7481 8.22985 21.7481 9.51852C21.7481 10.8072 20.6338 11.8518 19.2592 11.8518Z" stroke="#1F1F1F" stroke-width="2" stroke-linecap="round" stroke-linejoin="round"/>
<path d="M5 9V15M2 12H8" stroke="#1F1F1F" stroke-width="2" stroke-linecap="round" stroke-linejoin="round"/>
</svg>
