<svg width="24" height="24" viewBox="0 0 24 24" fill="none" xmlns="http://www.w3.org/2000/svg">
<path d="M17.3627 12.6254C17.3903 15.652 19.9714 16.6592 20 16.672C19.9782 16.743 19.5876 18.1073 18.6402 19.5166C17.8211 20.735 16.9711 21.9488 15.6321 21.974C14.3164 21.9986 13.8933 21.1799 12.389 21.1799C10.8852 21.1799 10.4152 21.9489 9.16969 21.9987C7.87719 22.0485 6.89293 20.6812 6.06715 19.4673C4.37971 16.9842 3.09015 12.4508 4.8217 9.39061C5.68189 7.87092 7.21913 6.90859 8.88766 6.88391C10.1569 6.85927 11.3548 7.753 12.1307 7.753C12.9062 7.753 14.3619 6.67821 15.8924 6.83605C16.533 6.8632 18.3315 7.09947 19.4863 8.81993C19.3932 8.87864 17.3404 10.095 17.3627 12.6254ZM14.8899 5.1933C15.5761 4.34789 16.038 3.171 15.912 2C14.9229 2.04046 13.7268 2.67085 13.0174 3.5158C12.3816 4.26404 11.8247 5.46164 11.975 6.60946C13.0775 6.69628 14.2037 6.03925 14.8899 5.1933Z" fill="#1F1F1F"/>
</svg>
