<svg width="22" height="18" viewBox="0 0 22 18" fill="none" xmlns="http://www.w3.org/2000/svg">
<path d="M8.58892 16.6403L1.75258 10.6585C1.27433 10.24 1 9.63548 1 9C1 8.36452 1.27433 7.75997 1.75258 7.3415L8.58892 1.3597C8.85393 1.12781 9.1941 1 9.54623 1C10.3491 1 11 1.65087 11 2.45377V4.63636C11 4.83719 11.1628 5 11.3636 5H19C20.1046 5 21 5.89543 21 7V11C21 12.1046 20.1046 13 19 13H11.3636C11.1628 13 11 13.1628 11 13.3636V15.5462C11 16.3491 10.3491 17 9.54623 17C9.1941 17 8.85393 16.8722 8.58892 16.6403Z" stroke="#1F1F1F" stroke-width="2"/>
</svg>
